<?xml version="1.0" encoding="UTF-8" standalone="no"?>
<!-- Created with Inkscape (http://www.inkscape.org/) -->

<svg
   width="120mm"
   height="120mm"
   viewBox="-60 -60 120 120"
   sodipodi:docname="2-people.svg"
   version="1.1"
   id="svg103434"
   inkscape:version="1.1.2 (0a00cf5339, 2022-02-04)"
   xmlns:inkscape="http://www.inkscape.org/namespaces/inkscape"
   xmlns:sodipodi="http://sodipodi.sourceforge.net/DTD/sodipodi-0.dtd"
   xmlns="http://www.w3.org/2000/svg"
   xmlns:svg="http://www.w3.org/2000/svg"
   xmlns:rdf="http://www.w3.org/1999/02/22-rdf-syntax-ns#"
   xmlns:cc="http://creativecommons.org/ns#"
   xmlns:dc="http://purl.org/dc/elements/1.1/">
  <defs
     id="defs103436">
    <linearGradient
       id="linearGradient104360"
       inkscape:swatch="solid">
      <stop
         style="stop-color:#000000;stop-opacity:1;"
         offset="0"
         id="stop104358" />
    </linearGradient>
  </defs>
  <sodipodi:namedview
     pagecolor="#ffffff"
     bordercolor="#666666"
     borderopacity="1.0"
     inkscape:pageopacity="0.0"
     inkscape:pageshadow="2"
     inkscape:zoom="1.4142136"
     inkscape:cx="158.74547"
     inkscape:cy="243.95184"
     inkscape:document-units="mm"
     inkscape:current-layer="Template"
     showgrid="false"
     units="mm"
     showguides="true"
     inkscape:guide-bbox="true"
     inkscape:snap-global="true"
     inkscape:snap-bbox="true"
     inkscape:snap-bbox-midpoints="true"
     inkscape:window-width="1904"
     inkscape:window-height="923"
     inkscape:window-x="1208"
     inkscape:window-y="645"
     inkscape:window-maximized="0"
     inkscape:bbox-paths="true"
     inkscape:bbox-nodes="true"
     inkscape:snap-bbox-edge-midpoints="true"
     inkscape:snap-grids="true"
     id="namedview103424"
     inkscape:pagecheckerboard="0">
    <sodipodi:guide
       orientation="1,0"
       position="226.771653543,226.771653543"
       id="guide2827" />
    <sodipodi:guide
       orientation="0,1"
       position="226.771653543,226.771653543"
       id="guide2829" />
    <inkscape:grid
       type="xygrid"
       id="grid3072"
       empspacing="10"
       visible="true"
       enabled="true"
       snapvisiblegridlinesonly="true"
       units="mm"
       dotted="false"
       spacingx="0.1mm"
       spacingy="0.1mm" />
  </sodipodi:namedview>
  <metadata
     id="metadata2822">
    <rdf:RDF>
      <cc:Work
         rdf:about="">
        <dc:format>image/svg+xml</dc:format>
        <dc:type
           rdf:resource="http://purl.org/dc/dcmitype/StillImage" />
      </cc:Work>
    </rdf:RDF>
  </metadata>
  <g
     inkscape:label="Layer 1"
     inkscape:groupmode="layer"
     id="Template"
     style="fill:none;stroke:black;stroke-width:0.05">
    <path
       class="cls-4"
       d="m -16.422061,-16.502562 c 1.031825,-0.149803 1.04169,-0.112724 1.910898,-0.103116 0.150755,-0.19052 1.335965,0.731708 1.322434,0.985161 -0.259506,0.518625 -0.998841,-0.43457 -1.514034,-0.281306 0.166221,1.17752 1.674095,4.989443 -3.650267,1.466513 l 1.129577,-1.440902"
       id="path11965"
       sodipodi:nodetypes="cccccc"
       style="isolation:isolate;fill:#c87137;fill-opacity:1;stroke:none" />
    <path
       class="cls-4"
       d="m -27.725282,-23.154625 c 0,0 2.71104,8.232563 3.216829,8.290976 a 18.377218,18.377218 0 0 0 7.285,-1.012563 l 0.887023,2.703126 c 0,0 -9.979411,3.774718 -11.777178,-0.618802 -1.879276,-4.593293 -3.357368,-8.267226 -3.357368,-8.267226 z"
       id="path11967"
       style="isolation:isolate;fill:#c87137;stroke:none" />
    <path
       class="cls-4"
       d="m -41.446432,-25.435675 c 0,0 -3.621334,17.015684 -2.950911,23.9442188 l 2.648702,-0.4064978 c 0,0 0.42461,-11.886062 2.634811,-18.09633 z"
       id="path11969"
       style="isolation:isolate;fill:#c87137;fill-opacity:1;stroke:none" />
    <path
       class="cls-4"
       d="m -42.098042,-3.649802 0.312786,0.6545805 a 6.2033794,6.2033794 0 0 0 0.503458,1.1107081 1.7763277,1.7763277 0 0 0 0.379098,0.4706272 2.7169313,2.7169313 0 0 0 0.611653,0.43997709 0.23384652,0.23384652 0 0 1 0.0089,0.4421085 1.9194726,1.9194726 0 0 1 -1.316093,-0.71628669 c -0.513057,-0.5435338 -0.426597,0.62934229 -0.403184,1.05740239 a 6.9853327,6.9853327 0 0 1 -0.09041,1.86708551 c -0.18443,0.1636279 -0.393958,-0.00345 -0.407441,-0.4318793 -0.01383,-0.43319321 -0.145511,-1.70855371 -0.371198,-1.68512031 -0.222035,0.023091 -0.07125,2.20030521 -0.07125,2.20030521 0,0 0.107569,0.4602495 -0.152099,0.4958946 -0.468156,0.064682 -0.457952,-2.26169551 -0.451337,-2.48304831 0.0042,-0.1539137 -0.241522,-0.137113 -0.237541,0.028373 0.0042,0.1702632 0.200919,2.16814231 -0.275173,2.23841601 -0.36525,0.053932 -0.0095,-1.91357291 -0.280448,-2.30537471 -0.271191,-0.3916399 -0.118117,1.51950441 -0.469139,1.55677121 -0.130982,0.013802 -0.230336,0.00557 -0.159704,-1.10426121 0.07227,-1.1369655 0.76972,-4.18567789 0.76972,-4.18567789 l 2.129057,0.380896"
       id="path11971"
       style="isolation:isolate;fill:#c87137;fill-opacity:1;stroke:none" />
    <path
       class="cls-7"
       d="m -34.875042,23.829762 c 0,0 3.014251,0.745779 2.319762,0.956314 -0.694847,0.210686 -6.260772,-0.112509 -6.260772,-0.112509 l -0.132639,-1.178171 z"
       id="path11973"
       style="isolation:isolate;fill:#44c7f3;stroke:none" />
    <polygon
       class="cls-7"
       points="252.447,458.593 253.069,462.434 258.733,461.152 258.25,458.593 "
       id="polygon11975"
       transform="matrix(0.7022418,0,0,0.7022418,-216.56825,-300.01045)"
       style="isolation:isolate;fill:#44c7f3;stroke:none" />
    <path
       class="cls-7"
       d="m -31.842842,23.08214 c 0,0 2.522649,1.810332 1.799418,1.748302 -0.723232,-0.062 -5.772426,-2.426294 -5.772426,-2.426294 l 0.313762,-1.143384 z"
       id="path11977"
       style="isolation:isolate;fill:#44c7f3;stroke:none" />
    <polygon
       class="cls-7"
       points="258.163,455.38 257.316,459.177 263.051,460.087 263.552,457.531 "
       id="polygon11979"
       transform="matrix(0.7022418,0,0,0.7022418,-216.56825,-300.01045)"
       style="isolation:isolate;fill:#44c7f3;stroke:none" />
    <path
       class="cls-4"
       d="m -29.969471,-11.736889 c 0.0934,2.239224 0.175847,3.99428 0.175847,3.99428 l -10.576587,-0.401022 c 0,0 -0.09105,-4.771269 1.059423,-6.711942 a 5.3265042,5.3265042 0 0 0 0.291669,-3.973678 l -0.477419,-4.408674 1.051488,-4.367136 5.806772,0.407616 c 0,0 3.682689,0 4.31055,3.305108 l -1.84861,4.302263 -0.02739,1.263488 z"
       id="path11981"
       style="isolation:isolate;fill:#c87137;fill-opacity:1;stroke:none" />
    <path
       class="cls-48"
       d="m -38.44505,-27.605075 a 3.0336846,3.0336846 0 0 0 -2.804754,2.454679 l 1.481028,3.091268 1.323726,-5.545961"
       id="path11983"
       style="isolation:isolate;fill:#f5ba99;stroke:none" />
    <path
       class="cls-4"
       d="m -33.322894,-26.99218 a 14.487536,14.487536 0 0 1 0.141853,-1.834754 1.6162165,1.6162165 0 0 0 1.484708,-1.440789 c 0.125379,-1.340854 0.142843,-4.441869 0.142843,-4.441869 l -2.428926,-1.28558 -2.780667,1.969184 -0.634124,1.470347 0.833105,3.497754 -0.0035,1.762823 z"
       id="path11985"
       style="isolation:isolate;fill:#c87137;stroke:none" />
    <path
       class="cls-52"
       d="m -33.181027,-28.826969 a 3.3563577,3.3563577 0 0 1 -1.760841,-0.658366 1.7349586,1.7349586 0 0 0 1.72094,0.987156 z"
       id="path12003"
       style="isolation:isolate;mix-blend-mode:multiply;fill:#fac4c9;stroke:none" />
    <path
       class="cls-7"
       d="m -37.347713,-31.081706 a 11.012998,11.012998 0 0 1 0.587959,2.005806 c 0.200244,0.371486 0.267554,-0.799249 0.267554,-0.799249 a 4.9003837,4.9003837 0 0 0 0.01579,-1.564033 c 0,0 -0.684917,0.221698 -0.83901,-1.007127 a 0.55240445,0.55240445 0 0 1 1.090441,-0.163489 l 0.572074,0.05281 c 0,0 0.04621,-2.295011 1.36525,-1.872022 0,0 0.956142,0.590388 1.526264,0.22893 0.570115,-0.361261 0.5289,-0.485993 0.5289,-0.485993 0,0 0.274499,0.603598 1.009557,0.207203 0.73543,-0.39657 0.832431,-1.103615 0.57739,-1.441463 -0.147469,-0.195483 -0.290349,-0.412918 -0.531168,-0.456303 a 0.70578813,0.70578813 0 0 0 -0.65725,0.241663 0.62710192,0.62710192 0 0 0 -0.214436,-0.833877 1.0231101,1.0231101 0 0 0 -0.922163,-0.04389 3.0199417,3.0199417 0 0 0 -0.794816,0.529708 1.1675964,1.1675964 0 0 0 -2.253417,0.185582 1.0176748,1.0176748 0 0 0 -1.203923,-0.23193 1.4145467,1.4145467 0 0 0 -0.735395,1.039761 2.3697079,2.3697079 0 0 0 0.182133,1.292679 0.74955884,0.74955884 0 0 0 -0.941004,0.237878 1.0215792,1.0215792 0 0 0 -0.05736,1.012534 1.6359355,1.6359355 0 0 0 0.7509,0.726343 0.64872394,0.64872394 0 0 0 0.614012,1.119289"
       id="path12005"
       style="isolation:isolate;fill:#28170b;stroke:none" />
    <path
       class="cls-52"
       d="m -36.470761,-31.845682 c -0.0056,-0.0035 -0.01911,0.01524 -0.05182,0.03265 a 0.2008833,0.2008833 0 0 1 -0.149121,0.01221 0.49527009,0.49527009 0 0 1 -0.255047,-0.428936 0.65944718,0.65944718 0 0 1 0.03862,-0.288993 0.23079176,0.23079176 0 0 1 0.140885,-0.162001 0.10134755,0.10134755 0 0 1 0.120785,0.04747 c 0.01749,0.03104 0.0116,0.05428 0.01783,0.0559 0.0035,0.0028 0.02309,-0.02058 0.01123,-0.06748 a 0.12851025,0.12851025 0 0 0 -0.04951,-0.06896 0.15093985,0.15093985 0 0 0 -0.111825,-0.0224 0.2804824,0.2804824 0 0 0 -0.197638,0.190209 0.67545829,0.67545829 0 0 0 -0.04979,0.32315 0.51870388,0.51870388 0 0 0 0.320686,0.476773 0.21497026,0.21497026 0 0 0 0.180779,-0.04143 c 0.03364,-0.03034 0.03792,-0.05639 0.03392,-0.05822 z"
       id="path12007"
       style="isolation:isolate;mix-blend-mode:multiply;fill:#fac4c9;stroke:none" />
    <polygon
       class="cls-10"
       points="265.838,412.475 250.778,411.318 250.778,410.375 265.779,411.783 "
       id="polygon12009"
       transform="matrix(0.7022418,0,0,0.7022418,-216.56825,-300.01045)"
       style="isolation:isolate;fill:#f8a378;stroke:none" />
    <path
       class="cls-11"
       d="m -40.461264,-11.192687 0.712656,34.221718 5.531601,-0.07243 c 0,0 -0.06566,-25.2561247 0.103931,-27.6701175 v -5.9915315 z"
       id="path12011"
       style="isolation:isolate;fill:#262d6b;stroke:none" />
    <path
       class="cls-11"
       d="m -29.88535,-10.353333 c 0,0 4.035236,14.4352836 3.136317,18.0902472 -1.077533,4.3821378 -4.238275,15.0581728 -4.238275,15.0581728 l -4.88529,-1.337069 c 0,0 4.656633,-14.1536838 4.627273,-15.0869068 -0.02936,-0.9330345 -3.169293,-11.708892 -3.169293,-11.708892 l 0.301536,-5.3404092 z"
       id="path12013"
       style="isolation:isolate;fill:#262d6b;stroke:none" />
    <polygon
       class="cls-53"
       points="260.924,458.763 260.616,447.554 259.624,450.282 259.624,458.407 "
       id="polygon12015"
       transform="matrix(0.7022418,0,0,0.7022418,-216.56825,-300.01045)"
       style="opacity:0.15;isolation:isolate;fill:#08173a;stroke:none" />
    <path
       class="cls-7"
       d="m -37.560829,-10.522257 a 2.0551668,2.0551668 0 0 0 -0.252105,0.46454 4.8966828,4.8966828 0 0 1 -0.655894,1.060385 2.1456226,2.1456226 0 0 1 -1.013244,0.666947 c -0.304499,0.08511 -0.508423,0.05407 -0.510726,0.08051 a 0.84275337,0.84275337 0 0 0 0.535157,0.02325 2.0166699,2.0166699 0 0 0 1.102295,-0.671912 3.8519577,3.8519577 0 0 0 0.639743,-1.116326 1.7173815,1.7173815 0 0 0 0.154773,-0.507391 z"
       id="path12017"
       style="isolation:isolate;fill:#44c7f3;stroke:none" />
    <path
       class="cls-7"
       d="m -33.615537,-5.6331788 a 0.84760585,0.84760585 0 0 0 -0.200279,0.045227 0.94695903,0.94695903 0 0 1 -0.228614,0.028373 0.32380368,0.32380368 0 0 1 -0.250119,-0.097619 0.49016477,0.49016477 0 0 1 -0.08047,-0.3292672 c -0.0021,-0.139396 -0.0049,-0.287378 -0.007,-0.442411 -0.0042,-0.311467 -0.0049,-0.653907 0,-1.013209 0.0086,-0.719096 0.03897,-1.369372 0.06236,-1.840534 a 4.4416795,4.4416795 0 0 0 0.01813,-0.765444 3.4152616,3.4152616 0 0 0 -0.12436,0.757017 c -0.05049,0.470656 -0.09831,1.123924 -0.106593,1.846952 -0.0049,0.361431 3.37e-4,0.705753 0.0116,1.018679 0.0056,0.156355 0.01319,0.305011 0.02113,0.443902 a 0.58116126,0.58116126 0 0 0 0.127027,0.3965981 0.40779885,0.40779885 0 0 0 0.330587,0.1096957 0.8610889,0.8610889 0 0 0 0.243489,-0.056613 c 0.126045,-0.049367 0.186727,-0.092921 0.183109,-0.1013351 z"
       id="path12019"
       style="isolation:isolate;fill:#44c7f3;stroke:none" />
    <path
       class="cls-7"
       d="m -33.926321,-9.198903 c 0.01186,0.02129 0.11382,-0.04438 0.280749,-0.01916 a 0.38431587,0.38431587 0 0 1 0.238215,0.12686 0.27728719,0.27728719 0 0 1 0.03041,0.29596 0.24297566,0.24297566 0 0 1 -0.232261,0.161515 0.25894465,0.25894465 0 0 1 -0.188418,-0.158004 0.26785609,0.26785609 0 0 1 -0.01813,-0.181795 c 0.01319,-0.04354 0.03132,-0.06734 0.02309,-0.07655 -0.0049,-0.0063 -0.03862,0.0014 -0.07524,0.04986 a 0.28700623,0.28700623 0 0 0 -0.03034,0.243677 0.35824867,0.35824867 0 0 0 0.268214,0.260146 0.37413336,0.37413336 0 0 0 0.390644,-0.237886 0.44959628,0.44959628 0 0 0 0.03596,-0.240377 0.3804395,0.3804395 0 0 0 -0.09963,-0.208181 0.46277733,0.46277733 0 0 0 -0.334858,-0.141362 0.42906973,0.42906973 0 0 0 -0.229302,0.06053 c -0.04747,0.02992 -0.06433,0.05765 -0.05906,0.06475 z"
       id="path12021"
       style="isolation:isolate;fill:#44c7f3;stroke:none" />
    <path
       class="cls-7"
       d="m -29.693982,-8.253672 c 0.0035,-0.02373 -0.124705,-0.05393 -0.313087,-0.136763 A 2.0901806,2.0901806 0 0 1 -31.10079,-9.50145 c -0.07953,-0.189865 -0.107906,-0.318383 -0.131656,-0.315244 -0.01749,0.0014 -0.02703,0.138385 0.03104,0.350384 a 1.7636733,1.7636733 0 0 0 1.157407,1.175848 c 0.21115,0.06159 0.34808,0.05414 0.350046,0.0368 z"
       id="path12023"
       style="isolation:isolate;fill:#44c7f3;stroke:none" />
    <path
       class="cls-7"
       d="m -39.303218,23.14714 c 0.04157,0 0.07524,-7.044518 0.07524,-15.7325687 0,-8.6908535 -0.03364,-15.7340573 -0.07524,-15.7340573 -0.04157,0 -0.07521,7.0432038 -0.07521,15.7340573 0,8.6880507 0.03364,15.7325687 0.07521,15.7325687 z"
       id="path12025"
       style="isolation:isolate;fill:#44c7f3;stroke:none" />
    <path
       class="cls-7"
       d="m -33.999227,-4.2738785 a 1.6790601,1.6790601 0 0 0 0.100947,0.2378643 c 0.07389,0.1565678 0.179773,0.3815701 0.315412,0.66994 0.274497,0.5809997 0.677998,1.4190318 1.140881,2.46971389 a 29.349816,29.349816 0 0 1 1.38704,3.77900221 19.102304,19.102304 0 0 1 0.502805,2.3192639 15.224729,15.224729 0 0 1 0.161327,2.5391383 c -0.0042,0.4365002 -0.05183,0.8655688 -0.08708,1.2888594 q -0.04403,0.3157713 -0.08676,0.6267094 c -0.02802,0.2073681 -0.07392,0.4102851 -0.109549,0.6128601 a 18.813479,18.813479 0 0 1 -0.608057,2.294668 31.141797,31.141797 0 0 1 -1.545424,3.718124 c -0.502482,1.032196 -0.936311,1.855062 -1.233921,2.424503 -0.146495,0.282751 -0.260995,0.503634 -0.340489,0.657222 a 1.6695799,1.6695799 0 0 0 -0.110202,0.233936 1.6761599,1.6761599 0 0 0 0.136938,-0.219392 c 0.0848,-0.146482 0.209162,-0.362749 0.365215,-0.643879 0.313754,-0.561197 0.762147,-1.376802 1.278141,-2.405345 a 29.775052,29.775052 0 0 0 1.581371,-3.721264 18.631177,18.631177 0 0 0 0.621273,-2.310012 c 0.03631,-0.204395 0.08315,-0.4089634 0.111488,-0.6184628 q 0.0441,-0.3137488 0.08876,-0.6328245 c 0.03631,-0.4275823 0.08479,-0.8611099 0.08875,-1.3023796 a 15.153332,15.153332 0 0 0 -0.165614,-2.5638856 18.910908,18.910908 0 0 0 -0.515361,-2.3357487 28.104054,28.104054 0 0 0 -1.423318,-3.78428131 c -0.4764,-1.04753419 -0.894761,-1.87897619 -1.185747,-2.45237709 -0.145849,-0.2865624 -0.260988,-0.5080851 -0.340517,-0.6573832 a 1.6533721,1.6533721 0 0 0 -0.128306,-0.224567 z"
       id="path12027"
       style="isolation:isolate;fill:#44c7f3;stroke:none" />
    <path
       class="cls-9"
       d="m -36.56708,-27.537773 c 0,0 2.006305,2.054662 3.286075,0.249092 0,0 2.337243,0.0093 3.504889,0.807697 1.035301,0.70786 2.855533,5.259896 2.855533,5.259896 l -3.064394,2.836244 -0.217098,-0.534982 0.282744,8.362773 -10.541933,-1.270917 a 36.214736,36.214736 0 0 0 1.123419,-3.695899 20.148665,20.148665 0 0 0 0.224015,-4.470415 l -3.518386,-0.627348 c 0,0 0.57343,-5.453757 2.784613,-6.790966 1.402553,-0.848034 3.280523,-0.125175 3.280523,-0.125175 z"
       id="path12029"
       style="isolation:isolate;fill:#f15e5f;stroke:none" />
    <path
       class="cls-54"
       d="m 22.499598,-6.9172 -0.698623,0.366723 a 6.742083,6.742083 0 0 1 -1.161825,0.639394 1.9307366,1.9307366 0 0 1 -0.636933,0.1632558 2.96306,2.96306 0 0 1 -0.819172,-0.015394 c -0.243968,-0.064602 -0.439879,0.2009451 -0.295644,0.3792955 a 2.0886638,2.0886638 0 0 0 1.612845,0.2335645 c 0.800879,-0.1395813 -0.03841,0.8259718 -0.337623,1.1829964 a 7.6032773,7.6032773 0 0 0 -1.137106,1.6853378 c 0.0538,0.262654 0.345195,0.2533379 0.636232,-0.1108369 0.294238,-0.3681641 1.239323,-1.3932469 1.420537,-1.2260651 0.178305,0.1650345 -1.371042,1.9630407 -1.371042,1.9630407 0,0 -0.393257,0.3308309 -0.190515,0.5310753 0.365993,0.36095279 1.871916,-1.6717407 2.010433,-1.8687205 0.09653,-0.1370599 0.299597,0.037715 0.188391,0.179075 -0.114473,0.1456859 -1.587065,1.7578305 -1.218192,2.12919539 0.283096,0.2845771 1.254788,-1.66056939 1.745634,-1.82525099 0.491202,-0.1647161 -0.886271,1.4004369 -0.604969,1.66130729 0.104785,0.097221 0.196619,0.1553469 0.858302,-0.85793559 0.677424,-1.037345 2.055264,-4.1467866 2.055264,-4.1467866 l -2.102625,-1.054916"
       id="path12031"
       style="isolation:isolate;fill:#f7aebd;stroke:none" />
    <path
       class="cls-54"
       d="m 35.693488,-22.24447 c 0,0 -6.593996,12.520072 -11.951897,17.8681974 L 21.800975,-6.550477 c 0,0 7.870508,-10.26473 10.315265,-17.003927 z"
       id="path12033"
       inkscape:transform-center-x="-11.898703"
       inkscape:transform-center-y="-0.41787027"
       style="isolation:isolate;fill:#f7aebd;stroke:none" />
    <path
       class="cls-4"
       d="m 41.349651,-4.4670496 c 0,0 -1.678865,6.2354561 -1.408697,10.5257603 0.269836,4.2903463 2.398663,6.0908743 3.854725,7.9810903 1.455747,1.890254 6.586382,6.750729 6.586382,6.750729 l -2.236845,2.887372 c 0,0 -11.566343,-8.455805 -13.334905,-12.158376 -1.768595,-3.7029849 0,-9.7213586 0,-9.7213586 z"
       id="path12111"
       style="isolation:isolate;fill:#f7aebd;fill-opacity:1;stroke:none" />
    <path
       class="cls-4"
       d="m 41.188536,-10.326114 c 0.108024,0.0056 1.302855,3.522095 0.161107,5.8590644 -0.114818,0.2349978 -1.010785,1.5238625 -1.010785,1.5238625 -3.162196,3.74170629 -8.059271,11.791688 -8.48339,12.9800831 -1.229295,3.446406 -6.515357,16.821879 -6.515357,16.821879 L 22.131609,25.560955 27.074647,7.9112754 31.871942,-7.390314 Z"
       id="path12115"
       style="isolation:isolate;fill:#fac4c9;stroke:none" />
    <path
       class="cls-9"
       d="m 22.131617,25.56095 c 0,0 -3.142475,-0.498774 -2.570906,-0.02309 0.571567,0.475811 5.461474,2.04563 5.461474,2.04563 l 0.317897,-0.72482 z"
       id="path12117"
       style="isolation:isolate;fill:#f15e5f;stroke:none" />
    <path
       class="cls-9"
       d="m 48.035056,23.187021 c 0,0 -1.808392,2.617571 -1.132406,2.307905 0.676358,-0.309691 4.168325,-4.094774 4.168325,-4.094774 l -0.709349,-0.729117 z"
       id="path12119"
       style="isolation:isolate;fill:#f15e5f;stroke:none" />
    <path
       class="cls-57"
       d="m 37.058975,-25.46335 c 0.06994,0.0042 0.742754,0.09362 0.810541,0.111222 0.348059,0.08969 3.930084,1.15537 3.927589,3.64158 -0.0074,7.720952 3.66e-4,14.502879 3.66e-4,14.502879 l -10.322724,0.838202 a 14.517676,14.517676 0 0 0 0.771814,-8.822156 17.86685,17.86685 0 0 1 0.108714,-9.014103 c 0.408682,-1.091508 1.603182,-1.4539 4.703692,-1.257623 z"
       id="path12121"
       style="isolation:isolate;fill:#ee6d74;stroke:none" />
    <path
       class="cls-58"
       d="M 41.349651,-4.4670496 38.652833,-0.74327201 34.09769,6.0587107 a 10.809847,10.809847 0 0 0 0.311095,4.3886663 l 6.018382,-10.59972021 c 0,0 0.575901,-3.29354899 0.922484,-4.31470639 z"
       id="path12123"
       style="isolation:isolate;fill:#0d1320;stroke:none" />
    <path
       class="cls-4"
       d="m 36.672524,-19.28285 c 0,0 -1.872983,7.67761 -2.410845,7.809631 -3.688244,0.90599 -7.998324,-0.09723 -7.998324,-0.09723 l -0.587728,3.037358 c 0,0 11.30551,3.1360021 12.900058,-1.774333 1.691811,-5.209974 2.510611,-8.284656 2.510611,-8.284656 z"
       id="path12127"
       style="isolation:isolate;fill:#fac4c9;stroke:none" />
    <path
       class="cls-7"
       d="m 31.510998,-6.369467 c 0,0 -7.423137,17.075915 -6.957391,20.528073 0.46612,3.452145 4.532879,4.381469 8.36755,3.103383 3.83424,-1.278121 8.340947,-3.282426 11.943024,-2.469019 C 48.466261,15.606377 37.671442,8.561811 40.282882,2.2115368 42.876746,-4.0949388 41.968215,-9.01104 41.968215,-9.01104 Z"
       id="path12129"
       style="isolation:isolate;fill:#44c7f3;stroke:none" />
    <path
       class="cls-9"
       d="m 32.815665,-27.325232 a 5.0684231,5.0684231 0 0 1 -2.86585,-1.738105 2.0593592,2.0593592 0 0 0 0.662026,-0.165414 0.69743847,0.69743847 0 0 0 0.401521,-0.520277 1.3172371,1.3172371 0 0 0 -0.205962,-0.652691 0.63997403,0.63997403 0 0 1 -0.01141,-0.657299 c 0.177615,-0.220673 0.537137,-0.165082 0.771062,-0.324723 0.379251,-0.258376 0.213155,-0.849671 0.359188,-1.284555 a 1.1770204,1.1770204 0 0 1 0.782908,-0.693225 3.4858722,3.4858722 0 0 1 1.075387,-0.108019 z"
       id="path12131"
       style="isolation:isolate;fill:#f15e5f;stroke:none" />
    <path
       class="cls-9"
       d="m 35.861617,-34.953966 c 1.69717,0.0707 2.068193,1.355945 2.774678,1.966278 a 1.2058053,1.2058053 0 0 1 0.480115,0.668492 c 0.05022,0.334758 -0.186931,0.652656 -0.183029,0.991382 0.0098,0.795142 1.245074,1.130273 1.282054,1.924684 a 2.6358576,2.6358576 0 0 1 -0.371352,1.021179 c -0.134591,0.340861 -0.06174,0.846805 0.299234,0.908862 l -2.980315,0.620782 c 0,0 -1.532123,-7.460814 -0.976685,-7.611164"
       id="path12133"
       style="isolation:isolate;fill:#f15e5f;stroke:none" />
    <path
       class="cls-4"
       d="m 33.820672,-24.991865 a 14.813243,14.813243 0 0 0 -0.01247,-1.88559 1.6557387,1.6557387 0 0 1 -1.413002,-1.579854 c -0.03161,-1.379273 0.17512,-4.549747 0.17512,-4.549747 l 2.575099,-1.138503 2.388957,2.19735 -0.375652,6.88098 z"
       id="path12135"
       style="isolation:isolate;fill:#fac4c9;stroke:none" />
    <path
       class="cls-52"
       d="m 33.808115,-26.877455 a 3.4404582,3.4404582 0 0 0 1.84719,-0.545402 1.7777883,1.7777883 0 0 1 -1.829956,0.884501 z"
       id="path12153"
       style="isolation:isolate;mix-blend-mode:multiply;fill:#fac4c9;stroke:none" />
    <path
       class="cls-4"
       d="m 37.454729,-30.681217 a 1.3154323,1.3154323 0 0 1 0.447449,-0.08973 0.44873252,0.44873252 0 0 1 0.385025,0.208846 0.43565678,0.43565678 0 0 1 0.01911,0.331894 0.61797278,0.61797278 0 0 1 -0.89163,0.357027"
       id="path12155"
       style="isolation:isolate;fill:#fac4c9;stroke:none" />
    <path
       class="cls-9"
       d="m 31.969562,-32.087429 c 0.07105,0.02008 1.734129,0.13922 1.734129,0.13922 l 0.23935,-1.076775 0.0585,1.15287 2.635465,0.201642 0.917863,3.286358 0.534969,-4.052771 c 0,0 -0.910989,-3.208163 -3.485499,-2.463253 -2.57451,0.74491 -2.634762,2.81271 -2.634762,2.81271 z"
       id="path12159"
       style="isolation:isolate;fill:#f15e5f;stroke:none" />
    <path
       class="cls-3"
       d="m 31.364932,-0.56389181 c 0.105847,0.039812 0.06136,0.4165915 -0.09937,0.8410738 -0.161133,0.4244849 -0.377103,0.73628031 -0.482616,0.6960833 -0.105847,-0.039812 -0.06139,-0.4165836 0.0994,-0.8410314 0.160761,-0.4244504 0.377145,-0.7362882 0.482602,-0.6961257 z"
       id="path12161"
       style="isolation:isolate;fill:#ffffff;stroke:none" />
    <path
       class="cls-3"
       d="m 31.922196,-4.2553393 c 0.104069,0.04374 0.02336,0.4711129 -0.180482,0.9540527 -0.203811,0.4833538 -0.453184,0.8392769 -0.557579,0.7955128 -0.104069,-0.044112 -0.02336,-0.4714792 0.180481,-0.9544588 0.203812,-0.4829795 0.453163,-0.8392689 0.55758,-0.7951067 z"
       id="path12163"
       style="isolation:isolate;fill:#ffffff;stroke:none" />
    <path
       class="cls-3"
       d="m 33.940164,-4.4279567 c 0.109776,0.016456 0.125966,0.4948144 -0.06784,1.0387835 -0.192319,0.5443009 -0.506638,0.9052616 -0.602432,0.8489327 -0.09972,-0.057383 0.03875,-0.4808111 0.21634,-0.9860165 0.180508,-0.5041119 0.340531,-0.9203291 0.453916,-0.9016997 z"
       id="path12165"
       style="isolation:isolate;fill:#ffffff;stroke:none" />
    <path
       class="cls-3"
       d="m 33.655266,-6.670895 c 0.108714,0.03195 0.131672,0.280601 0.05133,0.556175 -0.08005,0.275566 -0.233246,0.4729099 -0.341992,0.4413521 -0.108342,-0.031611 -0.131326,-0.2806041 -0.05133,-0.5561751 0.08042,-0.275208 0.233644,-0.472918 0.341992,-0.441352 z"
       id="path12167"
       style="isolation:isolate;fill:#ffffff;stroke:none" />
    <path
       class="cls-3"
       d="m 36.602954,-6.795749 c 0.110147,0.0014 0.186586,0.540025 0.0042,1.1708007 -0.179765,0.6318557 -0.530677,1.0481101 -0.624291,0.9903135 -0.100459,-0.057728 0.06784,-0.5267357 0.230698,-1.1033402 0.167901,-0.575171 0.274085,-1.061705 0.38966,-1.057774 z"
       id="path12169"
       style="isolation:isolate;fill:#ffffff;stroke:none" />
    <path
       class="cls-3"
       d="m 37.75293,-4.2553393 c 0.110492,0.023091 0.111925,0.4682491 0.0035,0.9949849 -0.109059,0.5267384 -0.287398,0.935057 -0.397917,0.9120933 -0.110863,-0.023091 -0.112297,-0.4682411 -0.0035,-0.9949848 0.109059,-0.5267438 0.287069,-0.935057 0.397951,-0.9120934 z"
       id="path12171"
       style="isolation:isolate;fill:#ffffff;stroke:none" />
    <path
       class="cls-3"
       d="m 39.929472,-7.169643 c 0.111581,-0.0029 0.210607,0.399358 0.137777,0.890234 -0.07105,0.491568 -0.280968,0.8482369 -0.387152,0.8134066 -0.109085,-0.034398 -0.08326,-0.4183486 -0.01805,-0.8726346 0.0675,-0.453879 0.152879,-0.828835 0.267341,-0.831006 z"
       id="path12173"
       style="isolation:isolate;fill:#ffffff;stroke:none" />
    <path
       class="cls-3"
       d="m 40.888573,-4.8007416 c 0.11158,0.00796 0.166521,0.4930096 0.04629,1.070673 -0.118747,0.5784358 -0.361654,1.001453 -0.46718,0.9644861 -0.10797,-0.036946 -0.04629,-0.4976357 0.06601,-1.0473431 0.114871,-0.5490067 0.240783,-0.9964526 0.354877,-0.987816 z"
       id="path12175"
       style="isolation:isolate;fill:#ffffff;stroke:none" />
    <path
       class="cls-3"
       d="m 39.255257,-2.26753 c 0.11089,0.014067 0.135998,0.5321449 -0.01407,1.1424702 -0.148553,0.61143479 -0.409757,1.05921239 -0.514546,1.02044869 -0.10728,-0.039122 -0.02548,-0.5306719 0.116623,-1.11733819 0.144253,-0.5863159 0.29853,-1.0602794 0.411915,-1.0455807 z"
       id="path12177"
       style="isolation:isolate;fill:#ffffff;stroke:none" />
    <path
       class="cls-3"
       d="m 35.475153,-1.9776021 c 0.109085,0.030841 0.06818,0.5120105 -0.09112,1.07464619 -0.159301,0.5626357 -0.376766,0.9939179 -0.485488,0.9630556 -0.108713,-0.030841 -0.06784,-0.5116762 0.09149,-1.07464099 0.159328,-0.5626357 0.376402,-0.9939259 0.485116,-0.9630608 z"
       id="path12179"
       style="isolation:isolate;fill:#ffffff;stroke:none" />
    <path
       class="cls-3"
       d="m 37.255589,0.34713189 c 0.108395,0.036229 0.02654,0.5683686 -0.125223,1.20345971 -0.153223,0.6350938 -0.321865,1.1464037 -0.434884,1.1295419 -0.110518,-0.01619 -0.121294,-0.5701336 0.0366,-1.2249954 0.156807,-0.65519361 0.41765,-1.14386901 0.523507,-1.10800621 z"
       id="path12181"
       style="isolation:isolate;fill:#ffffff;stroke:none" />
    <path
       class="cls-3"
       d="m 33.207817,0.72929389 c 0.107652,0.037981 0.04271,0.49694031 -0.102264,1.03730781 -0.145686,0.5403754 -0.31933,0.9698952 -0.431282,0.9490602 -0.110147,-0.020437 -0.114473,-0.4976809 0.03588,-1.0552817 0.149296,-0.5579299 0.392197,-0.96879111 0.497681,-0.93108631 z"
       id="path12183"
       style="isolation:isolate;fill:#ffffff;stroke:none" />
    <path
       class="cls-3"
       d="m 29.049894,2.2244492 c 0.105847,0.039812 0.01513,0.5461057 -0.202697,1.1313122 C 28.629,3.9409944 28.366378,4.3834081 28.260156,4.343949 28.154309,4.3044022 28.245026,3.798175 28.463251,3.2126367 28.681422,2.6274037 28.944055,2.18499 29.049912,2.2244492 Z"
       id="path12185"
       style="isolation:isolate;fill:#ffffff;stroke:none" />
    <path
       class="cls-3"
       d="m 30.829992,3.5100732 c 0.110492,0.017252 0.117685,0.5543707 -0.04706,1.185531 -0.163257,0.6314895 -0.431283,1.0969013 -0.536079,1.0581455 -0.10728,-0.039122 -0.01778,-0.5511353 0.139953,-1.1615084 0.159328,-0.6092583 0.330483,-1.1001048 0.443173,-1.0821681 z"
       id="path12187"
       style="isolation:isolate;fill:#ffffff;stroke:none" />
    <path
       class="cls-3"
       d="m 28.501991,6.8341263 c 0.105847,0.044112 0.02872,0.4668079 -0.09255,0.968393 -0.123815,0.5009083 -0.250471,0.9113953 -0.364559,0.9016785 -0.11089,-0.00849 -0.165035,-0.4632142 -0.03302,-0.9989183 0.129867,-0.5360279 0.387497,-0.9145935 0.490125,-0.8711532 z"
       id="path12189"
       style="isolation:isolate;fill:#ffffff;stroke:none" />
    <path
       class="cls-3"
       d="m 31.238675,8.453806 c 0.110492,0.023622 0.11373,0.4427826 0.0069,0.9350543 -0.106908,0.4930176 -0.283101,0.8730057 -0.393612,0.8489747 -0.110518,-0.02389 -0.113384,-0.4427821 -0.0064,-0.935428 0.106643,-0.4926434 0.28278,-0.8726316 0.39329,-0.848601 z"
       id="path12191"
       style="isolation:isolate;fill:#ffffff;stroke:none" />
    <path
       class="cls-3"
       d="m 34.137144,3.8064745 c 0.110147,0.024949 0.11089,0.435213 0.0014,0.9157242 -0.109802,0.4805086 -0.287765,0.8496706 -0.398291,0.8245359 -0.110147,-0.025214 -0.110519,-0.4348839 -0.0014,-0.9157242 0.109828,-0.4804449 0.288136,-0.8496706 0.398291,-0.8245359 z"
       id="path12193"
       style="isolation:isolate;fill:#ffffff;stroke:none" />
    <path
       class="cls-3"
       d="m 37.535123,4.4221639 c 0.112642,0.00823 0.183348,0.3128995 0.157152,0.6803257 -0.02575,0.368156 -0.138467,0.6598542 -0.251162,0.6515892 -0.112642,-0.00796 -0.183348,-0.3124987 -0.157152,-0.6802832 0.02575,-0.3677924 0.13852,-0.6594959 0.251162,-0.6516317 z"
       id="path12195"
       style="isolation:isolate;fill:#ffffff;stroke:none" />
    <path
       class="cls-3"
       d="m 39.566357,2.3844621 c 0.11158,0.010617 0.15609,0.494111 0.04488,1.0707155 -0.110147,0.576968 -0.330459,1.0093544 -0.438114,0.9781178 -0.109457,-0.031531 -0.07034,-0.4987399 0.03588,-1.055279 0.107652,-0.5561331 0.243995,-1.0046486 0.357394,-0.9935543 z"
       id="path12197"
       style="isolation:isolate;fill:#ffffff;stroke:none" />
    <path
       class="cls-3"
       d="m 40.208614,8.0042235 c 0.09977,-0.053083 0.40369,0.3225606 0.678892,0.8389054 0.2752,0.5166739 0.417287,0.9784893 0.317194,1.0315934 C 41.104958,9.9278052 40.801018,9.5521617 40.525816,9.0354507 40.250979,8.5191006 40.108895,8.0573196 40.208614,8.0042235 Z"
       id="path12199"
       style="isolation:isolate;fill:#ffffff;stroke:none" />
    <path
       class="cls-3"
       d="m 37.390167,8.7476726 c 0.103352,-0.045917 0.3448,0.2702023 0.539672,0.7065194 0.194867,0.4363145 0.268735,0.827036 0.165406,0.873335 -0.103352,0.04592 -0.344802,-0.270168 -0.539322,-0.7064558 C 37.361056,9.1850567 37.287176,8.7939635 37.390172,8.7476726 Z"
       id="path12201"
       style="isolation:isolate;fill:#ffffff;stroke:none" />
    <path
       class="cls-3"
       d="m 34.703018,7.7914515 c 0.111951,0.01619 0.135971,0.4940766 0.05385,1.067443 C 34.674718,9.4322609 34.517146,9.884041 34.4052,9.8682462 34.293248,9.8520562 34.269202,9.3741697 34.35135,8.8007608 34.43352,8.2273546 34.591019,7.7752852 34.703011,7.7914515 Z"
       id="path12203"
       style="isolation:isolate;fill:#ffffff;stroke:none" />
    <path
       class="cls-3"
       d="m 35.910045,11.486859 c 0.112323,-0.01486 0.266234,0.457481 0.344099,1.054549 0.07787,0.597065 0.05027,1.092941 -0.06208,1.107637 -0.111951,0.01433 -0.265868,-0.457481 -0.343724,-1.054549 -0.07785,-0.597065 -0.05027,-1.092941 0.06166,-1.107637 z"
       id="path12205"
       style="isolation:isolate;fill:#ffffff;stroke:none" />
    <path
       class="cls-3"
       d="m 33.136429,12.029732 c 0.113756,0.008 0.171511,0.500207 0.179075,1.100139 0.0064,0.600298 -0.04016,1.093645 -0.153914,1.104038 -0.11166,0.01062 -0.249038,-0.480447 -0.255514,-1.099367 -0.008,-0.618269 0.118401,-1.112709 0.230353,-1.10481 z"
       id="path12207"
       style="isolation:isolate;fill:#ffffff;stroke:none" />
    <path
       class="cls-3"
       d="m 29.884128,12.115485 c 0.108395,0.03841 0.02229,0.550071 -0.101893,1.165805 -0.12631,0.61536 -0.247233,1.119836 -0.362054,1.113052 -0.110863,-0.0056 -0.171856,-0.546836 -0.03912,-1.194863 0.130955,-0.647677 0.398658,-1.122387 0.503037,-1.083994 z"
       id="path12209"
       style="isolation:isolate;fill:#ffffff;stroke:none" />
    <path
       class="cls-3"
       d="m 27.602826,10.495439 c 0.108369,0.03161 0.06455,0.512406 -0.09762,1.073945 -0.162885,0.561901 -0.382483,0.99175 -0.491205,0.960189 -0.108714,-0.03153 -0.06495,-0.512045 0.09762,-1.073943 0.16254,-0.5619 0.382484,-0.991757 0.491205,-0.960191 z"
       id="path12211"
       style="isolation:isolate;fill:#ffffff;stroke:none" />
    <path
       class="cls-3"
       d="m 40.642431,12.980947 c -0.100433,0.05205 -0.349492,-0.231813 -0.556176,-0.633294 -0.206306,-0.401888 -0.292062,-0.769314 -0.191576,-0.820971 0.100486,-0.05168 0.349455,0.231733 0.555767,0.63366 0.206678,0.401529 0.292436,0.768956 0.191974,0.820605 z"
       id="path12213"
       style="isolation:isolate;fill:#ffffff;stroke:none" />
    <path
       class="cls-3"
       d="m 43.879667,12.687789 c -0.02123,0.05056 -0.154312,0.05343 -0.349126,-0.01115 a 2.0771329,2.0771329 0 0 1 -1.150364,-1.048118 c -0.08254,-0.187648 -0.09186,-0.320398 -0.04347,-0.346262 0.10444,-0.05239 0.385025,0.313263 0.792648,0.679622 0.402217,0.371726 0.792607,0.616801 0.750281,0.725852 z"
       id="path12215"
       style="isolation:isolate;fill:#ffffff;stroke:none" />
    <path
       class="cls-3"
       d="m 35.305813,16.438456 c -0.100459,0.04847 -0.371028,-0.305694 -0.53284,-0.817003 -0.163256,-0.511308 -0.147464,-0.956593 -0.03734,-0.974885 0.112695,-0.01964 0.273438,0.369223 0.427721,0.850729 0.152162,0.48152 0.245773,0.892036 0.142447,0.941159 z"
       id="path12217"
       style="isolation:isolate;fill:#ffffff;stroke:none" />
    <path
       class="cls-3"
       d="m 39.403809,14.97273 c -0.103326,0.04629 -0.299963,-0.166495 -0.439181,-0.475782 -0.13921,-0.308987 -0.168644,-0.59706 -0.06566,-0.643725 0.103325,-0.04629 0.299596,0.166494 0.439183,0.475418 0.13921,0.309324 0.168644,0.597424 0.06566,0.644089 z"
       id="path12219"
       style="isolation:isolate;fill:#ffffff;stroke:none" />
    <path
       class="cls-3"
       d="m 30.429167,17.682118 c -0.111952,-0.01433 -0.152109,-0.426619 -0.08931,-0.920693 0.06277,-0.494076 0.204501,-0.88307 0.31683,-0.869067 0.111952,0.01433 0.152109,0.426261 0.08931,0.920722 -0.06277,0.494077 -0.204502,0.883421 -0.31683,0.869038 z"
       id="path12221"
       style="isolation:isolate;fill:#ffffff;stroke:none" />
    <path
       class="cls-3"
       d="m 27.060983,15.453204 c 0.109457,0.02829 0.104414,0.414049 -0.01115,0.861131 -0.115562,0.447454 -0.298199,0.787213 -0.407616,0.758886 -0.10943,-0.02829 -0.104413,-0.413686 0.01115,-0.861139 0.115561,-0.447454 0.2978,-0.786877 0.407581,-0.758878 z"
       id="path12223"
       style="isolation:isolate;fill:#ffffff;stroke:none" />
    <path
       class="cls-4"
       d="m 33.399797,-25.219742 c 0,0 -0.284901,5.326588 0.645163,5.156505 0.930394,-0.170077 4.430592,-5.104111 4.430592,-5.104111 0,0 -1.985638,-1.031214 -5.075755,-0.05239"
       id="path12225"
       style="isolation:isolate;fill:#fac4c9;stroke:none" />
    <path
       class="cls-3"
       d="m -20.95704,-9.969698 a 8.6371241,8.6371241 0 0 1 0.409842,-1.014655 c 0.129718,-0.275743 0.268277,-0.544519 0.410783,-0.811307 l 0.233159,-0.431177 0.08866,-0.160456 c 0.190315,-0.351436 0.398825,-0.787668 0.642727,-1.196092 a 2.7625064,2.7625064 0 0 1 0.925991,-0.993286 1.4702153,1.4702153 0 0 1 0.242399,-0.112296 2.1007534,2.1007534 0 0 1 0.864179,-0.08942 c 0.742853,-1.281465 2.315754,-1.563738 3.66168,-1.07523 l 0.122196,0.04206 a 5.1504355,5.1504355 0 0 1 0.817192,0.418712 3.3587082,3.3587082 0 0 1 1.203075,1.215286 c 0.354925,0.672031 0.288999,1.413022 0.13929,2.128909 a 0.19977448,0.19977448 0 0 1 0.150888,0.02935 c 0.761497,0.499371 0.278355,1.761419 0.08737,2.441561 a 13.422347,13.422347 0 0 1 -0.741483,1.98726 c 1.646835,-0.457602 3.4223629,-0.79314 4.8668749,-1.647593 a 1.560738,1.560738 0 0 1 -0.0021,-0.587341 0.73042542,0.73042542 0 0 1 1.015456,-0.529883 c 1.027836,0.339815 2.171389,2.004921 1.313472,3.005468 a 1.0082368,1.0082368 0 0 1 -1.469883,0.01539 1.3609636,1.3609636 0 0 1 -0.09719,-0.106113 13.213208,13.213208 0 0 1 -1.5818,0.676082 29.625929,29.625929 0 0 1 -3.6186869,1.3567737 c -0.557553,0.1630175 -1.122936,0.3121829 -1.687291,0.4544343 -0.124586,0.040794 -0.278826,0.091382 -0.439001,0.1438811 a 2.8374217,2.8374217 0 0 1 -1.049421,0.8070928 c -0.650838,0.2592831 -1.319309,0.1038831 -1.954656,-0.1608941 -0.359572,-0.1450303 -0.707126,-0.3234763 -1.032116,-0.4731885 -0.324991,-0.1497042 -0.72583,-0.3303982 -1.079311,-0.5068907 -1.534075,-0.7619056 -2.88252,-1.7291736 -2.672936,-3.7457656 a 5.194136,5.194136 0 0 1 0.23051,-1.080708 z m 14.7566699,0.123856 c -0.02017,-0.111644 -0.210287,-0.190589 -0.264326,-0.04473 a 0.17168118,0.17168118 0 0 0 0.01884,0.187645 0.12173757,0.12173757 0 0 0 0.11227,0.0519 0.15607381,0.15607381 0 0 0 0.141652,-0.09898 0.09676575,0.09676575 0 0 0 -0.01141,-0.09482 z m 0.752004,-0.161054 -0.0056,-0.01776 a 0.13734496,0.13734496 0 0 0 -0.1567,-0.04719 l -0.0207,0.007 a 0.13734496,0.13734496 0 0 0 -0.08161,0.13186 l 0.005,0.01481 a 0.10613018,0.10613018 0 0 0 0.11596,0.103244 c 0.0955,0.05084 0.229477,-0.09162 0.141121,-0.190785 z m 0.722171,0.860457 0.0082,-0.08484 a 0.11237315,0.11237315 0 0 0 -0.199937,-0.08887 c -0.168724,-0.0137 -0.205776,0.284239 0.0056,0.277406 l 0.03265,-0.01075 a 0.13110199,0.13110199 0 0 0 0.150516,-0.09203 z m -0.197654,0.830148 a 0.1435879,0.1435879 0 0 0 0.242933,-0.02044 v 0 a 0.12485905,0.12485905 0 0 0 0.04369,-0.04719 0.15919527,0.15919527 0 0 0 -0.181544,-0.213144 0.1435879,0.1435879 0 0 0 -0.162672,0.155145 0.19665299,0.19665299 0 0 0 0.05462,0.126621 z m 0.08952,0.844431 a 0.06867248,0.06867248 0 0 0 0.04079,-0.06593 0.09676575,0.09676575 0 0 0 -0.02495,-0.136343 v 0 a 0.12798051,0.12798051 0 0 0 -0.207633,0.06805 c -0.02628,0.130159 0.07312,0.182977 0.187886,0.13223 z m -0.603847,-1.621904 a 0.16231675,0.16231675 0 0 0 0.06131,-0.213902 0.17168118,0.17168118 0 0 0 -0.118773,-0.131882 0.40267041,0.40267041 0 0 0 -0.119383,-0.0134 c -0.128328,-4.64e-4 -0.168591,0.15709 -0.112775,0.247196 0.05582,0.09011 0.167875,0.181493 0.2857,0.110027 z m 0.01433,0.675255 a 0.11861609,0.11861609 0 0 0 -0.06277,-0.08127 c -0.03307,-0.100849 -0.198609,-0.154991 -0.240677,-0.03279 -0.04207,0.122189 -0.03482,0.2545 0.09722,0.296627 a 0.15919527,0.15919527 0 0 0 0.202246,-0.17469 z m -0.107758,0.81382 0.01486,-0.005 v 0 a 0.12173757,0.12173757 0 0 0 0.125222,-0.169148 l -0.0088,-0.02667 a 0.13110199,0.13110199 0 0 0 -0.09929,-0.08244 l -0.02362,0.0077 a 0.13422348,0.13422348 0 0 0 -0.151578,0.108793 l 0.0077,0.02362 a 0.12798051,0.12798051 0 0 0 0.128593,0.141811 z m -0.634953,-1.125552 v 0 a 0.13422348,0.13422348 0 0 0 0.130344,-0.203671 0.13110199,0.13110199 0 0 0 -0.223239,0.03048 l -0.01301,0.02065 v 0 a 0.12173757,0.12173757 0 0 0 0.09895,0.151522 z m -5.8632209,-4.539706 a 1.4983085,1.4983085 0 0 0 -0.633955,-0.932071 2.3754433,2.3754433 0 0 0 -0.207554,-0.142204 4.510533,4.510533 0 0 0 -1.467144,-0.527615 1.9290722,1.9290722 0 0 0 -1.056375,0.03413 0.93644281,0.93644281 0 0 0 -0.19699,0.110553 c 0.02362,-0.0077 0.02667,-0.0087 0,0 a 2.0039876,2.0039876 0 0 1 -0.195958,0.294155 c 0.420679,0.161045 0.81953,0.345678 1.146515,0.49145 0.326985,0.145765 0.773091,0.354322 1.147189,0.55364 a 15.335812,15.335812 0 0 1 1.327602,0.793428 1.2485904,1.2485904 0 0 0 0.129761,-0.676505 z m -0.671686,1.067626 c 0.399841,-0.01279 0.453213,-0.220798 0.126788,-0.475151 a 4.5979342,4.5979342 0 0 0 -0.855364,-0.485039 l -0.202856,-0.09776 -0.864595,-0.41303 a 7.6663456,7.6663456 0 0 0 -1.321022,-0.532798 c -0.133081,-0.03525 -0.320629,-0.03617 -0.363726,0.09293 a 0.28093284,0.28093284 0 0 0 0.08068,0.246198 c 0.05007,0.06243 0.102057,0.120941 0.157043,0.178467 a 3.8706304,3.8706304 0 0 0 0.834607,0.682362 q 0.201742,0.124402 0.405503,0.234997 a 6.9421626,6.9421626 0 0 0 0.906326,0.359941 3.199513,3.199513 0 0 0 1.088734,0.204895 z m -0.853989,7.0663559 a 4.3045155,4.3045155 0 0 1 0.934704,-2.3297979 c 0.04374,-0.05701 -0.04178,-0.127558 -0.08552,-0.07052 a 4.3950382,4.3950382 0 0 0 -0.98431,2.3789 c -0.01619,0.080872 0.116942,0.1062188 0.12724,0.017517 z m -0.404858,-0.3633255 a 3.8737517,3.8737517 0 0 1 0.303777,-1.3182324 0.07507849,0.07507849 0 0 0 -0.135892,-0.06383 3.4960532,3.4960532 0 0 0 -0.363304,1.3771605 c -0.01141,0.1055553 0.177137,0.1094834 0.184596,0.00211 z m -6.748023,-1.9273454 a 12.838631,12.838631 0 0 0 1.787577,1.385054 10.066761,10.066761 0 0 0 2.127884,1.0403014 8.081502,8.081502 0 0 0 1.431478,0.3586356 0.03562451,0.03562451 0 0 0 0.013,-0.070016 7.7537467,7.7537467 0 0 1 -1.52168,-0.4538503 10.887709,10.887709 0 0 1 -2.237216,-1.2836837 c -0.494716,-0.356866 -0.975471,-0.741308 -1.457145,-1.138588 a 0.11100449,0.11100449 0 0 0 -0.154795,0.159143 z"
       id="path46"
       style="isolation:isolate;fill:#cccccc;stroke:none" />
    <g
       id="g4896"
       transform="matrix(0.36677239,0,0,0.57844979,-92.47395,-248.94337)"
       style="isolation:isolate;fill:#44c7f3;fill-opacity:1;stroke:none;stroke-opacity:1">
      <path
         class="cls-7"
         d="m 242.63125,416.95267 0.43406,-0.49325 c 0.0789,0.0658 7.69483,6.83984 8.26044,16.97466 0,0.14469 0,0.28938 0,0.43407 v 0 h -0.65768 c -0.34199,-10.06247 -7.97106,-16.84971 -8.03682,-16.91548 z"
         id="path132"
         style="fill:#44c7f3;fill-opacity:1;stroke:none;stroke-width:0.657678;stroke-opacity:1" />
      <path
         class="cls-7"
         d="m 243.98606,426.79811 h -0.65768 c -0.21045,-5.26142 -4.73528,-8.79973 -4.78131,-8.83261 l 0.40118,-0.51957 c 0.1973,0.171 4.82078,3.78823 5.03781,9.35218 z"
         id="path134"
         style="fill:#44c7f3;fill-opacity:1;stroke:none;stroke-width:0.657678;stroke-opacity:1" />
      <path
         class="cls-7"
         d="m 246.39974,429.99442 c 0.13153,0.42092 3.28839,10.39789 1.67708,15.68562 l -0.65768,-0.19073 c 1.53239,-5.09042 -1.64419,-15.19235 -1.67708,-15.29758 z"
         id="path136"
         style="fill:#44c7f3;fill-opacity:1;stroke:none;stroke-width:0.657678;stroke-opacity:1" />
    </g>
    <path
       class="cls-4"
       d="m -13.985176,-16.093141 0.73911,0.316507 c 0.518773,0.922353 0.101229,1.671301 -1.495328,0.751132 l -0.437551,-1.191086"
       id="path11965-7"
       sodipodi:nodetypes="cccc"
       style="isolation:isolate;fill:#c87137;fill-opacity:1;stroke:none" />
    <path
       class="cls-4"
       d="m 27.77788,-10.6214 -0.565839,-0.481878 c -0.347496,-0.231242 -0.671392,-0.496134 -0.966986,-0.790844 -0.149694,-0.144396 -0.273573,-0.313326 -0.366325,-0.499476 -0.124426,-0.226664 -0.719621,-0.848687 -0.777319,-1.100736 -0.01168,-0.227561 -0.494116,0.206065 -0.624881,0.392666 -0.08602,0.525859 0.737186,0.925442 1.054871,1.353234 0.403291,0.650887 -0.735211,0.256536 -1.152861,0.120216 -0.518538,0.01754 -0.20997,0.325026 -0.720502,0.417371 2.331155,0.891004 1.312455,1.341113 -0.528992,0.750268 2.146867,1.183685 0.3033,0.59305 -0.619973,0.736687 1.63665,0.950625 2.379638,0.628127 -0.06988,0.576547 -0.04809,0.125589 -0.333445,0.134093 0.78465,0.356571 1.144962,0.227834 4.346997,0.340158 4.346997,0.340158 l 0.183719,-2.208515"
       id="path12125"
       sodipodi:nodetypes="ccccccccccccscc"
       style="display:inline;fill:#fac4c9;stroke:none" />
    <path
       class="cls-5"
       d="m 21.278456,13.393396 -3.359271,-1.025633 0.463522,-1.429953 0.694791,-2.1456513 2.29496,-7.0675004 0.174775,-0.5371321 0.775634,-2.3888714 3.736713,-11.5072648 0.154259,-0.472995 0.778633,-2.411779 4.073864,-12.548007 a 0.60124335,0.60124335 0 0 0 -1.143227,-0.370896 l -3.452022,10.629756 -0.03448,0.107268 -0.241367,0.743463 -0.2544,0.800352 -0.03973,0.121117 -0.68621,2.112638 -0.08241,0.26518 -4.644668,14.30400479 -2.17263,6.69360091 -0.997347,3.0729683 -0.546133,1.68274 -3.518617,-1.072414 c 0,0 -4.2822438,9.261788 0.841034,11.248825 5.606705,2.171625 7.184487,-8.803753 7.184487,-8.803753 z"
       id="path171"
       style="display:inline;fill:#2f2e41;stroke:none" />
    <path
       class="cls-4"
       d="m 27.77788,-10.6214 -0.565839,-0.481878 c -0.948686,-0.467166 -1.663646,0.136249 -2.833501,-0.52494 l -0.720502,0.417371 c -0.367323,1.029374 -0.528992,0.750268 -0.528992,0.750268 -0.956494,1.220917 -2.487748,1.934789 4.441814,2.009963 l 0.183719,-2.208515"
       id="path12125-5"
       sodipodi:nodetypes="ccccccc"
       style="display:inline;fill:#fac4c9;stroke:none" />
  </g>
</svg>
