<svg xmlns="http://www.w3.org/2000/svg" xmlns:xlink="http://www.w3.org/1999/xlink" width="500" zoomAndPan="magnify" viewBox="0 0 375 374.999991" height="500" preserveAspectRatio="xMidYMid meet" version="1.0"><defs><clipPath id="ce17e1c67d"><path d="M 195 61.125 L 337.5 61.125 L 337.5 177 L 195 177 Z M 195 61.125 " clip-rule="nonzero"/></clipPath><clipPath id="ce73d0f759"><path d="M 37.5 72 L 162 72 L 162 198 L 37.5 198 Z M 37.5 72 " clip-rule="nonzero"/></clipPath><clipPath id="a4aa96ba90"><path d="M 92 264 L 267 264 L 267 313.875 L 92 313.875 Z M 92 264 " clip-rule="nonzero"/></clipPath></defs><rect x="-37.5" width="450" fill="#ffffff" y="-37.499999" height="449.999989" fill-opacity="1"/><rect x="-37.5" width="450" fill="#ffffff" y="-37.499999" height="449.999989" fill-opacity="1"/><rect x="-37.5" width="450" fill="#d9d9d9" y="-37.499999" height="449.999989" fill-opacity="1"/><g clip-path="url(#ce17e1c67d)"><path fill="#469951" d="M 285.328125 68.234375 L 337.496094 61.921875 L 314.863281 109.347656 C 237.105469 272.226562 106.148438 89.933594 285.328125 68.234375 Z M 285.328125 68.234375 " fill-opacity="1" fill-rule="evenodd"/></g><g clip-path="url(#ce73d0f759)"><path fill="#469951" d="M 51.125 120.933594 L 37.496094 72.304688 L 85.855469 86.863281 C 251.949219 136.894531 97.957031 287.957031 51.125 120.933594 Z M 51.125 120.933594 " fill-opacity="1" fill-rule="evenodd"/></g><path fill="#469951" d="M 172.679688 258.480469 C 166.617188 226.628906 157.835938 207.65625 138.933594 182.945312 L 148.1875 175.878906 C 168.828125 202.867188 177.964844 223.40625 184.433594 258.109375 C 180.558594 257.347656 176.488281 257.472656 172.679688 258.480469 Z M 172.679688 258.480469 " fill-opacity="1" fill-rule="nonzero"/><path fill="#469951" d="M 163.109375 217.527344 C 173.164062 194.953125 188.941406 174.222656 205.714844 156.226562 L 214.234375 164.15625 C 198.4375 181.109375 183.199219 201.003906 173.730469 222.265625 Z M 163.109375 217.527344 " fill-opacity="1" fill-rule="nonzero"/><g clip-path="url(#a4aa96ba90)"><path fill="#469951" d="M 114.367188 295.488281 C 114.09375 283.242188 126.09375 274.246094 137.773438 277.933594 C 142.089844 266.40625 156.492188 262.597656 165.941406 270.257812 C 172.21875 262.292969 186.511719 262.292969 192.789062 270.257812 C 202.238281 262.597656 216.640625 266.40625 220.957031 277.933594 C 232.636719 274.246094 244.636719 283.242188 244.363281 295.488281 C 255.507812 295.734375 261.628906 307.136719 266.152344 313.074219 L 92.574219 313.074219 C 97.097656 307.136719 103.222656 295.734375 114.367188 295.488281 Z M 114.367188 295.488281 " fill-opacity="1" fill-rule="evenodd"/></g></svg>