<svg xmlns="http://www.w3.org/2000/svg" xmlns:xlink="http://www.w3.org/1999/xlink" width="500" zoomAndPan="magnify" viewBox="0 0 375 374.999991" height="500" preserveAspectRatio="xMidYMid meet" version="1.0"><path fill="#f5b7b0" d="M 183.011719 124.847656 C 183.011719 124.847656 207.207031 127.734375 200.75 142.46875 C 194.296875 157.207031 177.851562 188.078125 167.34375 185.03125 C 156.839844 181.984375 132.53125 155.699219 132.53125 155.699219 L 140.695312 145.628906 C 140.695312 145.628906 163.59375 164.550781 166.855469 162.699219 C 171.152344 160.257812 183.011719 124.847656 183.011719 124.847656 Z M 183.011719 124.847656 " fill-opacity="1" fill-rule="nonzero"/><path fill="#f5b7b0" d="M 142.816406 151.722656 L 142.246094 148.433594 C 141.707031 146.636719 141.347656 144.800781 141.171875 142.933594 C 141.066406 142 141.125 141.074219 141.339844 140.160156 C 141.558594 139.015625 141.933594 137.921875 142.457031 136.878906 C 142.597656 136.695312 142.667969 136.492188 142.671875 136.261719 C 142.675781 136.03125 142.613281 135.824219 142.484375 135.632812 C 142.355469 135.441406 142.183594 135.308594 141.96875 135.230469 C 141.753906 135.148438 141.535156 135.140625 141.3125 135.199219 C 140.410156 135.550781 138.765625 137.988281 138.289062 141.390625 C 137.816406 144.792969 135.015625 140.171875 133.964844 138.503906 C 132.914062 136.835938 129.417969 131.832031 128.648438 131.75 C 127.523438 131.628906 127.183594 132.8125 128.273438 134.453125 C 129.375 136.113281 132.28125 141.242188 131.375 141.753906 C 130.480469 142.261719 125.242188 133.699219 125.242188 133.699219 C 125.242188 133.699219 124.421875 131.691406 123.351562 132.25 C 121.425781 133.253906 127.664062 141.941406 128.277344 142.753906 C 128.703125 143.320312 127.738281 143.910156 127.3125 143.28125 C 126.875 142.632812 122.289062 134.621094 120.316406 135.628906 C 118.804688 136.398438 125.378906 142.824219 125.40625 145.011719 C 125.4375 147.203125 120.917969 139.632812 119.503906 140.429688 C 118.976562 140.726562 118.625 141.019531 121.847656 144.992188 C 125.148438 149.058594 135.882812 158.625 135.882812 158.625 L 142.84375 151.523438 " fill-opacity="1" fill-rule="nonzero"/><path fill="#f5d2a4" d="M 179.328125 133.132812 L 185.589844 162.417969 L 170.742188 150.28125 Z M 179.328125 133.132812 " fill-opacity="1" fill-rule="nonzero"/><path stroke-linecap="butt" transform="matrix(0.391006, -0.0914719, 0.0914719, 0.391006, -189.168192, 115.557787)" fill-opacity="1" fill="#79bda2" fill-rule="evenodd" stroke-linejoin="miter" d="M 759.835706 252.445506 C 755.974253 250.033626 751.073153 247.838083 747.635674 245.065835 C 744.186507 242.300844 741.581464 238.874163 739.183023 235.845475 C 736.77511 232.814571 735.737315 229.26501 733.226083 226.889274 C 730.724323 224.515753 726.445807 223.075264 724.149087 221.618864 C 721.859623 220.174151 721.021138 218.719222 719.455842 218.193192 C 717.890546 217.667162 716.374182 218.810964 714.757313 218.462684 C 713.14266 218.104932 711.836401 216.300805 709.749589 216.082353 C 707.662776 215.8639 703.852997 216.391257 702.238653 217.142498 C 700.614837 217.891522 701.091828 219.781377 700.049012 220.566418 C 699.003981 221.360931 696.808936 221.007266 695.97511 221.881159 C 695.139069 222.764524 694.044426 225.265757 695.03941 225.838194 C 696.024923 226.408414 699.939628 225.176313 701.916601 225.309128 C 703.903046 225.444159 705.046802 226.490971 706.934097 226.622786 C 708.809704 226.761858 711.00483 225.876749 713.190793 226.098416 C 715.386228 226.322299 717.841055 226.846631 720.080508 227.949965 C 722.322177 229.043827 725.095361 231.111205 726.655317 232.684964 C 728.222529 234.270411 727.221733 236.11426 729.471485 237.429799 C 731.711764 238.743121 738.138482 239.627193 740.120977 240.590492 C 742.101256 241.563263 742.721497 243.097009 741.371494 243.230751 C 740.012019 243.362278 735.421413 242.65799 731.973599 241.381864 C 728.535258 240.107955 724.827916 237.122722 720.710813 235.59012 C 716.584238 234.055302 710.637934 232.95394 707.246997 232.160663 C 703.853845 231.376859 702.446792 231.32742 700.353505 230.837715 C 698.267473 230.359699 696.334553 229.398007 694.718511 229.259716 C 693.109725 229.133113 691.95785 229.572952 690.655643 230.057545 C 689.343963 230.539921 688.037587 231.682896 686.895793 232.165055 C 685.744528 232.644997 684.599818 232.157418 683.764776 232.951104 C 682.931949 233.735319 680.948555 235.978686 681.880497 236.906014 C 682.824126 237.826085 686.635431 238.487927 689.393704 238.483831 C 692.161448 238.48195 695.497932 236.774911 698.475275 236.901986 C 701.450402 237.038534 703.697374 238.792994 707.241641 239.272481 C 710.79538 239.754185 716.063176 239.058413 719.76486 239.804503 C 723.466543 240.550592 726.180508 242.913815 729.470687 243.753452 C 732.751394 244.590873 734.630642 242.792685 739.484164 244.807263 C 744.33547 246.831313 753.364026 253.419096 758.582956 255.878808 C 763.801886 258.338519 770.584586 260.135062 770.797744 259.565531 C 771.010902 258.996001 763.704415 254.869074 759.835706 252.445506 Z M 759.835706 252.445506 " stroke="#000000" stroke-width="0.05" stroke-opacity="1" stroke-miterlimit="4"/><path stroke-linecap="butt" transform="matrix(0.391006, -0.0914719, 0.0914719, 0.391006, -189.168192, 115.557787)" fill-opacity="1" fill="#5a8c78" fill-rule="evenodd" stroke-linejoin="miter" d="M 781.388136 230.993297 C 783.729073 229.143272 787.852586 226.12181 792.34416 223.875782 C 796.833517 221.639225 804.604053 218.871533 808.309768 217.550581 C 812.013268 216.2391 811.386298 215.972543 814.564548 215.966794 C 817.750054 215.972732 824.121113 216.454163 827.401038 217.551148 C 830.690436 218.65035 833.614563 220.713078 834.291463 222.559788 C 834.968363 224.406497 833.510619 227.392231 831.476342 228.614678 C 829.43985 229.846596 825.108808 229.143089 822.07694 229.932353 C 819.054545 230.723834 815.98371 232.832687 813.323026 233.359127 C 810.662343 233.885567 808.204128 233.760054 806.110623 233.100464 C 804.026589 232.44309 802.100834 230.553979 800.799879 229.410451 C 799.489453 228.264707 800.219387 226.29755 798.293206 226.24655 C 796.364809 226.205021 791.87923 227.912977 789.21277 229.147375 C 786.548527 230.372301 784.155236 232.65964 782.320042 233.628952 C 780.496535 234.591007 778.413247 235.382397 778.255612 234.945909 C 778.100193 234.499949 779.037728 232.841106 781.388136 230.993297 Z M 781.388136 230.993297 " stroke="#000000" stroke-width="0.05" stroke-opacity="1" stroke-miterlimit="4"/><path stroke-linecap="butt" transform="matrix(0.391006, -0.0914719, 0.0914719, 0.391006, -189.168192, 115.557787)" fill-opacity="1" fill="#efefef" fill-rule="evenodd" stroke-linejoin="miter" d="M 790.934247 225.504039 C 790.790779 225.690262 799.771983 224.024996 805.721755 223.488766 C 811.662056 222.95032 824.325046 222.585944 826.594994 222.277794 C 828.872197 221.981332 822.685146 221.652841 819.353738 221.672712 C 816.02233 221.692583 811.32519 221.742613 806.589818 222.383116 C 801.854445 223.023618 791.077715 225.317816 790.934247 225.504039 Z M 790.934247 225.504039 " stroke="#000000" stroke-width="0.05" stroke-opacity="1" stroke-miterlimit="4"/><path stroke-linecap="butt" transform="matrix(0.391006, -0.0914719, 0.0914719, 0.391006, -189.168192, 115.557787)" fill-opacity="1" fill="#79bda2" fill-rule="evenodd" stroke-linejoin="miter" d="M 789.372463 252.891641 C 791.40674 251.669194 795.060254 246.130127 798.449564 242.617217 C 801.838874 239.104308 805.54922 233.578535 809.727268 231.818616 C 813.895843 230.05648 820.68124 232.652875 823.492257 232.081682 C 826.312746 231.512705 824.015027 230.145984 826.621785 228.398106 C 829.230759 226.640757 837.216669 223.294063 839.146101 221.537585 C 841.075533 219.781108 838.261164 219.042791 838.210063 217.851985 C 838.156746 216.670651 837.213725 215.790682 838.840102 214.432851 C 840.457007 213.072803 845.822864 211.530818 847.913708 209.682228 C 850.002336 207.84311 850.211053 205.114643 851.361792 203.355822 C 852.510315 201.606474 854.441491 201.209081 854.804237 199.146034 C 855.166984 197.082988 855.377907 192.167168 853.547743 190.979758 C 851.717579 189.792349 846.300585 191.851855 843.842199 192.026009 C 841.393284 192.202379 840.974559 190.575912 838.835311 192.033548 C 836.698278 193.481712 832.679746 198.445864 831.008317 200.722251 C 829.334672 203.00811 830.225121 204.155507 828.816815 205.734189 C 827.40851 207.312871 823.600647 208.899645 822.554054 210.213287 C 821.50746 211.526928 823.38581 212.935406 822.551766 213.639413 C 821.717722 214.343421 819.056902 213.461201 817.542535 214.425645 C 816.03764 215.392305 815.097499 217.190402 813.475036 219.428293 C 811.862046 221.6684 810.292292 225.047522 807.845648 227.861854 C 805.389532 230.673971 801.375032 233.571081 798.759502 236.295952 C 796.155659 239.013568 794.278936 241.911276 792.194785 244.201004 C 790.103377 246.479044 786.713322 248.54319 786.242298 250.001471 C 785.77349 251.45028 787.335971 254.123559 789.372463 252.891641 Z M 789.372463 252.891641 " stroke="#000000" stroke-width="0.05" stroke-opacity="1" stroke-miterlimit="4"/><path stroke-linecap="butt" transform="matrix(0.391006, -0.0914719, 0.0914719, 0.391006, -189.168192, 115.557787)" fill-opacity="1" fill="#93c47d" fill-rule="evenodd" stroke-linejoin="miter" d="M 741.340065 210.055708 C 743.377712 214.498532 752.399067 223.722062 756.365647 231.663173 C 760.339484 239.615972 763.154108 249.235697 765.13794 257.751952 C 767.121772 266.268206 767.745875 276.454429 768.264205 282.779644 C 768.792008 289.107075 764.717989 293.368918 768.269085 295.698203 C 771.812926 298.0158 785.591946 297.492917 789.554056 296.74145 C 793.513951 295.999454 791.851284 295.120966 792.056259 291.212771 C 792.261234 287.304577 790.907724 280.364389 790.802851 273.296715 C 790.700193 266.21957 789.290723 259.945628 791.43145 248.787787 C 793.56996 237.639418 801.448378 214.766573 803.64056 206.378084 C 805.832742 197.989594 805.1012 200.006326 804.582325 198.466322 C 804.061235 196.93579 801.392114 195.662008 800.513408 197.154789 C 799.625231 198.645354 800.256216 202.908957 799.260515 207.4214 C 798.27207 211.945531 796.704978 217.832833 794.566013 224.28567 C 792.424831 230.747978 788.460852 241.329433 786.42229 246.157364 C 784.3932 250.98751 783.028623 256.692413 782.351368 253.267158 C 781.674114 249.841903 780.269337 233.768606 782.358763 225.605834 C 784.438717 217.440847 791.802678 209.492994 794.873413 204.267153 C 797.953619 199.043528 800.926085 196.671895 800.823274 194.250179 C 800.718247 191.837935 796.130029 190.824507 794.247683 189.774744 C 792.377026 188.717726 791.583375 186.174355 789.554793 187.927618 C 787.514523 189.688137 784.333523 196.66645 782.041126 200.316089 C 779.741474 203.95404 776.409923 210.807221 775.776432 209.799858 C 775.154629 208.78524 777.348018 198.299077 778.284717 194.252364 C 779.2192 190.215123 781.883307 187.581537 781.418394 185.554644 C 780.941793 183.535006 778.069376 182.703188 775.465215 182.133931 C 772.851582 181.562458 768.734833 181.608402 765.76501 182.132453 C 762.785715 182.654288 757.88279 180.338435 757.6229 185.292751 C 757.360794 190.256539 765.136339 210.058036 764.194591 211.905708 C 763.252842 213.753381 755.068463 198.731493 751.986311 196.362059 C 748.904159 193.992625 745.151257 195.002831 745.725056 197.674594 C 746.29664 200.355828 752.718646 206.683494 755.429715 212.43274 C 758.140783 218.181986 763.876856 233.420348 762.00598 232.193443 C 760.125633 230.964323 747.610791 208.745389 744.157102 205.060234 C 740.715099 201.367824 739.309674 205.624571 741.340065 210.055708 Z M 741.340065 210.055708 " stroke="#000000" stroke-width="0.05" stroke-opacity="1" stroke-miterlimit="4"/><path stroke-linecap="butt" transform="matrix(0.391006, -0.0914719, 0.0914719, 0.391006, -189.168192, 115.557787)" fill-opacity="1" fill="#efefef" fill-rule="evenodd" stroke-linejoin="miter" d="M 750.520058 200.964226 C 750.176854 200.893927 755.550878 208.754695 758.181303 214.165387 C 760.813945 219.566606 765.164806 231.373938 766.328205 233.404391 C 767.491604 235.434844 766.186153 229.484945 765.17117 226.350322 C 764.16566 223.217914 762.687853 218.816147 760.252215 214.579924 C 757.804888 210.350958 750.872734 201.036741 750.520058 200.964226 Z M 750.520058 200.964226 " stroke="#000000" stroke-width="0.05" stroke-opacity="1" stroke-miterlimit="4"/><path stroke-linecap="butt" transform="matrix(0.391006, -0.0914719, 0.0914719, 0.391006, -189.168192, 115.557787)" fill-opacity="1" fill="#efefef" fill-rule="evenodd" stroke-linejoin="miter" d="M 778.270246 252.861884 C 778.544541 253.055926 778.09224 243.928902 778.72305 238.072322 C 779.356076 232.206271 781.971086 219.960552 782.052283 217.691775 C 782.135695 215.413527 780.032137 221.24526 779.214659 224.44072 C 778.385492 227.643436 777.271697 232.148232 777.121819 236.888518 C 776.962469 241.626588 778.00764 252.660586 778.270246 252.861884 Z M 778.270246 252.861884 " stroke="#000000" stroke-width="0.05" stroke-opacity="1" stroke-miterlimit="4"/><path stroke-linecap="butt" transform="matrix(0.391006, -0.0914719, 0.0914719, 0.391006, -189.168192, 115.557787)" fill-opacity="1" fill="#efefef" fill-rule="evenodd" stroke-linejoin="miter" d="M 777.6759 231.573444 C 777.868381 231.818278 780.533503 223.030925 783.129426 217.614084 C 785.715877 212.195027 792.377428 201.185675 793.217983 199.044592 C 794.06801 196.905724 790.085758 201.928315 788.210642 204.776448 C 786.337743 207.61511 783.748939 211.634978 781.985625 216.097719 C 780.231782 220.562676 777.485636 231.319138 777.6759 231.573444 Z M 777.6759 231.573444 " stroke="#000000" stroke-width="0.05" stroke-opacity="1" stroke-miterlimit="4"/><path stroke-linecap="butt" transform="matrix(0.391006, -0.0914719, 0.0914719, 0.391006, -189.168192, 115.557787)" fill-opacity="1" fill="#efefef" fill-rule="evenodd" stroke-linejoin="miter" d="M 802.991802 201.720702 C 803.015132 201.236637 800.924271 209.149316 799.742302 213.048738 C 798.550861 216.945944 797.320706 220.624298 795.881043 225.112802 C 794.429693 229.608563 792.834748 235.059768 791.069263 240.001534 C 789.303779 244.943299 786.176786 251.904276 785.295392 254.775086 C 784.404526 257.643679 784.521632 259.918885 785.743014 257.217525 C 786.964397 254.516166 790.314274 245.449432 792.621472 238.5764 C 794.940358 231.696111 797.892979 222.106862 799.621266 215.957562 C 801.347337 209.817734 802.977944 202.206984 802.991802 201.720702 Z M 802.991802 201.720702 " stroke="#000000" stroke-width="0.05" stroke-opacity="1" stroke-miterlimit="4"/><path stroke-linecap="butt" transform="matrix(0.391006, -0.0914719, 0.0914719, 0.391006, -189.168192, 115.557787)" fill-opacity="1" fill="#5a8c78" fill-rule="evenodd" stroke-linejoin="miter" d="M 795.875409 169.066078 C 793.210466 169.311794 794.514863 172.703938 794.304884 174.882645 C 794.094904 177.061353 795.514526 179.960958 794.625004 182.140538 C 793.735483 184.320117 790.080387 186.022551 788.979442 187.952865 C 787.885752 189.894866 787.213085 192.215088 788.050571 193.759696 C 788.885841 195.313776 792.064791 196.287237 793.988239 197.246712 C 795.918943 198.217876 797.809543 199.189648 799.627537 199.574989 C 801.455004 199.962546 802.963986 199.576277 804.950821 199.581526 C 806.930401 199.575087 809.380968 199.818695 811.524567 199.580889 C 813.660909 199.331395 816.583201 199.095932 817.788428 198.1291 C 818.986399 197.15058 818.411256 195.167831 818.729731 193.763775 C 819.038734 192.357504 819.252628 191.058856 819.670862 189.698119 C 820.08688 188.346853 821.020029 187.176507 821.232488 185.627767 C 821.444946 184.079026 821.547738 182.144981 820.914983 180.408501 C 820.284443 178.66255 819.241527 176.330603 817.475451 175.168177 C 815.699902 174.003534 813.877958 174.446462 810.26895 173.432335 C 806.671629 172.410951 798.528664 168.827619 795.875409 169.066078 Z M 795.875409 169.066078 " stroke="#000000" stroke-width="0.05" stroke-opacity="1" stroke-miterlimit="4"/><path stroke-linecap="butt" transform="matrix(0.391006, -0.0914719, 0.0914719, 0.391006, -189.168192, 115.557787)" fill-opacity="1" fill="#5a8a63" fill-rule="evenodd" stroke-linejoin="miter" d="M 792.51059 169.527695 C 794.219181 170.16717 794.912201 171.98768 795.402097 173.950486 C 795.882521 175.911076 795.769785 179.211462 795.39596 181.321868 C 795.022134 183.432274 794.008606 184.903505 793.156926 186.622395 C 792.295775 188.339068 791.383268 190.403377 790.266938 191.630773 C 789.141137 192.855952 788.239182 193.594024 786.418845 193.987376 C 784.598508 194.380728 781.289304 194.775433 779.356602 193.983627 C 777.431157 193.203509 776.471617 190.301642 774.865563 189.266564 C 773.266766 188.243173 771.228748 188.285892 769.734796 187.796533 C 768.240843 187.307174 766.684457 187.212809 765.892378 186.328191 C 765.090827 185.441357 764.283754 183.72404 764.921058 182.494474 C 765.567835 181.267124 768.179288 180.139741 769.732932 178.9647 C 771.288792 177.780186 772.520173 176.35992 774.22841 175.42085 C 775.93443 174.491251 778.179395 174.247188 780.004119 173.365339 C 781.81937 172.481275 783.050924 170.761341 785.129391 170.118678 C 787.21733 169.47823 790.799783 168.897692 792.51059 169.527695 Z M 792.51059 169.527695 " stroke="#000000" stroke-width="0.05" stroke-opacity="1" stroke-miterlimit="4"/><path stroke-linecap="butt" transform="matrix(0.391006, -0.0914719, 0.0914719, 0.391006, -189.168192, 115.557787)" fill-opacity="1" fill="#4b754d" fill-rule="evenodd" stroke-linejoin="miter" d="M 764.670758 184.503904 C 763.357507 183.327528 760.964542 180.65977 760.089812 177.438075 C 759.215083 174.216379 758.765535 168.536642 759.426813 165.154787 C 760.085876 161.782404 761.888432 158.817393 764.020206 157.178183 C 766.15198 155.538974 769.429381 155.536439 772.224714 155.331217 C 775.00836 155.133251 778.506048 155.342095 780.740416 155.954716 C 782.984255 156.569553 783.80554 159.379135 785.657117 159.023063 C 787.520382 158.659734 789.820207 154.722115 791.894414 153.798728 C 793.968622 152.875341 796.815183 153.091704 798.128561 153.498859 C 799.441939 153.906014 798.235804 155.901631 799.760778 156.258384 C 801.295225 156.617353 805.724409 155.235873 807.306823 155.646024 C 808.900925 156.04892 808.129062 157.896374 809.276423 158.714253 C 810.423784 159.532132 812.887865 159.888794 814.200462 160.555513 C 815.513059 161.222232 816.48988 161.530672 817.144749 162.70288 C 817.799617 163.875087 817.474368 166.076779 818.132496 167.619389 C 818.783369 169.150312 820.592155 170.172876 821.083441 171.916221 C 821.576942 173.650094 821.413587 176.568999 821.084641 178.060517 C 820.757911 179.542564 820.644993 180.964737 819.111374 180.815757 C 817.57997 180.657305 814.088483 177.902394 811.901258 177.130966 C 809.711816 176.369011 808.240113 176.724039 805.993059 176.208353 C 803.753262 175.704355 800.258261 174.117482 798.45239 174.064656 C 796.655992 174.014046 796.208825 176.267139 795.174563 175.905301 C 794.13083 175.541246 794.24174 172.12055 792.221231 171.917608 C 790.202937 171.705195 786.10249 173.603152 783.034779 174.673749 C 779.974323 175.756033 775.770031 177.03028 773.860106 178.36174 C 771.940709 179.690983 772.543659 181.640276 771.556285 182.658073 C 770.576167 183.687558 769.109114 184.193528 767.957631 184.503585 C 766.806147 184.813642 765.984009 185.680279 764.670758 184.503904 Z M 764.670758 184.503904 " stroke="#000000" stroke-width="0.05" stroke-opacity="1" stroke-miterlimit="4"/><path stroke-linecap="butt" transform="matrix(0.391006, -0.0914719, 0.0914719, 0.391006, -189.168192, 115.557787)" fill-opacity="1" fill="#5a8c78" fill-rule="evenodd" stroke-linejoin="miter" d="M 792.537604 157.156072 C 791.009669 155.360028 780.021886 152.919416 776.901548 151.610008 C 773.781209 150.300599 775.648688 149.748441 773.841772 149.315741 C 772.025385 148.880824 768.064183 148.603507 766.024385 148.995469 C 763.986803 149.37796 763.307052 151.386827 761.606807 151.608468 C 759.908778 151.820636 756.562149 148.660041 755.82009 150.294682 C 755.087504 151.93154 756.623414 159.074243 757.18509 161.413491 C 757.754021 163.764427 757.128577 164.687069 759.223599 164.357977 C 761.318621 164.028885 766.41921 159.777422 769.762478 159.450627 C 773.105746 159.123833 776.562169 161.900512 779.273736 162.394993 C 781.996991 162.882218 783.876248 163.261911 786.078631 162.388489 C 788.290485 161.517284 794.072796 158.963804 792.537604 157.156072 Z M 792.537604 157.156072 " stroke="#000000" stroke-width="0.05" stroke-opacity="1" stroke-miterlimit="4"/><path stroke-linecap="butt" transform="matrix(0.391006, -0.0914719, 0.0914719, 0.391006, -189.168192, 115.557787)" fill-opacity="1" fill="#5a8c78" fill-rule="evenodd" stroke-linejoin="miter" d="M 766.718693 186.981052 C 767.45178 190.509281 767.240067 193.506784 766.403853 194.689817 C 765.565423 195.882322 763.744812 193.458354 761.711489 194.121569 C 759.67595 194.794255 756.386354 197.880929 754.199483 198.688047 C 752.000924 199.502422 750.33635 199.742398 748.566887 198.97879 C 746.787951 198.212965 745.594656 195.456219 743.559325 194.12091 C 741.521779 192.795073 738.753117 191.647858 736.350472 190.98588 C 733.950043 190.31443 731.078371 190.931375 729.147885 190.130097 C 727.219615 189.319347 725.394837 187.553762 724.769165 186.128638 C 724.143493 184.703513 726.489252 182.704762 725.398286 181.560408 C 724.305105 180.425525 720.076083 180.225417 718.190523 179.274805 C 716.314435 178.326409 715.379623 176.898896 714.125029 175.856126 C 712.870435 174.813356 711.775337 172.619056 710.676861 173.001455 C 709.587857 173.386071 709.166681 177.663278 707.548078 178.133795 C 705.936731 178.615999 701.965139 177.18737 700.977537 175.857401 C 699.989936 174.527431 701.702686 172.330643 701.605741 170.140075 C 701.497109 167.956764 699.676063 165.193025 700.353552 162.724076 C 701.033257 160.245656 704.054253 157.495756 705.675109 155.30744 C 707.286492 153.116909 707.969412 150.539337 710.059738 149.589751 C 712.140593 148.637948 714.383869 149.682234 718.19087 149.593799 C 722.000086 149.495891 728.321169 147.927616 732.910604 149.02125 C 737.500039 150.114884 740.889677 152.066729 745.746424 156.160037 C 750.593698 160.251129 758.530345 168.43167 762.022667 173.574452 C 765.517205 178.707761 765.992862 183.464511 766.718693 186.981052 Z M 766.718693 186.981052 " stroke="#000000" stroke-width="0.05" stroke-opacity="1" stroke-miterlimit="4"/><path stroke-linecap="butt" transform="matrix(0.391006, -0.0914719, 0.0914719, 0.391006, -189.168192, 115.557787)" fill-opacity="1" fill="#5a8a63" fill-rule="evenodd" stroke-linejoin="miter" d="M 742.010422 156.884478 C 744.195513 156.426603 744.390854 154.993741 745.840007 154.863214 C 747.291377 154.723215 749.687729 156.992154 750.690832 156.07794 C 751.696151 155.154253 750.086083 150.122128 751.8558 149.347295 C 753.623302 148.581933 759.058868 151.012402 761.297449 151.436194 C 763.543286 151.871673 764.554989 150.280132 765.327997 151.929539 C 766.09879 153.588418 765.956431 158.979831 765.907692 161.366093 C 765.868425 163.754571 765.885806 164.278132 765.073449 166.255977 C 764.25162 168.231606 762.520581 170.93362 761.010174 173.247676 C 759.509239 175.563949 758.975962 179.295437 756.034382 180.125804 C 753.100058 180.967859 747.010323 178.344392 743.382462 178.26494 C 739.764073 178.187703 736.457049 180.281264 734.295632 179.655738 C 732.134216 179.030213 731.640796 176.057565 730.435123 174.506746 C 729.219978 172.95371 727.870929 172.52822 727.042651 170.346389 C 726.204901 168.162342 724.471136 163.530861 725.415881 161.414152 C 726.362843 159.287972 729.942645 158.377135 732.715556 157.627193 C 735.478995 156.875035 739.823115 157.351825 742.010422 156.884478 Z M 742.010422 156.884478 " stroke="#000000" stroke-width="0.05" stroke-opacity="1" stroke-miterlimit="4"/><path stroke-linecap="butt" transform="matrix(0.391006, -0.0914719, 0.0914719, 0.391006, -189.168192, 115.557787)" fill-opacity="1" fill="#4b754d" fill-rule="evenodd" stroke-linejoin="miter" d="M 702.857938 169.314104 C 701.970323 170.37522 699.506925 177.061857 698.831788 180.929993 C 698.163907 184.809817 697.660836 190.376591 698.828885 192.557986 C 700.008621 194.732125 703.20142 193.041424 705.891872 194.010498 C 708.582325 194.979573 712.445649 197.981316 714.964345 198.360745 C 717.490298 198.751862 719.279694 197.252343 721.014131 196.329391 C 722.755823 195.418128 724.491431 194.10583 725.385475 192.846414 C 726.27952 191.586998 725.500645 189.706442 726.397341 188.777324 C 727.291821 187.857679 730.593252 188.350289 730.761829 187.330758 C 730.930407 186.311227 729.084859 184.420899 727.404375 182.67908 C 725.72389 180.937261 722.801716 178.225622 720.671667 176.868155 C 718.551089 175.512903 715.861945 175.563142 714.631334 174.545963 C 713.391252 173.526568 714.349465 171.05336 713.278533 170.762865 C 712.217073 170.474586 709.135676 171.731796 708.236373 172.800167 C 707.348759 173.861282 708.57412 176.865297 707.906093 177.15858 C 707.228595 177.449648 705.045319 175.849953 704.211484 174.545965 C 703.370392 173.23029 703.75724 168.245733 702.857938 169.314104 Z M 702.857938 169.314104 " stroke="#000000" stroke-width="0.05" stroke-opacity="1" stroke-miterlimit="4"/><path stroke-linecap="butt" transform="matrix(0.391006, -0.0914719, 0.0914719, 0.391006, -189.168192, 115.557787)" fill-opacity="1" fill="#5a8a63" fill-rule="evenodd" stroke-linejoin="miter" d="M 729.193973 187.413535 C 731.402439 186.941148 734.548441 184.809918 737.150995 185.42875 C 739.746293 186.035895 742.338259 189.689292 744.773625 191.108195 C 747.20899 192.527098 750.797138 192.477377 751.739814 193.95668 C 752.675234 195.424296 751.460154 198.696576 750.412343 199.93001 C 749.364533 201.163445 746.542473 200.07367 745.434008 201.352856 C 744.325543 202.632043 745.051029 206.747919 743.782713 207.60009 C 742.504925 208.450045 739.693898 206.843357 737.814641 206.463665 C 735.935383 206.083972 734.10996 205.986611 732.504952 205.331407 C 730.902159 204.666732 729.910907 203.096142 728.195668 202.485083 C 726.482645 201.864552 723.724855 202.677972 722.231856 201.629381 C 720.736641 200.590262 718.967649 198.458097 719.240499 196.224166 C 719.520605 194.001922 722.226068 189.739608 723.888507 188.270329 C 725.541474 186.798835 726.985506 187.885922 729.193973 187.413535 Z M 729.193973 187.413535 " stroke="#000000" stroke-width="0.05" stroke-opacity="1" stroke-miterlimit="4"/><path stroke-linecap="butt" transform="matrix(0.391006, -0.0914719, 0.0914719, 0.391006, -189.168192, 115.557787)" fill-opacity="0.7059" fill="#b28600" fill-rule="evenodd" stroke-linejoin="miter" d="M 851.570688 192.085717 C 851.62969 191.619987 847.253442 196.490465 844.963952 198.931961 C 842.674461 201.373457 840.451492 204.000349 837.835962 206.725221 C 835.218215 209.459565 832.578528 212.458513 829.264121 215.309607 C 825.949714 218.160701 821.29721 221.308166 817.95456 223.852945 C 814.609694 226.407196 808.2218 231.036844 809.197141 230.625639 C 810.172482 230.214433 819.465849 224.396311 823.785447 221.390752 C 828.093358 218.392448 831.602071 215.906499 835.077454 212.623521 C 838.543366 209.338327 841.879405 205.113637 844.628277 201.690669 C 847.377149 198.267702 851.523375 192.544191 851.570688 192.085717 Z M 851.570688 192.085717 " stroke="#000000" stroke-width="0.05" stroke-opacity="1" stroke-miterlimit="4"/><path stroke-linecap="butt" transform="matrix(0.391006, -0.0914719, 0.0914719, 0.391006, -189.168192, 115.557787)" fill-opacity="0.7059" fill="#b28600" fill-rule="evenodd" stroke-linejoin="miter" d="M 698.439809 224.455805 C 697.77843 224.720673 705.824913 222.567002 709.103703 222.345006 C 712.382494 222.123011 714.602258 221.77315 718.098648 223.140561 C 721.597254 224.498501 726.658077 227.89028 730.095947 230.532746 C 733.543288 233.177428 738.260136 238.936354 738.758714 238.983059 C 739.257291 239.029765 735.592604 233.257234 733.091843 230.794035 C 730.591082 228.330836 727.099423 225.875592 723.765835 224.196607 C 720.430031 222.527095 717.325766 220.721933 713.100395 220.762446 C 708.884496 220.805175 699.11066 224.193153 698.439809 224.455805 Z M 698.439809 224.455805 " stroke="#000000" stroke-width="0.05" stroke-opacity="1" stroke-miterlimit="4"/><path fill="#e1d2f4" d="M 212.910156 267 L 209.292969 221.480469 L 241.96875 198.914062 L 236.710938 262.585938 L 262.679688 333.828125 L 246.96875 341.402344 Z M 212.910156 267 " fill-opacity="1" fill-rule="nonzero"/><path fill="#e1d2f4" d="M 205.96875 184.695312 L 204.980469 193.183594 L 161.75 257.644531 L 145.757812 337.144531 L 158.097656 343.378906 L 187.84375 270.574219 L 239.582031 210.835938 C 239.582031 210.835938 256.207031 189.320312 236.277344 170.417969 Z M 205.96875 184.695312 " fill-opacity="1" fill-rule="nonzero"/><path fill="#ffafa6" d="M 195.085938 103.234375 L 173.527344 85.226562 L 166.671875 105.453125 L 187.445312 122.574219 Z M 195.085938 103.234375 " fill-opacity="1" fill-rule="nonzero"/><path fill="#ffafa6" d="M 147.730469 71.402344 C 147.730469 71.402344 140.066406 76.027344 143.714844 86.523438 C 145.101562 91.03125 145.792969 95.644531 145.785156 100.359375 C 145.785156 100.640625 148.71875 100.253906 148.816406 100.523438 C 149.335938 101.933594 149.882812 103.421875 150.457031 104.976562 C 150.578125 105.316406 150.714844 105.648438 150.875 105.96875 C 151.03125 106.292969 151.207031 106.605469 151.398438 106.910156 C 151.589844 107.214844 151.800781 107.503906 152.023438 107.785156 C 152.25 108.066406 152.492188 108.332031 152.746094 108.585938 C 153 108.835938 153.269531 109.074219 153.550781 109.296875 C 153.832031 109.519531 154.128906 109.726562 154.433594 109.917969 C 154.738281 110.105469 155.054688 110.277344 155.378906 110.433594 C 155.703125 110.585938 156.035156 110.722656 156.375 110.839844 C 156.714844 110.957031 157.058594 111.054688 157.410156 111.132812 C 157.761719 111.210938 158.113281 111.269531 158.472656 111.308594 C 158.828125 111.34375 159.1875 111.363281 159.546875 111.363281 C 159.90625 111.359375 160.265625 111.335938 160.621094 111.296875 C 160.976562 111.253906 161.332031 111.191406 161.679688 111.109375 C 162.03125 111.027344 162.375 110.925781 162.714844 110.804688 C 163.050781 110.683594 163.382812 110.546875 163.707031 110.386719 C 164.027344 110.230469 164.339844 110.054688 164.644531 109.863281 C 167.75 107.757812 169.722656 103.972656 172.058594 100.035156 L 176.308594 94.574219 C 182.46875 77.785156 164.445312 61.988281 148.855469 70.742188 C 148.480469 70.953125 148.105469 71.171875 147.730469 71.402344 Z M 147.730469 71.402344 " fill-opacity="1" fill-rule="nonzero"/><path fill="#241352" d="M 165.996094 85.574219 C 165.996094 85.574219 161.425781 66.460938 143.039062 78.316406 C 143.039062 78.316406 146.734375 60.617188 168.597656 61.050781 C 169.898438 61.144531 171.175781 61.375 172.425781 61.75 C 173.679688 62.125 174.875 62.628906 176.011719 63.269531 C 177.152344 63.90625 178.207031 64.660156 179.183594 65.53125 C 180.15625 66.398438 181.023438 67.367188 181.78125 68.425781 C 185.730469 74.886719 184.058594 79.144531 182.21875 92.484375 C 182.21875 92.484375 174.847656 97.738281 169.789062 90.675781 C 168.667969 89.109375 165.996094 85.574219 165.996094 85.574219 Z M 165.996094 85.574219 " fill-opacity="1" fill-rule="nonzero"/><path fill="#241352" d="M 168.035156 74.5 L 165.996094 85.574219 L 158.277344 82.222656 C 157.882812 82.050781 157.527344 81.816406 157.207031 81.527344 C 156.890625 81.234375 156.628906 80.898438 156.421875 80.523438 C 156.214844 80.144531 156.074219 79.742188 156 79.320312 C 155.925781 78.894531 155.917969 78.46875 155.984375 78.042969 C 156.339844 75.589844 156.160156 72.402344 152.980469 72.027344 C 147.730469 71.402344 159.398438 66.40625 159.398438 66.40625 L 169.554688 65.292969 Z M 168.035156 74.5 " fill-opacity="1" fill-rule="nonzero"/><path fill="#241352" d="M 149.585938 102.617188 C 169.945312 95.851562 159.085938 80.835938 159.085938 80.835938 L 161.699219 81.398438 L 163.054688 83.148438 C 163.164062 83.847656 164.179688 81.378906 164.300781 82.019531 L 164.621094 84.875 L 165.523438 92.453125 C 166.199219 96.601562 173.449219 98.121094 173.449219 98.121094 L 173.617188 99.84375 C 174.195312 105.78125 170.375 109.84375 164.601562 111.335938 C 158.183594 112.992188 151.613281 110.589844 149.875 104.195312 Z M 149.585938 102.617188 " fill-opacity="1" fill-rule="nonzero"/><path fill="#241352" d="M 178.164062 64.613281 C 177.765625 64.742188 177.359375 64.824219 176.941406 64.871094 C 176.527344 64.914062 176.109375 64.914062 175.695312 64.875 C 175.277344 64.835938 174.871094 64.753906 174.472656 64.632812 C 174.070312 64.511719 173.6875 64.351562 173.320312 64.152344 C 172.953125 63.953125 172.609375 63.71875 172.289062 63.449219 C 171.96875 63.183594 171.679688 62.886719 171.417969 62.558594 C 171.15625 62.230469 170.933594 61.882812 170.742188 61.511719 C 170.550781 61.136719 170.398438 60.75 170.289062 60.347656 C 170.175781 59.945312 170.105469 59.535156 170.074219 59.121094 C 170.042969 58.703125 170.058594 58.289062 170.109375 57.875 C 170.164062 57.457031 170.257812 57.054688 170.394531 56.660156 C 170.527344 56.261719 170.703125 55.886719 170.914062 55.523438 C 171.125 55.164062 171.371094 54.828125 171.648438 54.515625 C 171.925781 54.207031 172.234375 53.925781 172.570312 53.675781 C 172.90625 53.425781 173.261719 53.214844 173.640625 53.035156 C 174.019531 52.859375 174.410156 52.71875 174.816406 52.621094 C 175.222656 52.523438 175.632812 52.464844 176.050781 52.449219 C 176.46875 52.433594 176.882812 52.460938 177.296875 52.527344 C 177.707031 52.59375 178.109375 52.703125 178.5 52.851562 C 178.890625 53 179.261719 53.183594 179.617188 53.40625 C 179.96875 53.632812 180.296875 53.886719 180.597656 54.175781 C 180.902344 54.464844 181.171875 54.78125 181.410156 55.125 C 181.648438 55.46875 181.847656 55.832031 182.011719 56.214844 C 182.175781 56.601562 182.300781 56.996094 182.386719 57.40625 C 182.484375 57.78125 182.542969 58.164062 182.566406 58.550781 C 182.589844 58.9375 182.574219 59.320312 182.519531 59.707031 C 182.464844 60.089844 182.375 60.464844 182.25 60.832031 C 182.121094 61.199219 181.960938 61.546875 181.761719 61.882812 C 181.566406 62.214844 181.339844 62.527344 181.082031 62.820312 C 180.824219 63.109375 180.542969 63.371094 180.234375 63.605469 C 179.925781 63.839844 179.597656 64.042969 179.25 64.210938 C 178.898438 64.382812 178.539062 64.515625 178.164062 64.613281 Z M 178.164062 64.613281 " fill-opacity="1" fill-rule="nonzero"/><path fill="#fac480" d="M 193.105469 101.523438 C 193.105469 101.523438 214.578125 104.441406 224.648438 131.574219 L 247.894531 182.511719 L 201.535156 194.015625 C 201.535156 194.015625 188.164062 170.015625 181.316406 151.597656 C 174.980469 134.566406 180.148438 114.9375 180.148438 114.9375 Z M 193.105469 101.523438 " fill-opacity="1" fill-rule="nonzero"/><path fill="#ffafa6" d="M 188.121094 119.175781 C 188.121094 119.175781 209.042969 109.363281 205.042969 124.949219 C 201.046875 140.535156 193.207031 182.414062 182.347656 181.097656 C 171.488281 179.777344 143.265625 157.753906 143.265625 157.753906 L 149.703125 146.496094 C 149.703125 146.496094 175.351562 161.484375 178.269531 159.132812 C 182.117188 156.03125 188.121094 119.175781 188.121094 119.175781 Z M 188.121094 119.175781 " fill-opacity="1" fill-rule="nonzero"/><path fill="#ffafa6" d="M 151.523438 151.339844 L 150.429688 148.191406 C 149.605469 146.503906 148.957031 144.75 148.484375 142.933594 C 148.230469 142.027344 148.136719 141.105469 148.203125 140.167969 C 148.234375 139.003906 148.425781 137.863281 148.777344 136.753906 C 149.203125 135.773438 148.214844 134.789062 147.378906 135.277344 C 146.542969 135.769531 145.308594 138.441406 145.390625 141.875 C 145.472656 145.308594 141.960938 141.199219 140.65625 139.722656 C 139.351562 138.246094 135.097656 133.867188 134.324219 133.910156 C 133.191406 133.972656 133.050781 135.195312 134.386719 136.640625 C 135.742188 138.101562 139.4375 142.695312 138.621094 143.347656 C 137.824219 143.988281 131.277344 136.386719 131.277344 136.386719 C 131.277344 136.386719 130.140625 134.535156 129.175781 135.257812 C 127.4375 136.558594 134.992188 144.128906 135.726562 144.832031 C 136.238281 145.320312 135.382812 146.0625 134.859375 145.507812 C 134.324219 144.9375 128.507812 137.769531 126.722656 139.082031 C 125.355469 140.085938 132.878906 145.367188 133.257812 147.523438 C 133.640625 149.679688 127.960938 142.9375 126.695312 143.953125 C 126.222656 144.328125 125.921875 144.675781 129.742188 148.078125 C 133.652344 151.558594 145.789062 159.269531 145.789062 159.269531 L 151.519531 151.140625 " fill-opacity="1" fill-rule="nonzero"/><path fill="#fac480" d="M 185.695312 115.839844 L 179.703125 147.203125 L 205.671875 155.042969 L 211.667969 114.273438 L 196.566406 104.890625 Z M 185.695312 115.839844 " fill-opacity="1" fill-rule="nonzero"/><path fill="#ffafa6" d="M 169.304688 82.324219 C 169.304688 82.84375 169.226562 83.34375 169.066406 83.824219 C 168.90625 84.304688 168.679688 84.730469 168.386719 85.097656 C 168.09375 85.464844 167.753906 85.746094 167.371094 85.945312 C 166.984375 86.144531 166.585938 86.242188 166.167969 86.242188 C 165.753906 86.242188 165.351562 86.144531 164.96875 85.945312 C 164.582031 85.746094 164.246094 85.464844 163.949219 85.097656 C 163.65625 84.730469 163.429688 84.304688 163.269531 83.824219 C 163.109375 83.34375 163.03125 82.84375 163.03125 82.324219 C 163.03125 81.804688 163.109375 81.304688 163.269531 80.824219 C 163.429688 80.34375 163.65625 79.921875 163.949219 79.554688 C 164.246094 79.1875 164.582031 78.902344 164.96875 78.703125 C 165.351562 78.503906 165.753906 78.40625 166.167969 78.40625 C 166.585938 78.40625 166.984375 78.503906 167.371094 78.703125 C 167.753906 78.902344 168.09375 79.1875 168.386719 79.554688 C 168.679688 79.921875 168.90625 80.34375 169.066406 80.824219 C 169.226562 81.304688 169.304688 81.804688 169.304688 82.324219 Z M 169.304688 82.324219 " fill-opacity="1" fill-rule="nonzero"/><path fill="#241352" d="M 156.621094 73.464844 C 156.484375 74.058594 156.238281 74.605469 155.878906 75.101562 C 155.519531 75.59375 155.078125 76 154.554688 76.3125 C 154.289062 76.457031 154.007812 76.554688 153.710938 76.605469 C 153.410156 76.65625 153.113281 76.652344 152.816406 76.601562 C 152.519531 76.546875 152.238281 76.445312 151.976562 76.296875 C 151.710938 76.144531 151.484375 75.957031 151.285156 75.726562 C 150.246094 77.21875 148.867188 78.265625 147.148438 78.863281 C 146.480469 79.125 145.789062 79.210938 145.078125 79.125 C 144.722656 79.078125 144.398438 78.953125 144.105469 78.746094 C 143.8125 78.542969 143.582031 78.28125 143.417969 77.964844 C 143.414062 78.230469 143.355469 78.488281 143.246094 78.730469 C 143.136719 78.972656 142.984375 79.183594 142.785156 79.359375 C 142.585938 79.539062 142.363281 79.671875 142.109375 79.757812 C 141.859375 79.839844 141.597656 79.871094 141.332031 79.851562 C 140.796875 79.773438 140.304688 79.578125 139.863281 79.265625 C 139.421875 78.949219 139.074219 78.554688 138.820312 78.074219 C 138.332031 77.121094 137.9375 76.132812 137.636719 75.105469 C 137.363281 74.539062 137.230469 73.941406 137.242188 73.308594 C 137.3125 72.929688 137.464844 72.589844 137.699219 72.285156 C 137.933594 71.980469 138.222656 71.742188 138.570312 71.578125 C 139.261719 71.257812 139.988281 71.054688 140.746094 70.96875 L 144.078125 70.40625 C 144.285156 70.394531 144.46875 70.320312 144.621094 70.183594 C 144.707031 70.070312 144.761719 69.949219 144.78125 69.808594 C 144.878906 68.96875 144.894531 68.125 144.828125 67.277344 C 144.757812 66.390625 145.023438 65.609375 145.617188 64.945312 C 146.066406 64.605469 146.574219 64.425781 147.140625 64.410156 C 147.703125 64.398438 148.21875 64.550781 148.6875 64.867188 C 149.589844 65.515625 150.320312 66.324219 150.875 67.292969 C 151.59375 66.339844 151.710938 65.042969 152.386719 64.058594 C 152.625 63.734375 152.910156 63.457031 153.242188 63.226562 C 153.574219 62.996094 153.933594 62.824219 154.324219 62.710938 C 154.710938 62.597656 155.105469 62.550781 155.507812 62.570312 C 155.914062 62.585938 156.300781 62.667969 156.679688 62.8125 C 157.050781 62.972656 157.390625 63.183594 157.703125 63.441406 C 158.011719 63.699219 158.28125 63.996094 158.507812 64.328125 C 158.734375 64.664062 158.90625 65.023438 159.03125 65.40625 C 159.15625 65.792969 159.222656 66.1875 159.230469 66.589844 " fill-opacity="1" fill-rule="nonzero"/><path fill="#241352" d="M 183.796875 74.585938 C 184.34375 74.859375 184.8125 75.230469 185.207031 75.699219 C 185.597656 76.164062 185.886719 76.691406 186.0625 77.273438 C 186.140625 77.566406 186.167969 77.863281 186.144531 78.164062 C 186.121094 78.46875 186.046875 78.757812 185.925781 79.03125 C 185.800781 79.308594 185.636719 79.554688 185.425781 79.773438 C 185.21875 79.992188 184.980469 80.171875 184.710938 80.308594 C 185.910156 81.675781 186.59375 83.265625 186.757812 85.078125 C 186.851562 85.789062 186.769531 86.480469 186.515625 87.152344 C 186.386719 87.484375 186.1875 87.769531 185.917969 88.003906 C 185.648438 88.238281 185.339844 88.398438 184.992188 88.484375 C 185.25 88.550781 185.484375 88.667969 185.691406 88.832031 C 185.902344 88.996094 186.066406 89.199219 186.195312 89.433594 C 186.320312 89.667969 186.394531 89.917969 186.414062 90.183594 C 186.4375 90.449219 186.40625 90.707031 186.320312 90.960938 C 186.117188 91.460938 185.808594 91.890625 185.398438 92.246094 C 184.988281 92.601562 184.519531 92.84375 183.992188 92.972656 C 182.949219 93.214844 181.894531 93.363281 180.828125 93.410156 C 180.210938 93.535156 179.597656 93.519531 178.988281 93.359375 C 178.636719 93.199219 178.34375 92.96875 178.101562 92.667969 C 177.863281 92.367188 177.703125 92.03125 177.625 91.652344 C 177.480469 90.902344 177.457031 90.148438 177.558594 89.394531 L 177.8125 86.023438 C 177.851562 85.820312 177.824219 85.625 177.726562 85.441406 C 177.640625 85.332031 177.53125 85.253906 177.402344 85.199219 C 176.609375 84.902344 175.792969 84.683594 174.957031 84.546875 C 174.078125 84.398438 173.386719 83.957031 172.882812 83.21875 C 172.660156 82.699219 172.609375 82.164062 172.730469 81.613281 C 172.851562 81.0625 173.121094 80.597656 173.542969 80.222656 C 174.390625 79.5 175.351562 78.984375 176.425781 78.679688 C 175.671875 77.75 174.445312 77.324219 173.648438 76.4375 C 173.390625 76.125 173.191406 75.78125 173.046875 75.402344 C 172.902344 75.027344 172.820312 74.636719 172.804688 74.230469 C 172.789062 73.828125 172.839844 73.433594 172.953125 73.046875 C 173.066406 72.65625 173.238281 72.300781 173.472656 71.96875 C 173.714844 71.648438 174 71.367188 174.324219 71.125 C 174.652344 70.886719 175.003906 70.699219 175.382812 70.558594 C 175.761719 70.417969 176.152344 70.335938 176.554688 70.308594 C 176.957031 70.28125 177.355469 70.3125 177.75 70.398438 " fill-opacity="1" fill-rule="nonzero"/><path fill="#241352" d="M 161.234375 111.359375 C 161.667969 111.875 161.921875 112.511719 162.320312 113.050781 C 162.5 113.339844 162.746094 113.5625 163.050781 113.71875 C 163.355469 113.871094 163.679688 113.933594 164.019531 113.90625 C 164.496094 113.761719 164.867188 113.484375 165.136719 113.070312 C 165.667969 112.382812 166.0625 111.625 166.320312 110.796875 C 166.894531 111.152344 167.480469 111.484375 168.078125 111.796875 C 168.484375 112.074219 168.929688 112.253906 169.414062 112.332031 C 169.898438 112.410156 170.375 112.382812 170.847656 112.246094 C 171.195312 112.054688 171.476562 111.789062 171.691406 111.453125 C 171.902344 111.117188 172.019531 110.75 172.046875 110.355469 C 172.082031 109.566406 171.988281 108.796875 171.757812 108.042969 C 172.167969 108.296875 172.613281 108.453125 173.089844 108.507812 C 173.570312 108.5625 174.039062 108.515625 174.496094 108.363281 C 175.042969 108.003906 175.425781 107.515625 175.644531 106.898438 C 175.867188 106.496094 175.972656 106.066406 175.960938 105.609375 C 175.765625 104.820312 175.316406 104.226562 174.613281 103.824219 C 175.519531 103.242188 176.238281 102.484375 176.769531 101.546875 C 176.894531 101.3125 176.976562 101.066406 177.011719 100.804688 C 177.046875 100.542969 177.039062 100.28125 176.984375 100.023438 C 176.929688 99.761719 176.832031 99.523438 176.691406 99.296875 C 176.550781 99.074219 176.375 98.878906 176.167969 98.71875 C 175.828125 98.535156 175.464844 98.417969 175.085938 98.367188 L 172.675781 97.886719 " fill-opacity="1" fill-rule="nonzero"/><path fill="#7caaff" d="M 140.785156 344.339844 L 144.050781 335.691406 L 161.121094 342.335938 L 155.476562 354.652344 L 154.449219 354.324219 C 149.902344 352.839844 131.429688 346.445312 128.804688 344.386719 C 125.875 342.085938 140.785156 344.339844 140.785156 344.339844 Z M 140.785156 344.339844 " fill-opacity="1" fill-rule="nonzero"/><path fill="#7caaff" d="M 251.011719 348.328125 L 246.511719 340.199219 L 264.105469 332.640625 L 268.714844 345.378906 L 267.753906 345.863281 C 263.46875 347.996094 245.816406 356.390625 242.5 356.761719 C 238.800781 357.175781 251.011719 348.328125 251.011719 348.328125 Z M 251.011719 348.328125 " fill-opacity="1" fill-rule="nonzero"/></svg>