<svg xmlns="http://www.w3.org/2000/svg" xmlns:xlink="http://www.w3.org/1999/xlink" width="500" zoomAndPan="magnify" viewBox="0 0 375 374.999991" height="500" preserveAspectRatio="xMidYMid meet" version="1.0"><defs><clipPath id="32895f349a"><path d="M 25 5 L 337.296875 5 L 337.296875 370 L 25 370 Z M 25 5 " clip-rule="nonzero"/></clipPath><clipPath id="7adfdd3421"><path d="M 24.746094 29 L 337.296875 29 L 337.296875 365 L 24.746094 365 Z M 24.746094 29 " clip-rule="nonzero"/></clipPath></defs><g clip-path="url(#32895f349a)"><path fill="#ffd4c4" d="M 27.464844 337.632812 L 27.617188 337.539062 L 27.578125 337.367188 C 27.410156 336.59375 27.597656 335.855469 28.144531 335.109375 L 28.984375 333.96875 C 32.230469 329.5625 40.664062 318.109375 42.332031 316.605469 L 43.492188 317.644531 L 43.648438 317.445312 L 43.460938 317.277344 C 46.433594 313.488281 49.890625 308.925781 51.515625 306.15625 C 52.21875 304.800781 52.898438 303.023438 53.636719 301.1875 C 53.703125 301.253906 53.765625 301.320312 53.828125 301.390625 L 53.929688 301.132812 L 53.824219 301.015625 C 50.589844 297.445312 49.277344 294.574219 49.933594 292.441406 C 50.449219 289.515625 56.683594 282.347656 59.960938 282.347656 C 60.351562 282.347656 60.691406 282.449219 60.964844 282.65625 L 61.207031 282.835938 L 61.339844 282.566406 C 62.820312 279.628906 63.441406 276.503906 64.046875 273.480469 C 64.523438 271.085938 65.015625 268.613281 65.933594 266.261719 C 67.207031 262.824219 69.542969 259.835938 72.015625 256.671875 C 73.6875 254.539062 75.414062 252.328125 76.773438 249.96875 C 77.550781 248.375 74.679688 238.574219 69.9375 222.707031 C 64.609375 204.902344 57.980469 182.738281 58.621094 175.453125 C 59.789062 162.226562 65.78125 149.164062 74.253906 141.375 C 74.519531 141.15625 74.777344 140.929688 75.03125 140.703125 L 75.460938 140.324219 L 75.183594 140.144531 C 72.15625 138.144531 70.546875 135.679688 70.414062 132.832031 C 70.414062 130.53125 71.609375 127.644531 72.878906 124.585938 C 74.015625 121.855469 75.1875 119.027344 75.453125 116.617188 C 76.132812 113.5625 76.199219 110.46875 76.265625 107.476562 C 76.308594 105.496094 76.355469 103.449219 76.574219 101.464844 C 76.851562 100.078125 77.277344 98.800781 77.6875 97.566406 C 78.105469 96.320312 78.535156 95.027344 78.816406 93.621094 C 79.101562 92.476562 78.96875 91.21875 78.828125 89.886719 C 78.6875 88.539062 78.539062 87.144531 78.816406 85.765625 C 79.355469 83.613281 80.183594 80.972656 81.148438 78.339844 L 81.1875 78.226562 L 81.128906 78.125 C 80.90625 77.75 80.683594 77.425781 80.460938 77.144531 C 78.65625 74.566406 76 72.898438 73.433594 71.285156 C 70.347656 69.34375 67.152344 67.335938 65.347656 63.730469 C 64.089844 60.582031 63.75 57.851562 64.246094 54.878906 C 64.585938 52.132812 65.335938 51.59375 66.570312 50.699219 C 67.292969 50.175781 68.191406 49.527344 69.238281 48.273438 C 71.742188 45.136719 69.761719 41.570312 67.664062 37.796875 C 65.882812 34.589844 64.042969 31.269531 64.800781 27.972656 C 65.570312 24.507812 66.777344 24.390625 68.972656 24.171875 C 69.828125 24.085938 70.800781 23.992188 71.933594 23.667969 C 75.703125 22.25 76.035156 20.804688 76.636719 18.183594 C 76.773438 17.59375 76.925781 16.9375 77.128906 16.222656 C 79.773438 8.875 87.5 5.027344 93.773438 5.027344 C 98.503906 5.027344 102.417969 7.101562 104.511719 10.710938 L 104.640625 10.941406 L 104.863281 10.796875 C 108.523438 8.457031 112.820312 6.824219 116.957031 6.203125 C 117.847656 6.070312 118.800781 6 119.792969 6 C 128.359375 6 138.882812 10.863281 140.957031 18.714844 C 141.464844 20.652344 141.199219 22.335938 140.183594 23.582031 L 140.089844 23.695312 L 140.144531 23.832031 C 140.160156 23.871094 140.171875 23.914062 140.183594 23.953125 C 140.25 23.882812 140.320312 23.8125 140.378906 23.742188 C 142.195312 28.449219 142.496094 34.671875 141.886719 40.570312 C 142.070312 40.796875 142.265625 41.050781 142.488281 41.386719 C 144.730469 43.628906 146.972656 44.191406 143.609375 46.996094 C 142.90625 47.699219 141.765625 47.960938 140.597656 48.058594 C 139.429688 52.8125 137.746094 56.605469 136.007812 58.011719 C 135.589844 58.351562 135.070312 58.632812 134.484375 58.863281 C 140.292969 63.835938 140.246094 74.320312 140.246094 81.21875 C 140.246094 82.308594 140.199219 83.550781 140.121094 84.90625 C 140.113281 85.03125 140.105469 85.171875 140.09375 85.300781 C 140.402344 85.730469 140.714844 86.160156 141.027344 86.589844 C 143.824219 90.441406 146.722656 94.425781 146.722656 99.734375 C 146.722656 104.898438 143.691406 108.386719 140.484375 112.082031 C 139.589844 113.113281 138.664062 114.175781 137.789062 115.308594 C 137.214844 116.226562 136.636719 117.300781 136.046875 118.53125 C 136.007812 118.796875 135.96875 119.074219 135.929688 119.339844 C 134.976562 126.070312 134.246094 131.464844 134.246094 133.421875 C 134.246094 138.171875 146.417969 188.65625 146.417969 188.65625 C 146.417969 188.65625 153.226562 199.824219 153.421875 200.996094 C 153.816406 203.371094 153.402344 205.195312 152.539062 207.402344 C 152.507812 207.480469 152.476562 207.558594 152.445312 207.636719 L 152.453125 207.640625 C 161.652344 211.007812 168.121094 214.207031 171.675781 217.15625 C 175 219.910156 180.425781 227.820312 188.75 242.046875 L 189.078125 242.613281 L 189.214844 241.972656 C 189.785156 239.234375 190.96875 236.414062 192.734375 233.585938 C 194.691406 230.40625 198.644531 225.066406 203.132812 225.066406 C 204.984375 225.066406 206.78125 225.988281 208.46875 227.796875 L 208.542969 227.878906 L 209.269531 227.878906 L 209.335938 227.726562 C 210.359375 225.328125 211.976562 224.113281 214.132812 224.113281 C 216.824219 224.113281 219.6875 226.019531 221.472656 227.804688 L 221.691406 228.023438 L 221.859375 227.765625 C 222.796875 226.363281 225.195312 225.457031 227.976562 225.457031 C 229.71875 225.457031 231.28125 225.832031 232.269531 226.488281 C 232.707031 226.78125 233.503906 227.945312 234.257812 229.382812 L 234.355469 229.566406 L 234.550781 229.507812 C 235.554688 229.21875 236.554688 229.070312 237.523438 229.070312 C 240.3125 229.070312 242.921875 230.277344 245.078125 232.554688 C 248.34375 236.007812 250.191406 241.496094 249.894531 246.875 L 249.859375 247.542969 L 250.328125 247.070312 L 250.632812 246.753906 C 252.886719 244.492188 257.269531 240.703125 261.320312 240.703125 C 263.742188 240.703125 265.746094 242.066406 267.277344 244.75 L 267.332031 244.847656 L 268.039062 245.011719 L 268.136719 244.878906 C 269.386719 243.1875 270.847656 242.332031 272.476562 242.332031 C 275.507812 242.332031 278.386719 245.253906 279.929688 247.757812 L 280.089844 248.019531 L 280.316406 247.808594 C 281.117188 247.066406 282.476562 246.65625 284.148438 246.65625 C 286.71875 246.65625 289.488281 247.628906 290.738281 248.972656 C 291.097656 249.359375 291.605469 250.671875 292.007812 252.246094 L 292.058594 252.445312 L 292.265625 252.433594 C 292.453125 252.425781 292.640625 252.421875 292.828125 252.421875 C 295.660156 252.421875 298.171875 253.492188 300.09375 255.515625 L 300.195312 255.621094 L 300.335938 255.585938 C 301.257812 255.355469 301.910156 254.949219 303.355469 253.140625 C 303.960938 252.234375 304.269531 251.214844 304.570312 250.230469 C 304.890625 249.1875 305.195312 248.199219 305.8125 247.582031 C 308.007812 245.382812 311.199219 244.070312 314.351562 244.070312 C 315.425781 244.070312 316.4375 244.226562 317.359375 244.535156 C 322.835938 246.359375 322.117188 251.402344 321.535156 255.457031 C 321.457031 256.167969 321.378906 256.800781 321.308594 257.367188 C 320.8125 261.328125 320.679688 262.394531 323.425781 266.789062 C 324.886719 269.714844 325.480469 272.910156 325.097656 275.777344 L 325.066406 276 L 325.28125 276.054688 C 335.570312 278.824219 336.953125 279.742188 337.066406 279.949219 C 336.554688 281.722656 329.097656 290.601562 320.25 299.386719 C 313.882812 305.707031 302.210938 316.515625 295.617188 317.886719 C 295.097656 317.992188 294.390625 318.046875 293.507812 318.046875 C 290.003906 318.046875 283.792969 317.210938 275.050781 315.558594 L 274.867188 316.019531 C 277.101562 317.460938 279.132812 319.320312 280.90625 321.546875 L 281.027344 321.703125 L 281.207031 321.621094 C 284.523438 320.105469 287.875 319.335938 291.167969 319.335938 C 291.664062 319.335938 292.164062 319.355469 292.664062 319.390625 C 298.527344 319.824219 304.046875 323.136719 308.207031 328.710938 C 312.972656 335.097656 314.996094 343.371094 313.484375 350.308594 C 310.847656 362.421875 302.113281 369.945312 290.6875 369.945312 C 286.449219 369.945312 282.097656 368.835938 278.109375 366.730469 C 275.886719 365.558594 273.851562 364.027344 272.0625 362.175781 L 271.949219 362.058594 L 271.792969 362.113281 C 269.300781 363.007812 266.644531 363.464844 263.902344 363.464844 C 259.664062 363.464844 255.320312 362.355469 251.335938 360.253906 C 250.539062 359.832031 249.703125 359.316406 248.789062 358.671875 L 248.632812 358.5625 L 248.484375 358.683594 C 246.191406 360.546875 243.90625 361.371094 242.394531 361.734375 C 241.265625 362.003906 240.09375 362.144531 238.90625 362.144531 C 234.464844 362.144531 230.195312 360.285156 227.199219 357.042969 C 225.519531 355.226562 224.363281 353.128906 223.761719 350.800781 L 223.648438 350.355469 L 223.335938 350.691406 C 220.613281 353.585938 217.636719 354.769531 215.621094 355.253906 C 214.488281 355.527344 213.316406 355.664062 212.132812 355.664062 C 207.753906 355.664062 203.378906 353.757812 200.425781 350.566406 C 196.722656 346.5625 195.59375 341.183594 197.328125 335.804688 C 197.503906 335.257812 197.929688 333.964844 197.929688 333.964844 C 200.890625 324.972656 204.570312 313.78125 196.847656 305.574219 C 195.035156 303.648438 192.285156 299.589844 188.433594 293.164062 L 188.390625 293.089844 L 188.3125 293.058594 C 186.871094 292.476562 185.945312 292.015625 185.5625 291.6875 C 183.96875 290.324219 181.429688 284.5625 178.914062 276.601562 C 176.953125 273.101562 174.910156 269.433594 172.804688 265.65625 L 172.757812 265.570312 C 161.324219 245.039062 147.09375 219.484375 141.46875 214.820312 C 140.929688 214.375 140.289062 213.917969 139.59375 213.457031 C 139.441406 213.453125 139.285156 213.453125 139.132812 213.449219 C 136.027344 213.363281 133.472656 212.898438 133.179688 212.214844 C 132.875 211.511719 132.71875 210.785156 132.929688 210.148438 C 132.957031 210.070312 132.996094 209.996094 133.035156 209.917969 C 132.382812 209.621094 131.71875 209.324219 131.03125 209.03125 L 130.617188 208.851562 L 130.683594 209.300781 C 132.476562 221.296875 133.933594 232.953125 132.03125 243.710938 C 130.871094 250.28125 127.882812 256.78125 122.894531 263.585938 L 122.835938 263.664062 L 122.847656 263.765625 C 123.539062 269.539062 123.539062 275.621094 123.539062 281.503906 L 123.539062 282.253906 C 123.535156 290.238281 123.53125 301.175781 127.347656 307.71875 C 127.796875 308.839844 128.335938 309.449219 128.8125 309.984375 C 129.550781 310.820312 130.136719 311.476562 130.136719 313.796875 C 130.136719 314.234375 130.148438 314.632812 130.160156 314.996094 C 130.226562 316.929688 130.253906 317.730469 128.066406 318.609375 C 127.753906 318.710938 127.144531 318.769531 126.257812 318.777344 L 125.960938 318.78125 L 126.003906 319.03125 C 126.085938 319.03125 126.175781 319.03125 126.257812 319.03125 C 126.851562 322.523438 127.5 326.015625 127.878906 329.507812 C 127.804688 329.507812 127.707031 329.503906 127.625 329.503906 C 127.625 329.511719 127.628906 329.523438 127.628906 329.535156 L 127.652344 329.757812 L 128.082031 329.761719 C 129.097656 330.941406 129.953125 332.304688 130.855469 333.746094 C 132.476562 336.339844 134.160156 339.023438 136.90625 340.671875 C 140.082031 342.4375 143.804688 342.738281 147.40625 343.03125 C 148.152344 343.09375 148.890625 343.152344 149.644531 343.226562 C 152.988281 343.226562 157.574219 343.226562 160.875 344.878906 C 163.4375 346.277344 165.394531 348.453125 165.738281 350.289062 C 165.898438 351.136719 165.71875 351.878906 165.199219 352.5 L 165.074219 352.652344 L 165.191406 352.8125 C 166.167969 354.132812 166.503906 355.414062 166.140625 356.425781 C 165.75 357.515625 164.585938 358.3125 162.6875 358.789062 C 155.671875 360.4375 129.539062 362.148438 124.480469 362.148438 C 123.558594 362.148438 122.359375 362.222656 121.085938 362.300781 C 119.507812 362.398438 117.714844 362.507812 116.007812 362.507812 C 111.066406 362.507812 108.71875 361.5625 108.613281 359.539062 C 108.566406 358.628906 108.640625 357.609375 108.832031 356.507812 L 108.851562 356.378906 L 108.761719 356.289062 C 108.363281 355.882812 108.15625 355.410156 108.125 354.84375 C 107.761719 347.808594 106.507812 343.023438 105.5 339.179688 C 104.914062 336.941406 104.40625 335.003906 104.1875 333.089844 C 104.046875 331.816406 105.324219 330.867188 107.988281 330.269531 L 108.21875 330.21875 L 108.183594 329.988281 C 108.183594 329.984375 108.183594 329.980469 108.183594 329.976562 C 108.101562 329.992188 108.011719 330.003906 107.933594 330.023438 C 107.832031 329.304688 107.710938 328.585938 107.539062 327.867188 C 106.871094 325.328125 106.476562 322.710938 106.074219 320.082031 C 106.160156 320.066406 106.238281 320.046875 106.324219 320.03125 L 106.285156 319.789062 L 106.03125 319.832031 C 105.082031 320 104.261719 320.082031 103.519531 320.082031 C 101.890625 320.082031 100.714844 319.667969 100.023438 318.855469 C 99.273438 317.964844 99.050781 316.550781 99.363281 314.664062 C 99.722656 313.226562 100.550781 312.277344 101.429688 311.277344 C 101.863281 310.78125 102.3125 310.265625 102.695312 309.691406 L 102.800781 309.535156 L 102.675781 309.386719 C 100.703125 307.085938 99.519531 304.019531 98.269531 300.777344 C 97.429688 298.597656 96.558594 296.34375 95.425781 294.300781 L 94.722656 292.738281 L 94.464844 292.980469 C 92.894531 294.464844 91.199219 296.117188 89.421875 298.164062 C 88.695312 299.144531 87.363281 300.199219 86.078125 301.21875 C 84.761719 302.261719 83.402344 303.335938 82.636719 304.371094 C 81.730469 305.585938 81.746094 307.144531 81.761719 308.515625 C 81.769531 309.492188 81.777344 310.417969 81.464844 311 C 80.75 311.964844 74.1875 315.152344 73.488281 315.15625 C 73.382812 315.167969 73.273438 315.171875 73.160156 315.171875 C 72.585938 315.171875 71.902344 315.027344 71.136719 314.738281 L 70.964844 314.671875 L 70.851562 314.816406 C 70.835938 314.835938 70.820312 314.855469 70.804688 314.871094 C 70.886719 314.90625 70.96875 314.945312 71.046875 314.972656 C 69.9375 316.390625 68.621094 317.671875 67.746094 318.75 C 65.101562 322.230469 62.492188 325.675781 59.910156 329.074219 C 59.382812 329.707031 58.925781 330.257812 58.507812 330.746094 L 58.320312 330.578125 C 58.320312 330.582031 58.320312 330.582031 58.316406 330.582031 L 58.15625 330.769531 L 59.527344 332 C 58.660156 336.40625 57.25 346.558594 61.972656 349.136719 C 62.476562 349.441406 63.324219 349.808594 64.304688 350.234375 C 67.726562 351.710938 73.449219 354.1875 72.429688 357.589844 C 72.34375 357.882812 72.167969 358.140625 71.894531 358.375 L 71.726562 358.519531 L 71.84375 358.703125 C 72.847656 360.25 72.996094 362.625 72.652344 363.183594 C 72.5625 363.324219 71.859375 363.789062 66.492188 363.789062 C 66.492188 363.789062 66.492188 363.789062 66.488281 363.789062 C 63.007812 363.789062 58.898438 363.601562 55.710938 363.4375 C 50.882812 363.191406 45.371094 362.542969 41.046875 357.90625 C 39.167969 355.890625 37.257812 354.402344 35.410156 352.960938 C 33.023438 351.097656 30.765625 349.335938 28.640625 346.558594 C 28.195312 345.976562 27.679688 345.472656 27.179688 344.988281 C 26.050781 343.886719 24.980469 342.847656 25.015625 341.117188 C 25.054688 339.464844 26.023438 338.527344 27.464844 337.632812 Z M 248.675781 318.46875 L 248.8125 318.53125 L 248.933594 318.441406 C 252.621094 315.652344 256.757812 313.824219 260.894531 313.152344 L 260.90625 312.65625 C 249.910156 310.25 237.070312 307.144531 224.753906 303.914062 L 224.109375 303.746094 L 224.480469 304.296875 C 225.761719 306.207031 226.765625 307.539062 227.542969 308.363281 C 230.546875 311.554688 232.449219 315.355469 233.199219 319.652344 L 233.257812 320.003906 L 233.570312 319.832031 C 235.890625 318.542969 238.796875 317.941406 242.71875 317.941406 C 244.25 317.941406 245.914062 318.035156 247.8125 318.21875 C 248.09375 318.246094 248.378906 318.328125 248.675781 318.46875 Z M 231.148438 353.386719 C 233.132812 355.535156 235.945312 356.765625 238.863281 356.765625 C 239.640625 356.765625 240.402344 356.675781 241.140625 356.5 C 242.261719 356.230469 243.332031 355.746094 244.332031 355.066406 L 244.566406 354.90625 L 244.382812 354.691406 C 239.457031 349.007812 237.300781 341.289062 238.613281 334.039062 C 239.253906 330.515625 240.949219 326.945312 243.519531 323.707031 L 243.832031 323.316406 L 243.332031 323.296875 C 242.945312 323.285156 242.574219 323.277344 242.214844 323.277344 C 237.796875 323.277344 235.339844 324.390625 233.460938 327.246094 L 233.425781 327.296875 L 233.421875 327.359375 C 232.898438 332.765625 231.191406 337.957031 229.816406 342.128906 C 229.613281 342.75 229.414062 343.351562 229.226562 343.941406 C 227.691406 348.691406 229.769531 351.898438 231.148438 353.386719 Z M 196.816406 296.46875 C 198.519531 299.101562 199.8125 300.871094 200.765625 301.882812 C 210.6875 312.425781 206.085938 326.402344 203.042969 335.652344 C 202.835938 336.269531 202.640625 336.875 202.449219 337.464844 C 200.914062 342.210938 202.996094 345.417969 204.375 346.90625 C 206.332031 349.023438 209.214844 350.285156 212.089844 350.285156 C 212.863281 350.285156 213.628906 350.195312 214.367188 350.019531 C 218.472656 349.035156 221.609375 345.402344 223.195312 339.796875 C 224.78125 334.203125 226.246094 329.28125 228.152344 325.71875 L 228.179688 325.667969 L 228.183594 325.613281 C 228.476562 320.058594 226.984375 315.625 223.621094 312.054688 C 222.011719 310.34375 219.683594 306.984375 216.5 301.78125 L 216.449219 301.695312 L 216.351562 301.667969 C 208.890625 299.636719 202.238281 297.707031 197.105469 296.089844 L 196.433594 295.882812 Z M 173.460938 255.773438 L 173.929688 255.613281 C 172.96875 249.050781 173.136719 244.796875 174.414062 243.316406 C 174.738281 242.941406 175.125 242.757812 175.597656 242.757812 C 175.738281 242.757812 175.886719 242.773438 176.042969 242.804688 L 183.910156 244.449219 L 183.621094 243.957031 C 176 230.976562 170.972656 223.5625 168.242188 221.300781 C 164.90625 218.535156 158.46875 215.453125 149.113281 212.144531 C 148.996094 212.191406 148.878906 212.242188 148.757812 212.285156 C 148.304688 212.453125 147.8125 212.601562 147.285156 212.730469 C 147.195312 212.753906 147.097656 212.769531 147.003906 212.792969 L 147.09375 212.894531 C 153.367188 220.132812 163.558594 238.046875 173.460938 255.773438 Z M 127.601562 183.128906 C 128.035156 188.285156 128.484375 193.613281 129.148438 198.84375 L 129.375 200.460938 L 129.535156 200.503906 C 130.660156 200.808594 131.890625 201.144531 133.195312 201.511719 L 133.574219 201.621094 C 133.464844 201.5 133.359375 201.382812 133.265625 201.269531 C 133.003906 200.960938 132.796875 200.679688 132.675781 200.433594 C 131.367188 196.421875 132.96875 196.375 133.179688 192.589844 C 133.253906 191.257812 130.820312 186.25 127.566406 179.757812 C 127.558594 179.746094 127.550781 179.730469 127.546875 179.714844 L 127.316406 179.78125 Z M 81.8125 61.652344 C 82.089844 62.292969 82.914062 63.441406 83.953125 64.898438 C 84.535156 65.714844 85.183594 66.625 85.847656 67.597656 L 86.050781 67.894531 L 86.261719 67.605469 C 88.214844 64.902344 90.753906 62.832031 94.015625 61.265625 C 94.304688 61.03125 94.605469 60.800781 94.917969 60.578125 C 97.519531 58.726562 100.804688 57.285156 102.121094 55.972656 C 103.960938 54.359375 105.515625 52.363281 106.671875 50.144531 C 106.75 50.203125 106.816406 50.25 106.878906 50.292969 C 106.886719 50.28125 106.890625 50.273438 106.898438 50.261719 L 106.996094 50.070312 L 106.820312 49.941406 C 105.328125 48.863281 100.238281 44.75 97.382812 37.105469 L 96.894531 37.210938 C 96.976562 38.574219 96.914062 39.695312 96.703125 40.644531 C 95.839844 44.484375 92.140625 46.929688 88.566406 49.292969 C 83.71875 52.5 79.136719 55.527344 81.8125 61.652344 Z M 81.8125 61.652344 " fill-opacity="1" fill-rule="nonzero"/></g><path fill="#d55933" d="M 107.160156 58.386719 C 106.902344 58.5 107.023438 58.960938 107.304688 58.925781 C 107.425781 58.910156 107.546875 58.886719 107.667969 58.871094 C 110.710938 58.441406 113.625 57.40625 116.671875 56.941406 C 117.949219 56.746094 119.1875 56.617188 120.414062 56.546875 C 123.734375 56.351562 126.933594 56.609375 130.351562 57.347656 C 130.738281 57.429688 130.875 56.898438 130.511719 56.761719 C 129.035156 56.210938 127.457031 55.835938 125.824219 55.601562 C 125.207031 54.828125 123.765625 54.316406 123.015625 53.792969 C 121.6875 52.863281 120.617188 51.789062 120.085938 50.21875 C 119.933594 49.769531 119.324219 49.960938 119.386719 50.414062 C 119.617188 52.007812 120.703125 53.164062 121.925781 54.128906 C 122.515625 54.597656 123.148438 55.003906 123.792969 55.390625 C 118.113281 55.007812 111.996094 56.261719 107.160156 58.386719 Z M 117.820312 140.914062 C 119.3125 140.996094 120.628906 142.164062 121.730469 143.089844 C 123.265625 144.386719 124.472656 146.035156 125.414062 147.800781 C 125.632812 148.210938 125.0625 148.527344 124.800781 148.160156 C 123.773438 146.71875 122.59375 145.421875 121.308594 144.207031 C 120.175781 143.136719 118.699219 142.53125 117.582031 141.484375 C 117.375 141.289062 117.527344 140.894531 117.820312 140.914062 Z M 65.113281 63.824219 C 68.480469 70.558594 76.328125 71.679688 80.253906 77.289062 C 80.503906 77.605469 80.71875 77.929688 80.910156 78.253906 C 82.421875 80.804688 82.378906 83.398438 85.859375 82.902344 C 94.644531 81.644531 90.140625 73.441406 86.058594 67.457031 C 84.21875 64.761719 82.464844 62.515625 82.042969 61.550781 C 77.488281 51.113281 94.898438 49.824219 96.949219 40.699219 C 97.1875 39.632812 97.222656 38.445312 97.148438 37.195312 C 100.003906 44.835938 105.019531 48.949219 106.675781 50.144531 C 107.019531 50.394531 107.222656 50.519531 107.222656 50.519531 C 107.222656 50.519531 111.554688 47.320312 110.289062 42.257812 C 110.21875 41.699219 110.15625 41.078125 110.121094 40.417969 C 111.28125 43.183594 113.511719 45.488281 116.777344 44.898438 C 117.132812 44.832031 117 44.351562 116.695312 44.316406 C 114.929688 44.109375 112.566406 42.796875 111.667969 41.21875 C 110.992188 40.039062 110.628906 38.738281 110.125 37.503906 C 110.386719 33.804688 111.765625 30.164062 116.148438 30.527344 C 121.476562 31.0625 120.410156 41.722656 126.269531 40.65625 C 126.804688 37.457031 124.671875 34.261719 125.738281 31.0625 C 127.335938 26.265625 130.53125 26.796875 134.789062 26.265625 C 137.578125 25.917969 139.363281 24.992188 140.378906 23.742188 C 141.519531 22.339844 141.695312 20.53125 141.199219 18.652344 C 138.792969 9.527344 125.476562 4.667969 116.921875 5.953125 C 112.890625 6.558594 108.503906 8.171875 104.730469 10.585938 C 98.875 0.484375 81.136719 4.339844 76.890625 16.140625 C 75.769531 20.066406 76.332031 21.75 71.84375 23.433594 C 67.917969 24.554688 65.675781 22.871094 64.554688 27.921875 C 62.875 35.214844 73.527344 42.507812 69.039062 48.117188 C 66.238281 51.484375 64.554688 50.363281 63.996094 54.851562 C 63.433594 58.214844 63.992188 61.019531 65.113281 63.824219 Z M 101.867188 21.066406 C 103.03125 20.203125 104.386719 20.128906 104.910156 18.570312 C 105.386719 17.136719 104.707031 15.417969 104.105469 14.136719 C 103.796875 13.476562 104.765625 12.898438 105.09375 13.5625 C 105.953125 15.304688 106.621094 17.261719 106.015625 19.195312 C 105.515625 20.792969 103.632812 22.136719 101.96875 21.824219 C 101.574219 21.75 101.613281 21.253906 101.867188 21.066406 Z M 136.019531 49.441406 C 136.429688 49.792969 136.746094 50.253906 137.136719 50.628906 C 137.492188 50.972656 137.894531 51.257812 138.300781 51.535156 C 138.734375 51.832031 138.640625 52.703125 138 52.636719 C 137.304688 52.5625 136.773438 52.183594 136.246094 51.738281 C 135.710938 51.28125 135.183594 50.742188 134.914062 50.082031 C 134.640625 49.410156 135.574219 49.058594 136.019531 49.441406 Z M 120.132812 42.527344 C 120.457031 42.644531 120.332031 43.132812 119.988281 43.046875 C 118.074219 42.578125 116.578125 41.179688 117.0625 39.085938 C 117.167969 38.636719 117.375 38.207031 117.496094 37.761719 C 117.867188 36.421875 115.738281 33.945312 114.941406 36.160156 C 114.574219 37.183594 115.019531 38.363281 114.929688 39.421875 C 114.90625 39.707031 114.578125 39.871094 114.355469 39.660156 C 112.957031 38.3125 113.425781 33.777344 116.070312 34.328125 C 117.414062 34.609375 118.246094 35.734375 118.496094 37.035156 C 118.625 37.714844 118.339844 38.394531 118.097656 39.011719 C 117.457031 40.640625 118.652344 41.992188 120.132812 42.527344 Z M 112.085938 89.632812 C 112.316406 95.644531 114.777344 102.378906 112.464844 108.21875 C 112.367188 108.46875 111.910156 108.464844 111.949219 108.148438 C 112.699219 101.878906 111.265625 95.882812 111.21875 89.632812 C 111.214844 89.070312 112.0625 89.074219 112.085938 89.632812 Z M 112.085938 89.632812 " fill-opacity="1" fill-rule="nonzero"/><path fill="#feb24f" d="M 304 270.492188 C 312.386719 272.480469 319.714844 274.296875 325.347656 275.8125 C 325.746094 272.839844 325.121094 269.621094 323.652344 266.679688 C 320.546875 261.703125 321.167969 261.082031 321.785156 255.488281 C 322.410156 251.136719 323.03125 246.160156 317.4375 244.296875 C 313.710938 243.050781 308.738281 244.296875 305.632812 247.402344 C 304.386719 248.648438 304.386719 251.132812 303.144531 253 C 301.726562 254.777344 301.117188 255.132812 300.277344 255.339844 C 303.644531 258.890625 304.941406 264.875 304 270.492188 Z M 291.375 267.546875 C 292.160156 263.425781 292.125 259.15625 291.03125 255.597656 C 290.816406 254.898438 291.890625 254.429688 292.21875 255.097656 C 294.078125 258.859375 293.585938 263.714844 292.929688 267.902344 C 292.414062 267.785156 291.894531 267.664062 291.375 267.546875 Z M 272.699219 263.316406 C 274.214844 258.617188 275.90625 253.964844 277.488281 249.28125 C 277.660156 248.769531 278.371094 248.984375 278.285156 249.503906 C 277.488281 254.371094 275.785156 258.992188 274.285156 263.671875 C 273.757812 263.554688 273.226562 263.433594 272.699219 263.316406 Z M 258.578125 260.1875 C 258.050781 260.070312 257.519531 259.953125 256.992188 259.839844 C 258.429688 255.882812 260.355469 252.171875 263.3125 248.910156 C 263.664062 248.523438 264.371094 249.054688 264.046875 249.476562 C 261.507812 252.765625 259.847656 256.390625 258.578125 260.1875 Z M 103.941406 333.121094 C 104.539062 338.390625 107.304688 343.785156 107.875 354.859375 C 107.910156 355.515625 108.167969 356.042969 108.585938 356.46875 C 111.148438 359.070312 120.015625 357.703125 123.996094 357.703125 C 128.621094 357.703125 155.113281 356.019531 162.261719 354.335938 C 163.800781 353.953125 164.808594 353.367188 165.398438 352.664062 C 167.375 350.300781 164.5625 346.605469 161 344.660156 C 157.636719 342.976562 153.007812 342.976562 149.644531 342.976562 C 145.441406 342.554688 140.816406 342.554688 137.03125 340.453125 C 132.824219 337.929688 131.144531 332.878906 128.199219 329.511719 C 128.101562 329.511719 127.988281 329.511719 127.882812 329.507812 C 124.058594 329.46875 113.703125 328.734375 107.9375 330.027344 C 105.414062 330.59375 103.761719 331.546875 103.941406 333.121094 Z M 110.398438 337.519531 C 115.332031 336.390625 121.597656 335.585938 126.613281 336.46875 C 127.222656 336.578125 127.085938 337.613281 126.464844 337.554688 C 121.132812 337.054688 115.609375 339.15625 110.398438 338.164062 C 110.070312 338.105469 110.085938 337.589844 110.398438 337.519531 Z M 289.949219 341 C 291.921875 341.144531 293.375 343.539062 292.957031 345.457031 C 292.378906 348.101562 289.890625 348.90625 287.851562 347.828125 C 286.492188 347.113281 285.742188 345.546875 286.015625 344.046875 C 286.316406 342.394531 288.167969 340.871094 289.949219 341 Z M 137.164062 208.289062 C 136.929688 208.304688 136.71875 208.324219 136.511719 208.347656 C 127.988281 205.820312 121.191406 204.179688 121.03125 204.140625 C 119.453125 203.765625 118.476562 202.175781 118.855469 200.59375 C 119.230469 199.011719 120.824219 198.035156 122.398438 198.414062 C 122.800781 198.507812 125.554688 199.171875 129.601562 200.261719 C 130.730469 200.566406 131.957031 200.902344 133.265625 201.269531 C 135.390625 203.78125 141.285156 208.039062 137.164062 208.289062 Z M 148.757812 212.285156 C 156.695312 215.082031 164.238281 218.308594 168.082031 221.496094 C 171.183594 224.070312 176.941406 233.078125 183.40625 244.085938 C 185.90625 248.351562 188.511719 252.910156 191.113281 257.515625 C 191.367188 257.96875 191.621094 258.421875 191.878906 258.875 C 194.410156 263.371094 196.925781 267.890625 199.320312 272.1875 C 205.753906 283.742188 211.652344 294.332031 216.285156 301.910156 C 219.25 306.757812 221.699219 310.378906 223.4375 312.226562 C 227.148438 316.171875 228.183594 320.828125 227.929688 325.597656 C 227.664062 330.628906 225.972656 335.785156 224.464844 340.367188 C 224.257812 340.996094 224.054688 341.609375 223.859375 342.207031 C 222.90625 345.167969 222.8125 348.125 223.515625 350.863281 C 224.113281 353.1875 225.285156 355.351562 227.011719 357.21875 C 230.082031 360.535156 234.488281 362.398438 238.90625 362.398438 C 240.097656 362.398438 241.289062 362.261719 242.453125 361.980469 C 244.113281 361.582031 246.390625 360.714844 248.644531 358.878906 C 251.246094 356.761719 253.824219 353.347656 255.390625 347.8125 C 259.578125 333.027344 260.921875 329.710938 270.097656 330.027344 C 267.585938 333.1875 265.808594 336.785156 265.140625 340.472656 C 263.695312 348.433594 266.363281 356.648438 271.878906 362.351562 C 273.640625 364.171875 275.6875 365.742188 277.992188 366.957031 C 292.285156 374.496094 309.707031 368.867188 313.730469 350.363281 C 316.65625 336.917969 306.480469 320.160156 292.679688 319.140625 C 288.753906 318.847656 284.777344 319.714844 281.101562 321.390625 C 279.148438 322.285156 277.285156 323.414062 275.554688 324.71875 C 275.261719 324.582031 274.949219 324.480469 274.609375 324.449219 C 257.28125 322.742188 254.683594 328.707031 249.726562 346.207031 C 248.597656 350.191406 246.679688 353.152344 244.1875 354.855469 C 243.230469 355.511719 242.195312 355.984375 241.082031 356.253906 C 237.632812 357.082031 233.804688 355.890625 231.332031 353.21875 C 229.992188 351.769531 227.96875 348.648438 229.460938 344.019531 C 229.652344 343.433594 229.851562 342.828125 230.054688 342.210938 C 231.441406 337.992188 233.148438 332.796875 233.667969 327.386719 C 233.917969 324.816406 233.894531 322.199219 233.445312 319.609375 C 232.75 315.625 231.046875 311.71875 227.722656 308.1875 C 226.929688 307.347656 225.902344 305.960938 224.691406 304.160156 C 219.84375 296.949219 212.050781 282.953125 204.460938 269.320312 C 202.859375 266.441406 201.25 263.554688 199.648438 260.691406 C 199.394531 260.238281 199.144531 259.792969 198.894531 259.339844 C 196.273438 254.660156 193.679688 250.066406 191.171875 245.71875 C 194.308594 246.375 197.835938 247.121094 201.675781 247.933594 C 201.996094 242.671875 202.925781 237.574219 205.5625 232.769531 C 205.859375 232.234375 206.609375 232.703125 206.367188 233.242188 C 204.191406 238.082031 203.539062 243.136719 203.335938 248.285156 C 207.652344 249.199219 212.332031 250.191406 217.269531 251.246094 C 217.535156 249.546875 217.777344 247.839844 217.902344 246.125 C 218.296875 240.699219 218.945312 235.285156 219.445312 229.867188 C 219.496094 229.339844 220.234375 229.328125 220.273438 229.867188 C 220.660156 235.3125 219.847656 240.695312 219.527344 246.125 C 219.433594 247.761719 219.433594 249.710938 219.316406 251.683594 C 224.539062 252.800781 230.027344 253.976562 235.660156 255.195312 C 236.835938 252.195312 237.105469 249.300781 236.9375 245.675781 C 236.75 241.597656 236.203125 236.5 234.085938 232.886719 C 233.722656 232.261719 234.628906 231.515625 235.109375 232.097656 C 238.25 235.898438 238.65625 241.925781 238.914062 246.640625 C 239.019531 248.582031 239.148438 252.777344 238.109375 255.722656 C 240.042969 256.140625 241.988281 256.5625 243.945312 256.988281 C 244.933594 253.339844 247.167969 249.914062 250.148438 246.890625 C 250.6875 237.054688 244.050781 226.507812 234.484375 229.261719 C 233.746094 227.855469 232.917969 226.617188 232.410156 226.277344 C 229.71875 224.484375 223.445312 224.933594 221.652344 227.625 C 218.066406 224.035156 211.792969 221.34375 209.101562 227.625 L 208.65625 227.625 C 202.378906 220.898438 196.105469 227.625 192.519531 233.453125 C 190.8125 236.1875 189.566406 239.050781 188.964844 241.921875 C 181.859375 229.773438 175.644531 220.117188 171.835938 216.960938 C 167.757812 213.582031 160.375 210.269531 152.539062 207.402344 C 152.175781 208.328125 151.746094 209.3125 151.253906 210.445312 C 150.914062 211.222656 150 211.828125 148.757812 212.285156 Z M 272.992188 341.816406 C 274.414062 333.980469 283.207031 326.738281 291.65625 327.363281 C 301.003906 328.054688 307.898438 339.410156 305.917969 348.519531 C 303.191406 361.054688 291.386719 364.871094 281.703125 359.761719 C 275.25 356.359375 271.703125 348.933594 272.992188 341.816406 Z M 75.207031 116.5625 C 76.328125 111.515625 75.769531 106.464844 76.328125 101.414062 C 76.890625 98.609375 78.011719 96.367188 78.570312 93.5625 C 79.132812 91.316406 78.011719 88.511719 78.570312 85.707031 C 79.125 83.496094 79.949219 80.878906 80.910156 78.253906 C 82.421875 80.804688 82.378906 83.398438 85.859375 82.898438 C 94.644531 81.644531 90.140625 73.441406 86.058594 67.453125 C 88.4375 64.167969 91.460938 62.046875 94.917969 60.574219 C 91.972656 62.671875 89.910156 65.296875 92.589844 68.875 C 97.636719 75.605469 104.503906 61.929688 107.308594 59.128906 C 107.414062 59.035156 107.546875 58.957031 107.667969 58.871094 C 110.710938 58.441406 113.628906 57.40625 116.675781 56.941406 C 117.949219 56.746094 119.191406 56.617188 120.414062 56.546875 C 120.742188 56.550781 121.066406 56.5625 121.378906 56.574219 C 117.609375 57.535156 113.933594 59.566406 110.792969 62.089844 C 100.882812 70.058594 97.414062 81.4375 102.695312 93.410156 C 104.738281 98.050781 109.824219 100.257812 111.09375 105.339844 C 112.210938 109.828125 109.96875 129.464844 111.652344 142.367188 C 111.769531 143.277344 111.988281 144.300781 112.277344 145.398438 C 109.070312 145.453125 105.816406 145.472656 102.679688 145.734375 C 96.964844 146.144531 82.636719 145.359375 75.046875 140.355469 C 72.214844 138.488281 70.3125 136.035156 70.160156 132.832031 C 70.160156 128.34375 74.644531 121.613281 75.207031 116.5625 Z M 135.929688 119.335938 C 137.476562 108.425781 139.597656 94 140.121094 84.902344 C 143.308594 89.394531 146.972656 93.644531 146.972656 99.730469 C 146.972656 106.464844 141.925781 110.390625 138 115.441406 C 137.273438 116.605469 136.582031 117.925781 135.929688 119.335938 Z M 27.332031 337.417969 C 27.890625 340.015625 31.953125 342.316406 34.070312 344.785156 C 37.746094 348.925781 42.34375 353.984375 46.9375 356.742188 C 50.613281 359.042969 55.671875 359.042969 59.804688 359.503906 C 61.847656 359.503906 69.695312 360.589844 72.0625 358.570312 C 72.355469 358.320312 72.574219 358.019531 72.675781 357.664062 C 74.054688 353.0625 64.402344 350.304688 62.105469 348.925781 C 57.050781 346.164062 59.347656 334.207031 59.808594 331.910156 L 58.511719 330.75 L 43.460938 317.277344 L 42.34375 316.277344 C 40.964844 317.195312 30.652344 331.285156 27.941406 334.960938 C 27.3125 335.816406 27.160156 336.632812 27.332031 337.417969 Z M 41.621094 323.1875 C 44.296875 324.277344 46.394531 327.0625 48.363281 329.113281 C 50.738281 331.582031 52.910156 334.230469 55.253906 336.726562 C 55.597656 337.089844 55.066406 337.621094 54.707031 337.273438 C 52.464844 335.125 50.261719 332.96875 48.109375 330.726562 C 45.941406 328.464844 42.835938 326.378906 41.210938 323.71875 C 41.058594 323.46875 41.316406 323.0625 41.621094 323.1875 Z M 96.253906 290.039062 C 105.96875 284.535156 110.605469 273.742188 119.902344 267.765625 C 120.246094 267.542969 120.554688 268.085938 120.21875 268.3125 C 111.210938 274.445312 106.90625 286.335938 96.769531 290.921875 C 96.183594 291.1875 95.667969 290.367188 96.253906 290.039062 Z M 85.671875 234.886719 C 85.714844 234.679688 85.992188 234.714844 86.050781 234.886719 C 86.726562 236.820312 85.792969 238.625 84.695312 240.210938 C 83.152344 242.4375 81.410156 244.164062 80.519531 246.792969 C 80.421875 247.082031 79.972656 247.042969 79.976562 246.71875 C 80.007812 244.773438 81.152344 243.242188 82.308594 241.765625 C 84.089844 239.492188 85.078125 237.71875 85.671875 234.886719 Z M 97.242188 171.632812 C 95.453125 165.164062 94.375 158.257812 96.730469 151.808594 C 96.886719 151.386719 97.519531 151.550781 97.414062 152 C 95.804688 159.054688 97.007812 165.839844 98.898438 172.703125 C 100.199219 177.417969 103.273438 183.15625 102.832031 188.136719 C 102.769531 188.863281 102.289062 189.402344 101.824219 189.914062 C 99.464844 192.472656 96.203125 193.980469 97.238281 198.152344 C 98.058594 201.457031 100.585938 204.402344 101.960938 207.496094 C 103.023438 209.878906 102.597656 212.730469 103.695312 215.035156 C 103.933594 215.539062 103.261719 216.175781 102.867188 215.675781 C 101.605469 214.070312 101.929688 212.402344 101.507812 210.421875 C 100.691406 206.53125 98.148438 203.316406 96.496094 199.769531 C 94.617188 195.742188 96.511719 192.65625 99.691406 190.03125 C 102.261719 187.90625 101.371094 185.621094 100.550781 182.730469 C 99.492188 179.015625 98.269531 175.355469 97.242188 171.632812 Z M 101.964844 21.824219 C 101.574219 21.75 101.613281 21.257812 101.867188 21.066406 C 103.027344 20.203125 104.386719 20.128906 104.910156 18.570312 C 105.386719 17.136719 104.707031 15.417969 104.105469 14.140625 C 103.796875 13.480469 104.765625 12.898438 105.09375 13.5625 C 105.953125 15.304688 106.617188 17.265625 106.015625 19.195312 C 105.515625 20.792969 103.632812 22.136719 101.964844 21.824219 Z M 101.964844 21.824219 " fill-opacity="1" fill-rule="nonzero"/><path fill="#4f9a76" d="M 248.644531 358.878906 C 249.46875 359.457031 250.316406 360 251.21875 360.476562 C 257.992188 364.050781 265.460938 364.660156 271.878906 362.351562 C 266.363281 356.652344 263.695312 348.433594 265.140625 340.472656 C 265.808594 336.785156 267.585938 333.1875 270.097656 330.027344 C 260.921875 329.710938 259.578125 333.027344 255.390625 347.8125 C 253.824219 353.347656 251.25 356.761719 248.644531 358.878906 Z M 247.835938 317.96875 C 248.175781 318.003906 248.488281 318.101562 248.78125 318.238281 C 252.363281 315.53125 256.546875 313.605469 260.855469 312.902344 C 265.882812 314.003906 270.664062 314.988281 275.003906 315.808594 C 277.292969 317.28125 279.351562 319.1875 281.101562 321.390625 C 279.148438 322.285156 277.285156 323.414062 275.554688 324.71875 C 275.261719 324.582031 274.949219 324.480469 274.609375 324.449219 C 257.28125 322.742188 254.683594 328.707031 249.726562 346.207031 C 248.597656 350.191406 246.679688 353.152344 244.191406 354.855469 C 239.304688 349.21875 237.003906 341.496094 238.367188 333.992188 C 239.035156 330.304688 240.8125 326.710938 243.324219 323.550781 C 238.402344 323.378906 235.730469 324.257812 233.671875 327.386719 C 233.917969 324.816406 233.894531 322.195312 233.445312 319.609375 C 236.722656 317.792969 241.195312 317.316406 247.835938 317.96875 Z M 147.285156 212.730469 C 153.457031 219.851562 163.46875 237.363281 173.679688 255.652344 C 174.628906 262.125 176.566406 269.964844 178.695312 276.726562 C 176.71875 273.207031 174.664062 269.511719 172.546875 265.707031 C 161.117188 245.1875 146.902344 219.652344 141.308594 215.019531 C 140.679688 214.496094 139.949219 213.972656 139.136719 213.449219 C 141.804688 213.523438 144.878906 213.320312 147.285156 212.730469 Z M 188.21875 293.292969 C 190.273438 294.121094 193.296875 295.160156 197.027344 296.332031 C 198.632812 298.804688 199.96875 300.667969 200.949219 301.710938 C 210.972656 312.359375 206.34375 326.425781 203.28125 335.730469 C 203.078125 336.351562 202.878906 336.953125 202.6875 337.539062 C 201.195312 342.167969 203.21875 345.289062 204.5625 346.738281 C 207.03125 349.410156 210.859375 350.601562 214.308594 349.773438 C 218.324219 348.8125 221.394531 345.242188 222.953125 339.730469 C 224.660156 333.703125 226.085938 329.046875 227.929688 325.597656 C 227.664062 330.628906 225.972656 335.785156 224.464844 340.367188 C 224.257812 340.996094 224.054688 341.609375 223.863281 342.207031 C 222.90625 345.167969 222.8125 348.125 223.519531 350.863281 C 220.769531 353.789062 217.746094 355.007812 215.679688 355.503906 C 214.515625 355.78125 213.320312 355.917969 212.132812 355.917969 C 207.714844 355.917969 203.304688 354.054688 200.238281 350.738281 C 196.472656 346.667969 195.324219 341.195312 197.085938 335.730469 C 197.28125 335.132812 197.480469 334.519531 197.691406 333.890625 C 200.628906 324.960938 204.285156 313.847656 196.664062 305.75 C 194.675781 303.636719 191.765625 299.214844 188.21875 293.292969 Z M 235.664062 255.195312 C 236.839844 252.195312 237.105469 249.300781 236.9375 245.675781 C 236.75 241.597656 236.203125 236.5 234.089844 232.886719 C 233.722656 232.261719 234.628906 231.515625 235.109375 232.097656 C 238.25 235.898438 238.65625 241.925781 238.914062 246.640625 C 239.019531 248.582031 239.148438 252.777344 238.109375 255.722656 C 237.289062 255.546875 236.476562 255.371094 235.664062 255.195312 Z M 219.316406 251.683594 C 218.628906 251.535156 217.949219 251.390625 217.273438 251.246094 C 217.539062 249.546875 217.777344 247.839844 217.902344 246.125 C 218.296875 240.699219 218.945312 235.285156 219.445312 229.867188 C 219.496094 229.335938 220.234375 229.328125 220.273438 229.867188 C 220.660156 235.3125 219.847656 240.695312 219.53125 246.125 C 219.433594 247.761719 219.433594 249.710938 219.316406 251.683594 Z M 203.339844 248.285156 C 202.777344 248.167969 202.226562 248.050781 201.679688 247.933594 C 201.996094 242.671875 202.925781 237.574219 205.5625 232.769531 C 205.859375 232.234375 206.613281 232.703125 206.367188 233.242188 C 204.191406 238.082031 203.539062 243.136719 203.339844 248.285156 Z M 292.925781 267.902344 C 293.585938 263.714844 294.078125 258.859375 292.21875 255.097656 C 291.890625 254.429688 290.8125 254.898438 291.027344 255.597656 C 292.121094 259.15625 292.160156 263.425781 291.375 267.546875 C 285.898438 266.285156 280.15625 264.988281 274.285156 263.671875 C 275.78125 258.992188 277.488281 254.371094 278.285156 249.503906 C 278.371094 248.984375 277.660156 248.769531 277.484375 249.28125 C 275.90625 253.964844 274.214844 258.617188 272.695312 263.316406 C 268.042969 262.277344 263.316406 261.230469 258.578125 260.1875 C 259.847656 256.390625 261.507812 252.765625 264.046875 249.476562 C 264.371094 249.054688 263.664062 248.523438 263.3125 248.910156 C 260.355469 252.171875 258.429688 255.882812 256.992188 259.839844 C 252.628906 258.878906 248.265625 257.925781 243.949219 256.988281 C 244.933594 253.339844 247.167969 249.914062 250.148438 246.890625 C 250.253906 246.785156 250.351562 246.679688 250.457031 246.574219 C 255.289062 241.730469 262.945312 236.632812 267.5 244.625 L 267.9375 244.730469 C 272 239.242188 277.484375 243.308594 280.144531 247.625 C 282.511719 245.421875 288.71875 246.433594 290.921875 248.800781 C 291.339844 249.246094 291.859375 250.644531 292.253906 252.183594 C 295.613281 252.023438 298.300781 253.261719 300.277344 255.339844 C 303.648438 258.890625 304.945312 264.875 304 270.492188 C 300.480469 269.65625 296.773438 268.792969 292.925781 267.902344 Z M 58.679688 305.949219 C 61.527344 308.324219 66.953125 313.445312 71.054688 314.976562 C 71.953125 315.3125 72.789062 315.484375 73.519531 315.410156 C 74.070312 315.507812 80.925781 312.160156 81.671875 311.152344 C 82.515625 309.59375 81.347656 306.539062 82.839844 304.523438 C 84.335938 302.507812 88.136719 300.332031 89.628906 298.316406 C 91.347656 296.339844 93 294.71875 94.640625 293.167969 C 94.828125 293.582031 95.011719 293.996094 95.199219 294.40625 C 98.003906 299.457031 99.125 305.625 102.488281 309.554688 C 101.367188 311.238281 99.683594 312.359375 99.125 314.605469 C 98.167969 320.351562 102.113281 320.777344 106.078125 320.085938 C 106.757812 319.964844 107.4375 319.816406 108.09375 319.652344 C 110.898438 319.652344 113.703125 319.09375 116.503906 318.53125 C 118.253906 318.53125 123.3125 319.0625 126.261719 319.03125 C 127.097656 319.023438 127.773438 318.972656 128.144531 318.847656 C 130.949219 317.726562 130.390625 316.605469 130.390625 313.796875 C 130.390625 309.871094 128.707031 310.433594 127.585938 307.628906 C 123.660156 300.894531 123.792969 289.359375 123.792969 281.503906 C 123.792969 275.660156 123.792969 269.507812 123.097656 263.734375 C 127.527344 257.695312 130.984375 251.109375 132.285156 243.757812 C 134.226562 232.757812 132.664062 220.808594 130.9375 209.265625 C 131.617188 209.558594 132.285156 209.855469 132.933594 210.152344 C 133.222656 209.28125 134.214844 208.585938 136.511719 208.347656 C 127.992188 205.816406 121.191406 204.179688 121.035156 204.140625 C 119.453125 203.761719 118.476562 202.175781 118.855469 200.589844 C 119.234375 199.007812 120.824219 198.035156 122.402344 198.410156 C 122.804688 198.507812 125.554688 199.171875 129.601562 200.261719 C 129.535156 199.777344 129.464844 199.289062 129.398438 198.8125 C 128.59375 192.476562 128.117188 186.117188 127.570312 179.757812 C 122.214844 169.082031 114.636719 154.394531 112.277344 145.398438 C 109.070312 145.457031 105.816406 145.476562 102.683594 145.738281 C 96.964844 146.144531 82.636719 145.359375 75.046875 140.355469 C 74.734375 140.632812 74.421875 140.914062 74.097656 141.183594 C 65.261719 149.304688 59.511719 162.535156 58.371094 175.433594 C 57.234375 188.335938 78.335938 246.1875 76.550781 249.859375 C 73.269531 255.546875 67.875 260.292969 65.699219 266.175781 C 63.621094 271.503906 63.75 277.222656 61.117188 282.457031 C 58.097656 280.210938 50.269531 289.085938 49.683594 292.398438 C 48.882812 294.996094 51.039062 298.320312 53.640625 301.1875 C 55.367188 303.089844 57.289062 304.796875 58.679688 305.949219 Z M 96.253906 290.039062 C 105.96875 284.535156 110.605469 273.742188 119.902344 267.765625 C 120.246094 267.542969 120.554688 268.085938 120.21875 268.3125 C 111.210938 274.445312 106.90625 286.335938 96.769531 290.921875 C 96.183594 291.1875 95.667969 290.367188 96.253906 290.039062 Z M 100.550781 182.730469 C 99.492188 179.019531 98.269531 175.355469 97.242188 171.632812 C 95.453125 165.164062 94.375 158.257812 96.730469 151.808594 C 96.886719 151.386719 97.519531 151.550781 97.414062 152 C 95.804688 159.054688 97.007812 165.839844 98.898438 172.703125 C 100.199219 177.417969 103.273438 183.15625 102.832031 188.136719 C 102.769531 188.863281 102.289062 189.402344 101.824219 189.914062 C 99.464844 192.472656 96.203125 193.980469 97.238281 198.152344 C 98.058594 201.457031 100.585938 204.402344 101.960938 207.496094 C 103.023438 209.878906 102.597656 212.730469 103.695312 215.035156 C 103.933594 215.539062 103.261719 216.175781 102.867188 215.675781 C 101.605469 214.070312 101.929688 212.402344 101.507812 210.421875 C 100.691406 206.53125 98.148438 203.316406 96.496094 199.769531 C 94.617188 195.742188 96.511719 192.65625 99.691406 190.03125 C 102.261719 187.90625 101.375 185.621094 100.550781 182.730469 Z M 79.976562 246.71875 C 80.003906 244.773438 81.152344 243.242188 82.308594 241.765625 C 84.089844 239.492188 85.078125 237.71875 85.671875 234.886719 C 85.714844 234.679688 85.992188 234.714844 86.050781 234.886719 C 86.722656 236.820312 85.789062 238.625 84.695312 240.210938 C 83.152344 242.4375 81.410156 244.164062 80.519531 246.792969 C 80.421875 247.082031 79.972656 247.042969 79.976562 246.71875 Z M 176.839844 253.988281 C 181.585938 255.203125 186.347656 256.371094 191.113281 257.515625 C 191.367188 257.96875 191.621094 258.421875 191.878906 258.875 C 186.753906 257.648438 181.640625 256.382812 176.539062 255.078125 C 175.832031 254.898438 176.132812 253.808594 176.839844 253.988281 Z M 202.867188 261.425781 C 201.792969 261.183594 200.722656 260.933594 199.648438 260.691406 C 199.398438 260.238281 199.144531 259.792969 198.894531 259.339844 C 199.988281 259.59375 201.078125 259.859375 202.171875 260.109375 C 217.359375 263.5625 232.902344 264.976562 248.042969 268.625 C 256.894531 270.757812 265.652344 273.207031 274.53125 275.257812 C 281.941406 276.96875 289.085938 279.535156 296.484375 281.269531 C 306.082031 283.515625 315.84375 285.210938 325.570312 286.808594 C 326.015625 286.882812 325.820312 287.542969 325.386719 287.480469 C 298.972656 283.75 273.558594 276.222656 247.746094 269.707031 C 232.984375 265.980469 217.722656 264.75 202.867188 261.425781 Z M 272.992188 341.816406 C 271.703125 348.933594 275.25 356.359375 281.703125 359.761719 C 291.386719 364.871094 303.1875 361.054688 305.917969 348.519531 C 307.898438 339.410156 301.003906 328.054688 291.652344 327.363281 C 283.207031 326.738281 274.414062 333.980469 272.992188 341.816406 Z M 286.015625 344.046875 C 286.316406 342.394531 288.167969 340.871094 289.949219 341 C 291.921875 341.144531 293.375 343.539062 292.957031 345.457031 C 292.378906 348.101562 289.890625 348.90625 287.851562 347.828125 C 286.492188 347.113281 285.746094 345.546875 286.015625 344.046875 Z M 110.398438 337.519531 C 115.332031 336.390625 121.597656 335.585938 126.613281 336.46875 C 127.222656 336.578125 127.085938 337.613281 126.464844 337.554688 C 121.132812 337.054688 115.609375 339.15625 110.398438 338.164062 C 110.070312 338.105469 110.085938 337.589844 110.398438 337.519531 Z M 41.621094 323.1875 C 44.296875 324.277344 46.394531 327.0625 48.363281 329.113281 C 50.738281 331.582031 52.910156 334.230469 55.253906 336.726562 C 55.597656 337.089844 55.066406 337.621094 54.707031 337.273438 C 52.464844 335.125 50.261719 332.96875 48.109375 330.726562 C 45.941406 328.464844 42.835938 326.378906 41.210938 323.71875 C 41.058594 323.46875 41.316406 323.0625 41.621094 323.1875 Z M 41.621094 323.1875 " fill-opacity="1" fill-rule="nonzero"/><g clip-path="url(#7adfdd3421)"><path fill="#7a3b0d" d="M 108.585938 356.46875 C 108.402344 357.527344 108.3125 358.578125 108.363281 359.558594 C 108.605469 364.253906 119.855469 362.402344 124.484375 362.402344 C 129.109375 362.402344 155.601562 360.71875 162.75 359.035156 C 167.207031 357.921875 167.230469 355.144531 165.398438 352.664062 C 164.808594 353.367188 163.800781 353.953125 162.261719 354.335938 C 155.113281 356.019531 128.621094 357.703125 123.996094 357.703125 C 120.015625 357.703125 111.148438 359.070312 108.585938 356.46875 Z M 27.332031 337.417969 C 27.890625 340.015625 31.953125 342.316406 34.070312 344.785156 C 37.746094 348.925781 42.34375 353.984375 46.9375 356.742188 C 50.613281 359.042969 55.671875 359.042969 59.804688 359.503906 C 61.847656 359.503906 69.695312 360.589844 72.0625 358.570312 C 73.054688 360.109375 73.300781 362.625 72.871094 363.320312 C 72.148438 364.488281 60.730469 363.949219 55.703125 363.695312 C 50.671875 363.4375 45.179688 362.707031 40.867188 358.082031 C 36.621094 353.53125 32.273438 351.714844 28.441406 346.714844 C 26.988281 344.8125 24.714844 343.734375 24.769531 341.117188 C 24.808594 339.277344 25.941406 338.285156 27.332031 337.417969 Z M 199.648438 260.6875 C 200.722656 260.933594 201.792969 261.183594 202.867188 261.425781 C 217.722656 264.75 232.988281 265.980469 247.742188 269.703125 C 273.558594 276.21875 298.972656 283.75 325.382812 287.480469 C 325.820312 287.542969 326.015625 286.878906 325.566406 286.808594 C 315.84375 285.210938 306.078125 283.515625 296.480469 281.269531 C 289.085938 279.535156 281.941406 276.96875 274.53125 275.257812 C 265.652344 273.207031 256.894531 270.757812 248.039062 268.625 C 232.902344 264.976562 217.359375 263.5625 202.167969 260.109375 C 201.074219 259.859375 199.984375 259.59375 198.894531 259.339844 C 196.273438 254.660156 193.679688 250.066406 191.171875 245.714844 C 194.308594 246.375 197.835938 247.121094 201.675781 247.933594 C 202.222656 248.046875 202.777344 248.164062 203.335938 248.285156 C 207.652344 249.199219 212.332031 250.191406 217.269531 251.246094 C 217.949219 251.390625 218.628906 251.535156 219.316406 251.683594 C 224.539062 252.796875 230.027344 253.976562 235.660156 255.191406 C 236.476562 255.367188 237.289062 255.542969 238.109375 255.722656 C 240.042969 256.140625 241.988281 256.5625 243.945312 256.988281 C 248.265625 257.925781 252.628906 258.878906 256.992188 259.835938 C 257.519531 259.953125 258.046875 260.070312 258.574219 260.1875 C 263.316406 261.230469 268.042969 262.277344 272.695312 263.316406 C 273.226562 263.433594 273.753906 263.554688 274.28125 263.671875 C 280.15625 264.984375 285.894531 266.285156 291.371094 267.546875 C 291.890625 267.664062 292.410156 267.785156 292.925781 267.902344 C 296.773438 268.792969 300.476562 269.65625 303.996094 270.492188 C 312.386719 272.480469 319.714844 274.296875 325.347656 275.8125 C 332.976562 277.867188 337.496094 279.371094 337.308594 280.019531 C 336.242188 283.726562 307.238281 315.730469 295.667969 318.132812 C 292.839844 318.71875 285.121094 317.71875 275.003906 315.808594 C 270.664062 314.988281 265.882812 314.003906 260.855469 312.902344 C 249.3125 310.375 236.472656 307.25 224.691406 304.160156 C 219.847656 296.949219 212.050781 282.953125 204.460938 269.320312 C 202.859375 266.441406 201.25 263.554688 199.648438 260.6875 Z M 176.09375 242.558594 C 177.03125 242.753906 179.589844 243.289062 183.40625 244.085938 C 185.90625 248.347656 188.511719 252.910156 191.113281 257.515625 C 186.34375 256.371094 181.585938 255.203125 176.839844 253.988281 C 176.132812 253.804688 175.832031 254.898438 176.539062 255.078125 C 181.640625 256.382812 186.753906 257.648438 191.878906 258.871094 C 194.410156 263.371094 196.925781 267.890625 199.320312 272.1875 C 205.753906 283.742188 211.652344 294.328125 216.285156 301.910156 C 208.914062 299.902344 202.269531 297.980469 197.027344 296.332031 C 193.296875 295.160156 190.273438 294.121094 188.21875 293.292969 C 186.78125 292.714844 185.8125 292.238281 185.398438 291.882812 C 183.652344 290.390625 181.054688 284.222656 178.695312 276.726562 C 176.566406 269.964844 174.628906 262.125 173.679688 255.652344 C 172.519531 247.738281 172.835938 241.878906 176.09375 242.558594 Z M 139.4375 35.347656 C 139.441406 35.34375 139.441406 35.34375 139.445312 35.34375 C 139.746094 35.179688 140.058594 35.046875 140.375 34.953125 C 140.730469 34.847656 141.082031 35.136719 141.085938 35.496094 C 141.101562 36.523438 141.097656 37.625 140.390625 38.445312 C 140.03125 38.855469 139.371094 38.511719 139.363281 38.019531 C 139.355469 37.601562 139.339844 37.183594 139.296875 36.765625 C 138.847656 37.109375 138.433594 37.503906 137.941406 37.832031 C 137.582031 38.070312 137.109375 37.597656 137.347656 37.238281 C 137.851562 36.484375 138.605469 35.796875 139.4375 35.347656 Z M 141.359375 33.039062 C 140.886719 33.015625 136.679688 33.785156 136.636719 33.039062 C 136.59375 32.292969 139.046875 29.699219 140.378906 29.699219 C 141.710938 29.699219 141.832031 33.0625 141.359375 33.039062 Z M 141.359375 33.039062 " fill-opacity="1" fill-rule="nonzero"/></g></svg>