<svg xmlns="http://www.w3.org/2000/svg" xmlns:xlink="http://www.w3.org/1999/xlink" width="500" zoomAndPan="magnify" viewBox="0 0 375 374.999991" height="500" preserveAspectRatio="xMidYMid meet" version="1.0"><defs><clipPath id="97aeaebd2e"><path d="M 14.691406 145.359375 L 375 145.359375 L 375 375 L 14.691406 375 Z M 14.691406 145.359375 " clip-rule="nonzero"/></clipPath><clipPath id="0684f6fceb"><path d="M 583.191406 429.609375 C 583.191406 434.261719 583.078125 438.910156 582.847656 443.558594 C 582.621094 448.203125 582.277344 452.84375 581.820312 457.472656 C 581.367188 462.101562 580.796875 466.71875 580.113281 471.320312 C 579.429688 475.921875 578.636719 480.503906 577.730469 485.066406 C 576.820312 489.628906 575.800781 494.164062 574.671875 498.679688 C 573.542969 503.191406 572.300781 507.671875 570.949219 512.125 C 569.601562 516.574219 568.140625 520.992188 566.574219 525.371094 C 565.007812 529.75 563.332031 534.089844 561.554688 538.386719 C 559.773438 542.6875 557.886719 546.9375 555.898438 551.144531 C 553.910156 555.347656 551.820312 559.503906 549.625 563.605469 C 547.433594 567.707031 545.140625 571.753906 542.75 575.746094 C 540.359375 579.734375 537.871094 583.664062 535.285156 587.53125 C 532.703125 591.398438 530.023438 595.203125 527.253906 598.9375 C 524.480469 602.675781 521.621094 606.339844 518.667969 609.9375 C 515.71875 613.53125 512.679688 617.054688 509.554688 620.5 C 506.433594 623.949219 503.226562 627.316406 499.9375 630.605469 C 496.644531 633.894531 493.277344 637.101562 489.832031 640.226562 C 486.382812 643.351562 482.863281 646.386719 479.265625 649.339844 C 475.671875 652.289062 472.003906 655.152344 468.269531 657.921875 C 464.53125 660.695312 460.730469 663.371094 456.863281 665.957031 C 452.992188 668.539062 449.066406 671.027344 445.074219 673.421875 C 441.085938 675.8125 437.039062 678.105469 432.933594 680.296875 C 428.832031 682.488281 424.679688 684.582031 420.472656 686.570312 C 416.269531 688.558594 412.015625 690.441406 407.71875 692.222656 C 403.421875 694.003906 399.082031 695.675781 394.703125 697.246094 C 390.320312 698.8125 385.90625 700.269531 381.453125 701.621094 C 377.003906 702.972656 372.519531 704.210938 368.007812 705.34375 C 363.496094 706.472656 358.957031 707.492188 354.394531 708.398438 C 349.832031 709.304688 345.25 710.101562 340.648438 710.785156 C 336.046875 711.464844 331.429688 712.035156 326.800781 712.492188 C 322.171875 712.949219 317.535156 713.289062 312.886719 713.519531 C 308.242188 713.746094 303.59375 713.859375 298.941406 713.859375 C 294.289062 713.859375 289.640625 713.746094 284.992188 713.519531 C 280.347656 713.289062 275.707031 712.949219 271.078125 712.492188 C 266.449219 712.035156 261.835938 711.46875 257.234375 710.785156 C 252.632812 710.101562 248.050781 709.304688 243.484375 708.398438 C 238.921875 707.492188 234.386719 706.472656 229.875 705.34375 C 225.359375 704.210938 220.878906 702.972656 216.425781 701.621094 C 211.976562 700.269531 207.558594 698.8125 203.179688 697.246094 C 198.800781 695.675781 194.460938 694.003906 190.164062 692.222656 C 185.863281 690.441406 181.613281 688.558594 177.40625 686.570312 C 173.203125 684.582031 169.050781 682.488281 164.945312 680.296875 C 160.84375 678.105469 156.796875 675.8125 152.808594 673.421875 C 148.816406 671.027344 144.886719 668.539062 141.019531 665.957031 C 137.152344 663.371094 133.351562 660.695312 129.613281 657.921875 C 125.875 655.152344 122.210938 652.289062 118.613281 649.339844 C 115.019531 646.386719 111.496094 643.351562 108.050781 640.226562 C 104.601562 637.101562 101.234375 633.894531 97.945312 630.605469 C 94.65625 627.316406 91.449219 623.949219 88.324219 620.5 C 85.203125 617.054688 82.164062 613.53125 79.210938 609.9375 C 76.261719 606.339844 73.398438 602.675781 70.628906 598.9375 C 67.859375 595.203125 65.179688 591.398438 62.59375 587.53125 C 60.011719 583.664062 57.523438 579.734375 55.132812 575.746094 C 52.738281 571.753906 50.449219 567.707031 48.253906 563.605469 C 46.0625 559.503906 43.972656 555.347656 41.980469 551.144531 C 39.992188 546.9375 38.109375 542.6875 36.328125 538.386719 C 34.546875 534.089844 32.875 529.75 31.308594 525.371094 C 29.738281 520.992188 28.28125 516.574219 26.929688 512.125 C 25.578125 507.671875 24.339844 503.191406 23.210938 498.679688 C 22.078125 494.164062 21.058594 489.628906 20.152344 485.066406 C 19.246094 480.503906 18.449219 475.921875 17.765625 471.320312 C 17.085938 466.71875 16.515625 462.101562 16.058594 457.472656 C 15.601562 452.84375 15.261719 448.203125 15.03125 443.558594 C 14.804688 438.910156 14.691406 434.261719 14.691406 429.609375 C 14.691406 424.957031 14.804688 420.308594 15.03125 415.664062 C 15.261719 411.015625 15.601562 406.378906 16.058594 401.75 C 16.515625 397.121094 17.085938 392.503906 17.765625 387.902344 C 18.449219 383.300781 19.246094 378.71875 20.152344 374.15625 C 21.058594 369.59375 22.078125 365.054688 23.210938 360.542969 C 24.339844 356.03125 25.578125 351.550781 26.929688 347.097656 C 28.28125 342.644531 29.738281 338.230469 31.308594 333.851562 C 32.875 329.46875 34.546875 325.132812 36.328125 320.832031 C 38.109375 316.535156 39.992188 312.285156 41.980469 308.078125 C 43.972656 303.871094 46.0625 299.71875 48.253906 295.617188 C 50.449219 291.511719 52.738281 287.46875 55.132812 283.476562 C 57.523438 279.488281 60.011719 275.558594 62.59375 271.691406 C 65.179688 267.820312 67.859375 264.019531 70.628906 260.285156 C 73.398438 256.546875 76.261719 252.878906 79.210938 249.285156 C 82.164062 245.6875 85.203125 242.167969 88.324219 238.71875 C 91.449219 235.273438 94.65625 231.90625 97.945312 228.617188 C 101.234375 225.328125 104.601562 222.121094 108.050781 218.996094 C 111.496094 215.871094 115.019531 212.832031 118.613281 209.882812 C 122.210938 206.929688 125.875 204.070312 129.613281 201.300781 C 133.351562 198.527344 137.152344 195.851562 141.019531 193.265625 C 144.886719 190.679688 148.816406 188.191406 152.808594 185.800781 C 156.796875 183.410156 160.84375 181.117188 164.945312 178.925781 C 169.050781 176.730469 173.203125 174.640625 177.40625 172.652344 C 181.613281 170.664062 185.863281 168.777344 190.164062 167 C 194.460938 165.21875 198.800781 163.542969 203.179688 161.976562 C 207.558594 160.410156 211.976562 158.949219 216.425781 157.601562 C 220.878906 156.25 225.359375 155.007812 229.875 153.878906 C 234.386719 152.75 238.921875 151.730469 243.484375 150.824219 C 248.050781 149.914062 252.632812 149.121094 257.234375 148.4375 C 261.835938 147.753906 266.449219 147.183594 271.078125 146.730469 C 275.707031 146.273438 280.347656 145.929688 284.992188 145.703125 C 289.640625 145.476562 294.289062 145.359375 298.941406 145.359375 C 303.59375 145.359375 308.242188 145.476562 312.886719 145.703125 C 317.535156 145.929688 322.171875 146.273438 326.800781 146.730469 C 331.433594 147.183594 336.046875 147.753906 340.648438 148.4375 C 345.25 149.121094 349.832031 149.914062 354.394531 150.824219 C 358.957031 151.730469 363.496094 152.75 368.007812 153.878906 C 372.519531 155.007812 377.003906 156.25 381.453125 157.601562 C 385.90625 158.949219 390.320312 160.410156 394.703125 161.976562 C 399.082031 163.542969 403.421875 165.21875 407.71875 167 C 412.015625 168.777344 416.269531 170.664062 420.472656 172.652344 C 424.679688 174.640625 428.832031 176.730469 432.933594 178.925781 C 437.039062 181.117188 441.085938 183.410156 445.074219 185.800781 C 449.066406 188.191406 452.992188 190.679688 456.863281 193.265625 C 460.730469 195.851562 464.53125 198.527344 468.269531 201.300781 C 472.003906 204.070312 475.671875 206.929688 479.265625 209.882812 C 482.863281 212.832031 486.382812 215.871094 489.832031 218.996094 C 493.277344 222.121094 496.644531 225.328125 499.9375 228.617188 C 503.226562 231.90625 506.433594 235.273438 509.554688 238.71875 C 512.679688 242.167969 515.71875 245.6875 518.667969 249.285156 C 521.621094 252.878906 524.480469 256.546875 527.253906 260.285156 C 530.023438 264.019531 532.703125 267.820312 535.285156 271.691406 C 537.871094 275.558594 540.359375 279.488281 542.75 283.476562 C 545.140625 287.46875 547.433594 291.511719 549.625 295.617188 C 551.820312 299.71875 553.910156 303.871094 555.898438 308.078125 C 557.886719 312.285156 559.773438 316.535156 561.554688 320.832031 C 563.332031 325.132812 565.007812 329.46875 566.574219 333.851562 C 568.140625 338.230469 569.601562 342.644531 570.949219 347.097656 C 572.300781 351.550781 573.542969 356.03125 574.671875 360.542969 C 575.800781 365.054688 576.820312 369.59375 577.730469 374.15625 C 578.636719 378.71875 579.429688 383.300781 580.113281 387.902344 C 580.796875 392.503906 581.367188 397.121094 581.820312 401.75 C 582.277344 406.378906 582.621094 411.015625 582.847656 415.664062 C 583.078125 420.308594 583.191406 424.957031 583.191406 429.609375 Z M 583.191406 429.609375 " clip-rule="nonzero"/></clipPath><linearGradient x1="-0.000000010632" gradientTransform="matrix(568.500046, 0, 0, 568.500046, 14.690726, 145.360827)" y1="-0.0000000105277" x2="0.521976" gradientUnits="userSpaceOnUse" y2="0.516859" id="9a35b2e79c"><stop stop-opacity="1" stop-color="rgb(100%, 100%, 96.499634%)" offset="0"/><stop stop-opacity="1" stop-color="rgb(99.841309%, 99.934387%, 96.412659%)" offset="0.0078125"/><stop stop-opacity="1" stop-color="rgb(99.523926%, 99.804688%, 96.24176%)" offset="0.015625"/><stop stop-opacity="1" stop-color="rgb(99.208069%, 99.676514%, 96.069336%)" offset="0.0234375"/><stop stop-opacity="1" stop-color="rgb(98.892212%, 99.546814%, 95.898438%)" offset="0.03125"/><stop stop-opacity="1" stop-color="rgb(98.576355%, 99.417114%, 95.726013%)" offset="0.0390625"/><stop stop-opacity="1" stop-color="rgb(98.260498%, 99.28894%, 95.555115%)" offset="0.046875"/><stop stop-opacity="1" stop-color="rgb(97.944641%, 99.159241%, 95.38269%)" offset="0.0546875"/><stop stop-opacity="1" stop-color="rgb(97.628784%, 99.031067%, 95.211792%)" offset="0.0625"/><stop stop-opacity="1" stop-color="rgb(97.312927%, 98.901367%, 95.039368%)" offset="0.0703125"/><stop stop-opacity="1" stop-color="rgb(96.99707%, 98.771667%, 94.868469%)" offset="0.078125"/><stop stop-opacity="1" stop-color="rgb(96.681213%, 98.643494%, 94.696045%)" offset="0.0859375"/><stop stop-opacity="1" stop-color="rgb(96.363831%, 98.513794%, 94.525146%)" offset="0.09375"/><stop stop-opacity="1" stop-color="rgb(96.047974%, 98.384094%, 94.352722%)" offset="0.101562"/><stop stop-opacity="1" stop-color="rgb(95.732117%, 98.25592%, 94.181824%)" offset="0.109375"/><stop stop-opacity="1" stop-color="rgb(95.41626%, 98.126221%, 94.009399%)" offset="0.117187"/><stop stop-opacity="1" stop-color="rgb(95.100403%, 97.998047%, 93.838501%)" offset="0.125"/><stop stop-opacity="1" stop-color="rgb(94.784546%, 97.868347%, 93.667603%)" offset="0.132812"/><stop stop-opacity="1" stop-color="rgb(94.468689%, 97.738647%, 93.495178%)" offset="0.140625"/><stop stop-opacity="1" stop-color="rgb(94.152832%, 97.610474%, 93.32428%)" offset="0.148437"/><stop stop-opacity="1" stop-color="rgb(93.836975%, 97.480774%, 93.151855%)" offset="0.15625"/><stop stop-opacity="1" stop-color="rgb(93.521118%, 97.351074%, 92.980957%)" offset="0.164062"/><stop stop-opacity="1" stop-color="rgb(93.205261%, 97.2229%, 92.808533%)" offset="0.171875"/><stop stop-opacity="1" stop-color="rgb(92.887878%, 97.093201%, 92.637634%)" offset="0.179687"/><stop stop-opacity="1" stop-color="rgb(92.572021%, 96.965027%, 92.46521%)" offset="0.1875"/><stop stop-opacity="1" stop-color="rgb(92.256165%, 96.835327%, 92.294312%)" offset="0.195312"/><stop stop-opacity="1" stop-color="rgb(91.940308%, 96.705627%, 92.121887%)" offset="0.203125"/><stop stop-opacity="1" stop-color="rgb(91.624451%, 96.577454%, 91.950989%)" offset="0.210937"/><stop stop-opacity="1" stop-color="rgb(91.308594%, 96.447754%, 91.778564%)" offset="0.21875"/><stop stop-opacity="1" stop-color="rgb(90.992737%, 96.318054%, 91.607666%)" offset="0.226562"/><stop stop-opacity="1" stop-color="rgb(90.67688%, 96.18988%, 91.435242%)" offset="0.234375"/><stop stop-opacity="1" stop-color="rgb(90.361023%, 96.060181%, 91.264343%)" offset="0.242187"/><stop stop-opacity="1" stop-color="rgb(90.045166%, 95.932007%, 91.091919%)" offset="0.25"/><stop stop-opacity="1" stop-color="rgb(89.727783%, 95.802307%, 90.921021%)" offset="0.257812"/><stop stop-opacity="1" stop-color="rgb(89.411926%, 95.672607%, 90.748596%)" offset="0.265625"/><stop stop-opacity="1" stop-color="rgb(89.096069%, 95.544434%, 90.577698%)" offset="0.273437"/><stop stop-opacity="1" stop-color="rgb(88.780212%, 95.414734%, 90.405273%)" offset="0.28125"/><stop stop-opacity="1" stop-color="rgb(88.464355%, 95.285034%, 90.234375%)" offset="0.289062"/><stop stop-opacity="1" stop-color="rgb(88.148499%, 95.15686%, 90.061951%)" offset="0.296875"/><stop stop-opacity="1" stop-color="rgb(87.832642%, 95.027161%, 89.891052%)" offset="0.304688"/><stop stop-opacity="1" stop-color="rgb(87.516785%, 94.898987%, 89.718628%)" offset="0.3125"/><stop stop-opacity="1" stop-color="rgb(87.200928%, 94.769287%, 89.547729%)" offset="0.320312"/><stop stop-opacity="1" stop-color="rgb(86.885071%, 94.639587%, 89.375305%)" offset="0.328125"/><stop stop-opacity="1" stop-color="rgb(86.569214%, 94.511414%, 89.204407%)" offset="0.335937"/><stop stop-opacity="1" stop-color="rgb(86.251831%, 94.381714%, 89.031982%)" offset="0.34375"/><stop stop-opacity="1" stop-color="rgb(85.935974%, 94.252014%, 88.861084%)" offset="0.351562"/><stop stop-opacity="1" stop-color="rgb(85.620117%, 94.12384%, 88.690186%)" offset="0.359375"/><stop stop-opacity="1" stop-color="rgb(85.30426%, 93.994141%, 88.517761%)" offset="0.367187"/><stop stop-opacity="1" stop-color="rgb(84.988403%, 93.865967%, 88.346863%)" offset="0.375"/><stop stop-opacity="1" stop-color="rgb(84.672546%, 93.736267%, 88.174438%)" offset="0.382812"/><stop stop-opacity="1" stop-color="rgb(84.356689%, 93.606567%, 88.00354%)" offset="0.386913"/><stop stop-opacity="1" stop-color="rgb(84.199524%, 93.54248%, 87.918091%)" offset="0.390625"/><stop stop-opacity="1" stop-color="rgb(84.040833%, 93.478394%, 87.831116%)" offset="0.398437"/><stop stop-opacity="1" stop-color="rgb(83.724976%, 93.348694%, 87.660217%)" offset="0.40625"/><stop stop-opacity="1" stop-color="rgb(83.409119%, 93.218994%, 87.487793%)" offset="0.414062"/><stop stop-opacity="1" stop-color="rgb(83.091736%, 93.09082%, 87.316895%)" offset="0.421875"/><stop stop-opacity="1" stop-color="rgb(82.775879%, 92.961121%, 87.14447%)" offset="0.429687"/><stop stop-opacity="1" stop-color="rgb(82.460022%, 92.832947%, 86.973572%)" offset="0.4375"/><stop stop-opacity="1" stop-color="rgb(82.144165%, 92.703247%, 86.801147%)" offset="0.445312"/><stop stop-opacity="1" stop-color="rgb(81.828308%, 92.573547%, 86.630249%)" offset="0.453125"/><stop stop-opacity="1" stop-color="rgb(81.512451%, 92.445374%, 86.457825%)" offset="0.460937"/><stop stop-opacity="1" stop-color="rgb(81.196594%, 92.315674%, 86.286926%)" offset="0.46875"/><stop stop-opacity="1" stop-color="rgb(80.880737%, 92.185974%, 86.114502%)" offset="0.476562"/><stop stop-opacity="1" stop-color="rgb(80.56488%, 92.0578%, 85.943604%)" offset="0.484375"/><stop stop-opacity="1" stop-color="rgb(80.249023%, 91.928101%, 85.771179%)" offset="0.492188"/><stop stop-opacity="1" stop-color="rgb(79.933167%, 91.799927%, 85.600281%)" offset="0.5"/><stop stop-opacity="1" stop-color="rgb(79.615784%, 91.670227%, 85.427856%)" offset="0.507812"/><stop stop-opacity="1" stop-color="rgb(79.299927%, 91.540527%, 85.256958%)" offset="0.515625"/><stop stop-opacity="1" stop-color="rgb(78.98407%, 91.412354%, 85.084534%)" offset="0.523438"/><stop stop-opacity="1" stop-color="rgb(78.668213%, 91.282654%, 84.913635%)" offset="0.53125"/><stop stop-opacity="1" stop-color="rgb(78.352356%, 91.152954%, 84.741211%)" offset="0.539062"/><stop stop-opacity="1" stop-color="rgb(78.036499%, 91.02478%, 84.570312%)" offset="0.546875"/><stop stop-opacity="1" stop-color="rgb(77.720642%, 90.895081%, 84.397888%)" offset="0.554688"/><stop stop-opacity="1" stop-color="rgb(77.404785%, 90.766907%, 84.22699%)" offset="0.5625"/><stop stop-opacity="1" stop-color="rgb(77.088928%, 90.637207%, 84.054565%)" offset="0.570312"/><stop stop-opacity="1" stop-color="rgb(76.773071%, 90.507507%, 83.883667%)" offset="0.578125"/><stop stop-opacity="1" stop-color="rgb(76.457214%, 90.379333%, 83.712769%)" offset="0.585938"/><stop stop-opacity="1" stop-color="rgb(76.139832%, 90.249634%, 83.540344%)" offset="0.59375"/><stop stop-opacity="1" stop-color="rgb(75.823975%, 90.119934%, 83.369446%)" offset="0.601562"/><stop stop-opacity="1" stop-color="rgb(75.508118%, 89.99176%, 83.197021%)" offset="0.609375"/><stop stop-opacity="1" stop-color="rgb(75.192261%, 89.862061%, 83.026123%)" offset="0.613087"/><stop stop-opacity="1" stop-color="rgb(75.035095%, 89.797974%, 82.940674%)" offset="0.617188"/><stop stop-opacity="1" stop-color="rgb(74.876404%, 89.733887%, 82.853699%)" offset="0.625"/><stop stop-opacity="1" stop-color="rgb(74.560547%, 89.604187%, 82.6828%)" offset="0.632812"/><stop stop-opacity="1" stop-color="rgb(74.24469%, 89.474487%, 82.510376%)" offset="0.640625"/><stop stop-opacity="1" stop-color="rgb(73.928833%, 89.346313%, 82.339478%)" offset="0.648438"/><stop stop-opacity="1" stop-color="rgb(73.612976%, 89.216614%, 82.167053%)" offset="0.65625"/><stop stop-opacity="1" stop-color="rgb(73.297119%, 89.086914%, 81.996155%)" offset="0.664062"/><stop stop-opacity="1" stop-color="rgb(72.979736%, 88.95874%, 81.82373%)" offset="0.671875"/><stop stop-opacity="1" stop-color="rgb(72.663879%, 88.829041%, 81.652832%)" offset="0.679688"/><stop stop-opacity="1" stop-color="rgb(72.348022%, 88.700867%, 81.480408%)" offset="0.6875"/><stop stop-opacity="1" stop-color="rgb(72.032166%, 88.571167%, 81.309509%)" offset="0.695312"/><stop stop-opacity="1" stop-color="rgb(71.716309%, 88.441467%, 81.137085%)" offset="0.703125"/><stop stop-opacity="1" stop-color="rgb(71.400452%, 88.313293%, 80.966187%)" offset="0.710938"/><stop stop-opacity="1" stop-color="rgb(71.084595%, 88.183594%, 80.793762%)" offset="0.71875"/><stop stop-opacity="1" stop-color="rgb(70.768738%, 88.053894%, 80.622864%)" offset="0.726562"/><stop stop-opacity="1" stop-color="rgb(70.452881%, 87.92572%, 80.450439%)" offset="0.734375"/><stop stop-opacity="1" stop-color="rgb(70.137024%, 87.796021%, 80.279541%)" offset="0.742188"/><stop stop-opacity="1" stop-color="rgb(69.821167%, 87.667847%, 80.107117%)" offset="0.75"/><stop stop-opacity="1" stop-color="rgb(69.503784%, 87.538147%, 79.936218%)" offset="0.757812"/><stop stop-opacity="1" stop-color="rgb(69.187927%, 87.408447%, 79.763794%)" offset="0.765625"/><stop stop-opacity="1" stop-color="rgb(68.87207%, 87.280273%, 79.592896%)" offset="0.773438"/><stop stop-opacity="1" stop-color="rgb(68.556213%, 87.150574%, 79.420471%)" offset="0.78125"/><stop stop-opacity="1" stop-color="rgb(68.240356%, 87.020874%, 79.249573%)" offset="0.789062"/><stop stop-opacity="1" stop-color="rgb(67.9245%, 86.8927%, 79.077148%)" offset="0.796875"/><stop stop-opacity="1" stop-color="rgb(67.608643%, 86.763%, 78.90625%)" offset="0.804688"/><stop stop-opacity="1" stop-color="rgb(67.292786%, 86.634827%, 78.735352%)" offset="0.8125"/><stop stop-opacity="1" stop-color="rgb(66.976929%, 86.505127%, 78.562927%)" offset="0.820312"/><stop stop-opacity="1" stop-color="rgb(66.661072%, 86.375427%, 78.392029%)" offset="0.828125"/><stop stop-opacity="1" stop-color="rgb(66.343689%, 86.247253%, 78.219604%)" offset="0.835938"/><stop stop-opacity="1" stop-color="rgb(66.027832%, 86.117554%, 78.048706%)" offset="0.84375"/><stop stop-opacity="1" stop-color="rgb(65.711975%, 85.987854%, 77.876282%)" offset="0.851562"/><stop stop-opacity="1" stop-color="rgb(65.396118%, 85.85968%, 77.705383%)" offset="0.859375"/><stop stop-opacity="1" stop-color="rgb(65.080261%, 85.72998%, 77.532959%)" offset="0.867188"/><stop stop-opacity="1" stop-color="rgb(64.764404%, 85.601807%, 77.362061%)" offset="0.875"/><stop stop-opacity="1" stop-color="rgb(64.448547%, 85.472107%, 77.189636%)" offset="0.882812"/><stop stop-opacity="1" stop-color="rgb(64.13269%, 85.342407%, 77.018738%)" offset="0.890625"/><stop stop-opacity="1" stop-color="rgb(63.816833%, 85.214233%, 76.846313%)" offset="0.898438"/><stop stop-opacity="1" stop-color="rgb(63.500977%, 85.084534%, 76.675415%)" offset="0.90625"/><stop stop-opacity="1" stop-color="rgb(63.18512%, 84.954834%, 76.502991%)" offset="0.914062"/><stop stop-opacity="1" stop-color="rgb(62.867737%, 84.82666%, 76.332092%)" offset="0.921875"/><stop stop-opacity="1" stop-color="rgb(62.55188%, 84.69696%, 76.159668%)" offset="0.929688"/><stop stop-opacity="1" stop-color="rgb(62.236023%, 84.568787%, 75.98877%)" offset="0.9375"/><stop stop-opacity="1" stop-color="rgb(61.920166%, 84.439087%, 75.816345%)" offset="0.945312"/><stop stop-opacity="1" stop-color="rgb(61.604309%, 84.309387%, 75.645447%)" offset="0.953125"/><stop stop-opacity="1" stop-color="rgb(61.288452%, 84.181213%, 75.473022%)" offset="0.960938"/><stop stop-opacity="1" stop-color="rgb(60.972595%, 84.051514%, 75.302124%)" offset="0.96875"/><stop stop-opacity="1" stop-color="rgb(60.656738%, 83.921814%, 75.1297%)" offset="0.976562"/><stop stop-opacity="1" stop-color="rgb(60.340881%, 83.79364%, 74.958801%)" offset="0.984375"/><stop stop-opacity="1" stop-color="rgb(60.025024%, 83.66394%, 74.786377%)" offset="0.992188"/><stop stop-opacity="1" stop-color="rgb(59.707642%, 83.535767%, 74.615479%)" offset="1"/></linearGradient></defs><g clip-path="url(#97aeaebd2e)"><g clip-path="url(#0684f6fceb)"><path fill="url(#9a35b2e79c)" d="M 14.691406 145.359375 L 14.691406 375 L 375 375 L 375 145.359375 Z M 14.691406 145.359375 " fill-rule="nonzero"/></g></g></svg>