<svg xmlns="http://www.w3.org/2000svg" xmlns:xlink="http://www.w3.org/1999/xlink" width="500" zoomAndPan="magnify" viewBox="0 0 375 374.999991" height="500" preserveAspectRatio="xMidYMid meet" version="1.0">
<defs>
<clipPath id="2d91bbea03">
<path d="M 191 251 L 252 251 L 252 284 L 191 284 Z M 191 251 " clip-rule="nonzero"/>
</clipPath>
<clipPath id="abd472790e"><path d="M 289.820312 0.570312 L 353.820312 321.246094 L 85.363281 374.824219 L 21.367188 54.148438 Z M 289.820312 0.570312 " clip-rule="nonzero"/>
</clipPath>
<clipPath id="e2a3bef9d3">
<path d="M 289.820312 0.570312 L 353.820312 321.246094 L 85.363281 374.824219 L 21.367188 54.148438 Z M 289.820312 0.570312 " clip-rule="nonzero"/>
</clipPath>
<clipPath id="1a3c08149e">
<path d="M 214 249 L 224 249 L 224 264 L 214 264 Z M 214 249 " clip-rule="nonzero"/>
</clipPath>
<clipPath id="e4d05e0914"><path d="M 289.820312 0.570312 L 353.820312 321.246094 L 85.363281 374.824219 L 21.367188 54.148438 Z M 289.820312 0.570312 " clip-rule="nonzero"/></clipPath><clipPath id="dd811ef393"><path d="M 289.820312 0.570312 L 353.820312 321.246094 L 85.363281 374.824219 L 21.367188 54.148438 Z M 289.820312 0.570312 " clip-rule="nonzero"/></clipPath><clipPath id="d98ffb55f6"><path d="M 196 295 L 214 295 L 214 307 L 196 307 Z M 196 295 " clip-rule="nonzero"/></clipPath><clipPath id="f3094c04e0"><path d="M 289.820312 0.570312 L 353.820312 321.246094 L 85.363281 374.824219 L 21.367188 54.148438 Z M 289.820312 0.570312 " clip-rule="nonzero"/></clipPath><clipPath id="e84325af09"><path d="M 289.820312 0.570312 L 353.820312 321.246094 L 85.363281 374.824219 L 21.367188 54.148438 Z M 289.820312 0.570312 " clip-rule="nonzero"/></clipPath><clipPath id="a6634a162b"><path d="M 198 327 L 208 327 L 208 347 L 198 347 Z M 198 327 " clip-rule="nonzero"/></clipPath><clipPath id="5155c596d6"><path d="M 289.820312 0.570312 L 353.820312 321.246094 L 85.363281 374.824219 L 21.367188 54.148438 Z M 289.820312 0.570312 " clip-rule="nonzero"/></clipPath>
<clipPath id="4ea1027874"><path d="M 289.820312 0.570312 L 353.820312 321.246094 L 85.363281 374.824219 L 21.367188 54.148438 Z M 289.820312 0.570312 " clip-rule="nonzero"/></clipPath><clipPath id="41e05a5730"><path d="M 169 286 L 188 286 L 188 296 L 169 296 Z M 169 286 " clip-rule="nonzero"/></clipPath><clipPath id="f85d940f2d"><path d="M 289.820312 0.570312 L 353.820312 321.246094 L 85.363281 374.824219 L 21.367188 54.148438 Z M 289.820312 0.570312 " clip-rule="nonzero"/></clipPath><clipPath id="bcdfac76cc"><path d="M 289.820312 0.570312 L 353.820312 321.246094 L 85.363281 374.824219 L 21.367188 54.148438 Z M 289.820312 0.570312 " clip-rule="nonzero"/></clipPath><clipPath id="b82034015a"><path d="M 217 304 L 238 304 L 238 314 L 217 314 Z M 217 304 " clip-rule="nonzero"/></clipPath><clipPath id="8991e74522"><path d="M 289.820312 0.570312 L 353.820312 321.246094 L 85.363281 374.824219 L 21.367188 54.148438 Z M 289.820312 0.570312 " clip-rule="nonzero"/></clipPath><clipPath id="b6a599a26c"><path d="M 289.820312 0.570312 L 353.820312 321.246094 L 85.363281 374.824219 L 21.367188 54.148438 Z M 289.820312 0.570312 " clip-rule="nonzero"/></clipPath><clipPath id="afdc350367"><path d="M 216 279 L 232 279 L 232 291 L 216 291 Z M 216 279 " clip-rule="nonzero"/></clipPath><clipPath id="8b16c0d69a"><path d="M 289.820312 0.570312 L 353.820312 321.246094 L 85.363281 374.824219 L 21.367188 54.148438 Z M 289.820312 0.570312 " clip-rule="nonzero"/></clipPath><clipPath id="225fbabada"><path d="M 289.820312 0.570312 L 353.820312 321.246094 L 85.363281 374.824219 L 21.367188 54.148438 Z M 289.820312 0.570312 " clip-rule="nonzero"/></clipPath><clipPath id="3d1b7185b2"><path d="M 164 315 L 185 315 L 185 325 L 164 325 Z M 164 315 " clip-rule="nonzero"/></clipPath><clipPath id="2f78458b9d"><path d="M 289.820312 0.570312 L 353.820312 321.246094 L 85.363281 374.824219 L 21.367188 54.148438 Z M 289.820312 0.570312 " clip-rule="nonzero"/></clipPath><clipPath id="819bfd7c91"><path d="M 289.820312 0.570312 L 353.820312 321.246094 L 85.363281 374.824219 L 21.367188 54.148438 Z M 289.820312 0.570312 " clip-rule="nonzero"/></clipPath><clipPath id="8ce5d02578"><path d="M 222 330 L 237 330 L 237 345 L 222 345 Z M 222 330 " clip-rule="nonzero"/></clipPath><clipPath id="cd35892993"><path d="M 289.820312 0.570312 L 353.820312 321.246094 L 85.363281 374.824219 L 21.367188 54.148438 Z M 289.820312 0.570312 " clip-rule="nonzero"/></clipPath><clipPath id="025938a062"><path d="M 289.820312 0.570312 L 353.820312 321.246094 L 85.363281 374.824219 L 21.367188 54.148438 Z M 289.820312 0.570312 " clip-rule="nonzero"/></clipPath><clipPath id="81ace7e542"><path d="M 247 285 L 264 285 L 264 297 L 247 297 Z M 247 285 " clip-rule="nonzero"/></clipPath><clipPath id="f1181cab3a"><path d="M 289.820312 0.570312 L 353.820312 321.246094 L 85.363281 374.824219 L 21.367188 54.148438 Z M 289.820312 0.570312 " clip-rule="nonzero"/></clipPath><clipPath id="a865ab5258"><path d="M 289.820312 0.570312 L 353.820312 321.246094 L 85.363281 374.824219 L 21.367188 54.148438 Z M 289.820312 0.570312 " clip-rule="nonzero"/></clipPath><clipPath id="ef95289037"><path d="M 241 172 L 326 172 L 326 265 L 241 265 Z M 241 172 " clip-rule="nonzero"/></clipPath><clipPath id="8686adb044"><path d="M 289.820312 0.570312 L 353.820312 321.246094 L 85.363281 374.824219 L 21.367188 54.148438 Z M 289.820312 0.570312 " clip-rule="nonzero"/></clipPath><clipPath id="8b98998ca7"><path d="M 289.820312 0.570312 L 353.820312 321.246094 L 85.363281 374.824219 L 21.367188 54.148438 Z M 289.820312 0.570312 " clip-rule="nonzero"/></clipPath><clipPath id="c504e463fa"><path d="M 147 115 L 152 115 L 152 124 L 147 124 Z M 147 115 " clip-rule="nonzero"/></clipPath><clipPath id="382349c314"><path d="M 289.820312 0.570312 L 353.820312 321.246094 L 85.363281 374.824219 L 21.367188 54.148438 Z M 289.820312 0.570312 " clip-rule="nonzero"/></clipPath><clipPath id="1fb0de7bcc"><path d="M 289.820312 0.570312 L 353.820312 321.246094 L 85.363281 374.824219 L 21.367188 54.148438 Z M 289.820312 0.570312 " clip-rule="nonzero"/></clipPath><clipPath id="d92c92a994"><path d="M 117 140 L 126 140 L 126 153 L 117 153 Z M 117 140 " clip-rule="nonzero"/></clipPath><clipPath id="2463130f74"><path d="M 289.820312 0.570312 L 353.820312 321.246094 L 85.363281 374.824219 L 21.367188 54.148438 Z M 289.820312 0.570312 " clip-rule="nonzero"/></clipPath><clipPath id="570b0ef736"><path d="M 289.820312 0.570312 L 353.820312 321.246094 L 85.363281 374.824219 L 21.367188 54.148438 Z M 289.820312 0.570312 " clip-rule="nonzero"/></clipPath><clipPath id="a01ae0ab54"><path d="M 121 157 L 136 157 L 136 176 L 121 176 Z M 121 157 " clip-rule="nonzero"/></clipPath><clipPath id="70ab6ed634"><path d="M 289.820312 0.570312 L 353.820312 321.246094 L 85.363281 374.824219 L 21.367188 54.148438 Z M 289.820312 0.570312 " clip-rule="nonzero"/></clipPath><clipPath id="8d3647b9cb"><path d="M 289.820312 0.570312 L 353.820312 321.246094 L 85.363281 374.824219 L 21.367188 54.148438 Z M 289.820312 0.570312 " clip-rule="nonzero"/></clipPath><clipPath id="81b6008c14"><path d="M 134 129 L 140 129 L 140 139 L 134 139 Z M 134 129 " clip-rule="nonzero"/></clipPath><clipPath id="0da40b8399"><path d="M 289.820312 0.570312 L 353.820312 321.246094 L 85.363281 374.824219 L 21.367188 54.148438 Z M 289.820312 0.570312 " clip-rule="nonzero"/></clipPath><clipPath id="ae20403fad"><path d="M 289.820312 0.570312 L 353.820312 321.246094 L 85.363281 374.824219 L 21.367188 54.148438 Z M 289.820312 0.570312 " clip-rule="nonzero"/></clipPath><clipPath id="fa781ccbae"><path d="M 99 158 L 106 158 L 106 168 L 99 168 Z M 99 158 " clip-rule="nonzero"/></clipPath><clipPath id="ccdfc8e43d"><path d="M 289.820312 0.570312 L 353.820312 321.246094 L 85.363281 374.824219 L 21.367188 54.148438 Z M 289.820312 0.570312 " clip-rule="nonzero"/></clipPath><clipPath id="7fd30cebd2"><path d="M 289.820312 0.570312 L 353.820312 321.246094 L 85.363281 374.824219 L 21.367188 54.148438 Z M 289.820312 0.570312 " clip-rule="nonzero"/></clipPath><clipPath id="62da59cd26"><path d="M 41 28 L 152 28 L 152 157 L 41 157 Z M 41 28 " clip-rule="nonzero"/></clipPath><clipPath id="e9c25997c0"><path d="M 289.820312 0.570312 L 353.820312 321.246094 L 85.363281 374.824219 L 21.367188 54.148438 Z M 289.820312 0.570312 " clip-rule="nonzero"/></clipPath><clipPath id="8a10632b00"><path d="M 289.820312 0.570312 L 353.820312 321.246094 L 85.363281 374.824219 L 21.367188 54.148438 Z M 289.820312 0.570312 " clip-rule="nonzero"/></clipPath><clipPath id="a4ae08b3b7"><path d="M 46 33 L 314 33 L 314 281 L 46 281 Z M 46 33 " clip-rule="nonzero"/></clipPath><clipPath id="4127e433ac"><path d="M 289.820312 0.570312 L 353.820312 321.246094 L 85.363281 374.824219 L 21.367188 54.148438 Z M 289.820312 0.570312 " clip-rule="nonzero"/></clipPath><clipPath id="1137d10647"><path d="M 289.820312 0.570312 L 353.820312 321.246094 L 85.363281 374.824219 L 21.367188 54.148438 Z M 289.820312 0.570312 " clip-rule="nonzero"/></clipPath></defs><rect x="-37.5" width="450" fill="#ffffff" y="-37.499999" height="449.999989" fill-opacity="1"/><rect x="-37.5" width="450" fill="#ffffff" y="-37.499999" height="449.999989" fill-opacity="1"/><rect x="-37.5" width="450" fill="#d9d9d9" y="-37.499999" height="449.999989" fill-opacity="1"/><g clip-path="url(#2d91bbea03)"><g clip-path="url(#abd472790e)"><g clip-path="url(#e2a3bef9d3)"><path fill="#0a9b48" d="M 236.214844 264.554688 L 233.121094 266.550781 L 233.304688 262.867188 C 233.523438 258.542969 230.90625 254.191406 226.75 251.75 C 226.894531 252.769531 226.957031 253.8125 226.855469 254.882812 C 226.28125 261.078125 221.34375 265.703125 219.242188 267.40625 C 218.832031 267.742188 218.585938 267.914062 218.585938 267.914062 L 217.261719 268.859375 L 216.128906 267.683594 C 215.902344 267.449219 211.464844 262.695312 210.546875 256.652344 C 208.84375 259.914062 209.183594 262.9375 209.929688 265.074219 L 210.570312 266.90625 L 208.722656 267.5 C 206.777344 268.125 205.019531 269.308594 203.449219 271.132812 C 201.234375 273.71875 200.257812 276.546875 200.558594 279.5625 L 200.800781 281.957031 L 198.417969 281.621094 C 196.496094 281.351562 194.625 281.523438 192.84375 282.128906 C 192.425781 282.269531 192.046875 282.472656 191.648438 282.65625 C 195.425781 284.292969 198.851562 283.890625 201.851562 281.449219 C 203.847656 279.832031 204.90625 277.894531 204.917969 277.878906 L 205.230469 277.449219 C 208.976562 273.617188 212.945312 273.980469 215.289062 274.699219 C 217.355469 270.3125 222.144531 266.863281 227.121094 266.113281 C 230.921875 265.546875 233.75 267.054688 235.273438 268.183594 C 240.15625 265.328125 246.882812 265.625 251.351562 266.277344 C 251.144531 266.066406 250.972656 265.816406 250.746094 265.621094 C 246.589844 262.042969 240.6875 261.664062 236.214844 264.554688 " fill-opacity="1" fill-rule="nonzero"/></g></g></g><g clip-path="url(#1a3c08149e)"><g clip-path="url(#e4d05e0914)"><g clip-path="url(#dd811ef393)"><path fill="#0a9b48" d="M 214.605469 251.996094 C 214.441406 252.5625 214.226562 253.105469 214.171875 253.699219 C 213.789062 257.777344 216.234375 261.71875 217.738281 263.710938 C 219.550781 262.0625 222.707031 258.628906 223.089844 254.53125 C 223.234375 253.007812 222.988281 251.523438 222.546875 250.144531 C 219.746094 249.636719 217.015625 250.261719 214.605469 251.996094 " fill-opacity="1" fill-rule="nonzero"/></g></g></g><g clip-path="url(#d98ffb55f6)"><g clip-path="url(#f3094c04e0)"><g clip-path="url(#e84325af09)"><path fill="#0a9b48" d="M 206.914062 304.625 C 210.476562 302.554688 212.273438 298.324219 213.035156 295.945312 C 210.601562 295.398438 206.007812 294.804688 202.453125 296.839844 C 198.878906 298.894531 197.078125 303.152344 196.316406 305.523438 C 198.753906 306.066406 203.351562 306.664062 206.914062 304.625 " fill-opacity="1" fill-rule="nonzero"/></g></g></g><g clip-path="url(#a6634a162b)"><g clip-path="url(#5155c596d6)"><g clip-path="url(#4ea1027874)"><path fill="#0a9b48" d="M 198.894531 337.09375 C 198.777344 341.214844 201.46875 344.96875 203.097656 346.859375 C 204.832031 345.058594 207.734375 341.453125 207.855469 337.347656 C 207.96875 333.230469 205.28125 329.476562 203.660156 327.589844 C 201.921875 329.386719 199.011719 332.996094 198.894531 337.09375 " fill-opacity="1" fill-rule="nonzero"/></g></g></g><g clip-path="url(#41e05a5730)"><g clip-path="url(#f85d940f2d)"><g clip-path="url(#bcdfac76cc)"><path fill="#0a9b48" d="M 187.863281 293.757812 C 186.507812 291.660156 183.652344 288 179.699219 286.949219 C 175.710938 285.898438 171.441406 287.664062 169.234375 288.820312 C 170.589844 290.921875 173.4375 294.574219 177.402344 295.621094 C 181.390625 296.675781 185.660156 294.910156 187.863281 293.757812 " fill-opacity="1" fill-rule="nonzero"/></g></g></g><g clip-path="url(#b82034015a)"><g clip-path="url(#8991e74522)"><g clip-path="url(#b6a599a26c)"><path fill="#0a9b48" d="M 217.976562 308.910156 C 219.804688 310.617188 223.464844 313.453125 227.558594 313.511719 C 231.585938 313.554688 235.300781 310.871094 237.246094 309.136719 C 235.421875 307.429688 231.765625 304.582031 227.667969 304.539062 C 223.636719 304.492188 219.921875 307.195312 217.976562 308.910156 " fill-opacity="1" fill-rule="nonzero"/></g></g></g><g clip-path="url(#afdc350367)"><g clip-path="url(#8b16c0d69a)"><g clip-path="url(#225fbabada)"><path fill="#0a9b48" d="M 217.785156 279.019531 C 217.128906 279.035156 216.511719 279.078125 216 279.136719 L 216.023438 279.238281 C 216.527344 281.699219 217.84375 286.054688 221.113281 288.457031 C 224.410156 290.882812 229.042969 290.816406 231.523438 290.550781 C 231.035156 288.101562 229.714844 283.65625 226.417969 281.226562 C 223.785156 279.292969 220.339844 278.949219 217.785156 279.019531 " fill-opacity="1" fill-rule="nonzero"/></g></g></g><g clip-path="url(#3d1b7185b2)"><g clip-path="url(#2f78458b9d)"><g clip-path="url(#819bfd7c91)"><path fill="#0a9b48" d="M 184.222656 319.839844 C 182.398438 318.132812 178.738281 315.28125 174.644531 315.238281 C 170.621094 315.191406 166.914062 317.902344 164.953125 319.605469 C 166.78125 321.308594 170.4375 324.15625 174.535156 324.203125 C 178.566406 324.253906 182.300781 321.550781 184.222656 319.839844 " fill-opacity="1" fill-rule="nonzero"/></g></g></g><g clip-path="url(#8ce5d02578)"><g clip-path="url(#cd35892993)"><g clip-path="url(#025938a062)"><path fill="#0a9b48" d="M 222.820312 330.984375 C 222.902344 333.480469 223.476562 338.078125 226.332031 341.007812 C 229.195312 343.949219 233.78125 344.632812 236.269531 344.78125 C 236.1875 342.285156 235.609375 337.6875 232.753906 334.753906 C 229.875 331.804688 225.3125 331.125 222.820312 330.984375 " fill-opacity="1" fill-rule="nonzero"/></g></g></g><g clip-path="url(#81ace7e542)"><g clip-path="url(#f1181cab3a)"><g clip-path="url(#a865ab5258)"><path fill="#0a9b48" d="M 253.347656 287.214844 C 249.679688 289.203125 247.8125 293.394531 247 295.742188 C 249.421875 296.339844 254.003906 297.054688 257.601562 295.105469 C 261.289062 293.113281 263.136719 288.925781 263.949219 286.578125 C 261.53125 285.972656 256.953125 285.261719 253.347656 287.214844 " fill-opacity="1" fill-rule="nonzero"/></g></g></g><g clip-path="url(#ef95289037)"><g clip-path="url(#8686adb044)"><g clip-path="url(#8b98998ca7)"><path fill="#0a9b48" d="M 245.746094 253.671875 L 244.527344 255.089844 L 241.226562 258.933594 C 244.230469 258.632812 247.273438 259.210938 249.988281 260.597656 C 251.058594 261.148438 252.097656 261.800781 253.035156 262.609375 C 253.472656 262.980469 253.820312 263.394531 254.199219 263.789062 C 254.480469 264.082031 254.800781 264.355469 255.050781 264.65625 L 253.800781 260.730469 L 254.769531 260.886719 L 260.476562 261.808594 L 258.425781 255.359375 L 265.101562 256.4375 L 263.046875 249.996094 L 269.722656 251.066406 L 267.671875 244.617188 L 274.339844 245.695312 L 272.289062 239.253906 L 278.960938 240.335938 L 276.898438 233.894531 L 283.578125 234.972656 L 281.53125 228.519531 L 288.199219 229.597656 L 286.136719 223.152344 L 292.800781 224.234375 L 290.742188 217.800781 L 297.40625 218.890625 L 295.339844 212.457031 L 302.027344 213.539062 L 299.96875 207.09375 L 306.644531 208.175781 L 304.589844 201.734375 L 311.265625 202.804688 L 309.214844 196.359375 L 315.878906 197.4375 L 313.820312 190.996094 L 320.5 192.074219 L 318.445312 185.628906 L 325.117188 186.707031 L 323.070312 180.265625 L 325.425781 180.648438 L 315.769531 172.332031 L 246.980469 252.238281 L 245.746094 253.671875 " fill-opacity="1" fill-rule="nonzero"/></g></g></g><g clip-path="url(#c504e463fa)"><g clip-path="url(#382349c314)"><g clip-path="url(#1fb0de7bcc)"><path fill="#0a9b48" d="M 147.046875 119.320312 C 147.023438 120.074219 147.078125 120.769531 147.230469 121.433594 C 147.386719 122.09375 147.652344 122.59375 148.042969 122.925781 C 148.59375 123.402344 149.128906 123.6875 149.65625 123.792969 C 150.1875 123.902344 150.574219 123.800781 150.824219 123.511719 C 151.273438 122.988281 151.5625 122.457031 151.683594 121.914062 C 151.804688 121.378906 151.824219 120.847656 151.730469 120.335938 C 151.632812 119.8125 151.449219 119.308594 151.183594 118.8125 C 150.925781 118.324219 150.625 117.859375 150.292969 117.433594 C 149.960938 117.011719 149.609375 116.625 149.257812 116.277344 C 148.898438 115.921875 148.585938 115.636719 148.320312 115.402344 C 147.941406 115.84375 147.644531 116.421875 147.421875 117.128906 C 147.199219 117.839844 147.078125 118.578125 147.046875 119.320312 " fill-opacity="1" fill-rule="nonzero"/></g></g></g><g clip-path="url(#d92c92a994)"><g clip-path="url(#2463130f74)"><g clip-path="url(#570b0ef736)"><path fill="#0a9b48" d="M 120.894531 149.539062 C 121.359375 149.917969 121.84375 150.316406 122.339844 150.71875 C 122.835938 151.128906 123.292969 151.503906 123.695312 151.839844 C 124.101562 152.179688 124.441406 152.453125 124.707031 152.664062 C 124.972656 152.871094 125.109375 152.96875 125.101562 152.945312 C 125.40625 151.800781 125.507812 150.640625 125.40625 149.472656 C 125.308594 148.289062 125.066406 147.171875 124.6875 146.113281 C 124.304688 145.050781 123.835938 144.089844 123.269531 143.21875 C 122.699219 142.347656 122.117188 141.652344 121.503906 141.128906 C 121.265625 140.921875 120.992188 140.734375 120.703125 140.585938 C 120.414062 140.429688 120.105469 140.339844 119.785156 140.3125 C 119.460938 140.292969 119.125 140.359375 118.777344 140.527344 C 118.429688 140.695312 118.070312 140.988281 117.699219 141.414062 C 117.507812 141.632812 117.382812 141.894531 117.304688 142.203125 C 117.234375 142.507812 117.199219 142.835938 117.207031 143.183594 C 117.21875 143.53125 117.261719 143.890625 117.332031 144.257812 C 117.402344 144.628906 117.5 144.992188 117.617188 145.347656 C 117.886719 146.167969 118.253906 147.03125 118.714844 147.921875 C 118.917969 148.03125 119.210938 148.226562 119.605469 148.527344 C 120 148.820312 120.433594 149.164062 120.894531 149.539062 " fill-opacity="1" fill-rule="nonzero"/></g></g></g><g clip-path="url(#a01ae0ab54)"><g clip-path="url(#70ab6ed634)"><g clip-path="url(#8d3647b9cb)">
<path fill="#0a9b48" d="M 132.890625 174.789062 C 133.542969 175.355469 134.046875 175.691406 134.40625 175.792969 C 134.761719 175.894531 135.03125 175.835938 135.222656 175.621094 C 135.554688 175.230469 135.609375 174.664062 135.394531 173.917969 C 135.175781 173.183594 134.789062 172.363281 134.226562 171.457031 C 133.667969 170.550781 133.007812 169.613281 132.242188 168.628906 C 131.476562 167.652344 130.710938 166.730469 129.949219 165.867188 C 129.191406 164.996094 128.488281 164.222656 127.859375 163.550781 C 127.230469 162.878906 126.777344 162.414062 126.511719 162.136719 C 125.953125 161.570312 125.414062 161.039062 124.882812 160.527344 C 124.355469 160.023438 123.871094 159.5625 123.425781 159.160156 C 122.976562 158.757812 122.585938 158.40625 122.246094 158.113281 C 121.902344 157.820312 121.640625 157.59375 121.457031 157.433594 L 121.277344 157.28125 C 122.261719 159.332031 123.289062 161.335938 124.355469 163.269531 C 124.8125 164.089844 125.304688 164.945312 125.828125 165.820312 C 126.347656 166.707031 126.894531 167.578125 127.457031 168.421875 C 128.019531 169.269531 128.601562 170.078125 129.183594 170.851562 C 129.773438 171.617188 130.359375 172.3125 130.957031 172.933594 C 131.742188 173.734375 132.382812 174.351562 132.890625 174.789062 " fill-opacity="1" fill-rule="nonzero"/></g></g></g><g clip-path="url(#81b6008c14)"><g clip-path="url(#0da40b8399)"><g clip-path="url(#ae20403fad)"><path fill="#0a9b48" d="M 134.675781 133.695312 C 134.652344 134.445312 134.710938 135.144531 134.863281 135.804688 C 135.011719 136.46875 135.28125 136.96875 135.667969 137.296875 C 136.222656 137.773438 136.761719 138.066406 137.285156 138.164062 C 137.808594 138.269531 138.203125 138.175781 138.453125 137.886719 C 138.90625 137.359375 139.191406 136.828125 139.308594 136.28125 C 139.4375 135.746094 139.449219 135.214844 139.359375 134.707031 C 139.261719 134.1875 139.082031 133.679688 138.8125 133.1875 C 138.550781 132.699219 138.253906 132.238281 137.917969 131.8125 C 137.585938 131.386719 137.238281 131 136.886719 130.652344 C 136.527344 130.300781 136.214844 130.007812 135.945312 129.78125 C 135.574219 130.21875 135.273438 130.792969 135.046875 131.5 C 134.832031 132.214844 134.710938 132.945312 134.675781 133.695312 " fill-opacity="1" fill-rule="nonzero"/>
</g></g></g><g clip-path="url(#fa781ccbae)"><g clip-path="url(#ccdfc8e43d)"><g clip-path="url(#7fd30cebd2)"><path fill="#0a9b48" d="M 102.09375 165.484375 C 102.476562 165.738281 102.847656 165.964844 103.21875 166.164062 C 103.589844 166.359375 103.941406 166.542969 104.28125 166.699219 C 104.621094 166.855469 104.921875 166.992188 105.164062 167.09375 L 104.53125 158.371094 C 104.40625 158.523438 104.175781 158.597656 103.835938 158.625 C 103.507812 158.640625 103.128906 158.671875 102.707031 158.714844 C 102.292969 158.757812 101.863281 158.855469 101.417969 158.992188 C 100.96875 159.148438 100.578125 159.414062 100.25 159.800781 C 99.839844 160.277344 99.582031 160.742188 99.472656 161.1875 C 99.367188 161.632812 99.363281 162.066406 99.464844 162.46875 C 99.566406 162.878906 99.761719 163.269531 100.046875 163.636719 C 100.332031 164.011719 100.664062 164.355469 101.035156 164.683594 C 101.367188 164.96875 101.71875 165.238281 102.09375 165.484375 " fill-opacity="1" fill-rule="nonzero"/></g></g></g><g clip-path="url(#62da59cd26)"><g clip-path="url(#e9c25997c0)"><g clip-path="url(#8a10632b00)"><path fill="#0a9b48" d="M 149.039062 28.695312 L 149.769531 30.988281 L 143.09375 29.910156 L 145.148438 36.359375 L 138.480469 35.277344 L 140.539062 41.726562 L 133.859375 40.640625 L 135.921875 47.078125 L 129.242188 46 L 131.296875 52.441406 L 124.617188 51.371094 L 126.671875 57.824219 L 120.003906 56.746094 L 122.066406 63.1875 L 115.394531 62.105469 L 117.457031 68.539062 L 110.792969 67.449219 L 112.855469 73.890625 L 106.179688 72.804688 L 108.238281 79.253906 L 101.558594 78.167969 L 103.613281 84.613281 L 96.941406 83.535156 L 99.003906 89.976562 L 92.320312 88.898438 L 94.382812 95.335938 L 87.703125 94.265625 L 89.757812 100.714844 L 83.082031 99.632812 L 85.140625 106.082031 L 78.457031 105.007812 L 80.515625 111.453125 L 73.835938 110.378906 L 75.890625 116.820312 L 69.207031 115.753906 L 71.253906 122.203125 L 64.570312 121.128906 L 66.625 127.578125 L 59.933594 126.511719 L 61.984375 132.964844 L 55.320312 131.894531 L 57.375 138.335938 L 50.683594 137.265625 L 52.738281 143.710938 L 46.046875 142.648438 L 48.089844 149.09375 L 41.40625 148.03125 L 43.453125 154.484375 L 41.5625 154.1875 L 43.847656 156.152344 L 151.628906 30.929688 L 149.039062 28.695312 " fill-opacity="1" fill-rule="nonzero"/>
</g></g></g><g clip-path="url(#a4ae08b3b7)"><g clip-path="url(#4127e433ac)"><g clip-path="url(#1137d10647)"><path fill="#0a9b48" d="M 262.777344 198.730469 C 262.777344 198.730469 245.667969 207.679688 231.183594 201.964844 C 216.691406 196.246094 210.308594 178.011719 210.308594 178.011719 C 210.308594 178.011719 227.40625 169.058594 241.894531 174.78125 C 256.386719 180.503906 262.777344 198.730469 262.777344 198.730469 Z M 164.964844 158.4375 C 164.964844 158.4375 175.570312 142.292969 191.007812 140.253906 C 206.449219 138.210938 220.882812 151.046875 220.882812 151.046875 C 220.882812 151.046875 210.277344 167.179688 194.84375 169.21875 C 179.402344 171.261719 164.964844 158.4375 164.964844 158.4375 Z M 211.054688 204.128906 C 217.242188 218.429688 208.859375 235.824219 208.859375 235.824219 C 208.859375 235.824219 190.441406 230.042969 184.25 215.738281 C 178.058594 201.449219 186.4375 184.046875 186.4375 184.046875 C 186.4375 184.046875 204.863281 189.835938 211.054688 204.128906 Z M 188.023438 280.359375 C 188.191406 280.242188 188.363281 280.160156 188.527344 280.054688 C 189.25 279.609375 189.980469 279.234375 190.738281 278.917969 C 191.035156 278.792969 191.324219 278.652344 191.628906 278.546875 C 193.285156 277.984375 195.003906 277.710938 196.746094 277.714844 C 196.933594 274.488281 198.242188 271.398438 200.589844 268.664062 C 202.125 266.882812 203.910156 265.492188 205.863281 264.570312 C 204.851562 260.027344 206.078125 255.503906 209.390625 251.640625 C 209.988281 250.957031 210.617188 250.332031 211.285156 249.765625 C 212.25 248.941406 213.300781 248.3125 214.375 247.777344 C 215.402344 247.257812 216.46875 246.851562 217.5625 246.601562 C 218.59375 246.363281 219.644531 246.238281 220.707031 246.238281 C 221.449219 246.234375 222.199219 246.273438 222.953125 246.394531 C 223.753906 246.515625 224.558594 246.707031 225.355469 246.964844 C 226.152344 247.222656 226.949219 247.546875 227.726562 247.945312 C 232.382812 250.308594 235.675781 254.59375 236.722656 259.265625 L 242 253.128906 L 243.230469 251.695312 L 244.464844 250.269531 L 313.34375 170.238281 L 154.046875 33.011719 L 46.265625 158.238281 L 186.765625 279.273438 L 188.023438 280.359375 " fill-opacity="1" fill-rule="nonzero"/>
</g>
</g>
</g>
</svg>
