<svg width="438" height="438" xmlns="http://www.w3.org/2000/svg" xmlns:xlink="http://www.w3.org/1999/xlink" xml:space="preserve" overflow="hidden"><defs><clipPath id="clip0"><rect x="257" y="127" width="438" height="438"/></clipPath></defs><g clip-path="url(#clip0)" transform="translate(-257 -127)"><path d="M549 263.875C549 304.192 516.317 336.875 476 336.875 435.683 336.875 403 304.192 403 263.875 403 223.558 435.683 190.875 476 190.875 516.317 190.875 549 223.558 549 263.875Z" fill="#FFFFFF"/><path d="M622 501.125 622 428.125C622 417.175 616.525 406.225 607.4 398.925 587.325 382.5 561.775 371.55 536.225 364.25 517.975 358.775 497.9 355.125 476 355.125 455.925 355.125 435.85 358.775 415.775 364.25 390.225 371.55 364.675 384.325 344.6 398.925 335.475 406.225 330 417.175 330 428.125L330 501.125 622 501.125Z" fill="#FFFFFF"/></g></svg>