<?xml version="1.0" encoding="UTF-8" standalone="no"?>
<!-- Created with Inkscape (http://www.inkscape.org/) -->

<svg
   width="210mm"
   height="297mm"
   viewBox="0 0 210 297"
   version="1.1"
   id="svg5"
   inkscape:version="1.1.2 (0a00cf5339, 2022-02-04)"
   sodipodi:docname="sample-bed-output.svg"
   inkscape:export-filename="/home/user/Documents/github/hackathon/project-stuff/sample-bed-output.png"
   inkscape:export-xdpi="96"
   inkscape:export-ydpi="96"
   xmlns:inkscape="http://www.inkscape.org/namespaces/inkscape"
   xmlns:sodipodi="http://sodipodi.sourceforge.net/DTD/sodipodi-0.dtd"
   xmlns="http://www.w3.org/2000/svg"
   xmlns:svg="http://www.w3.org/2000/svg">
  <sodipodi:namedview
     id="namedview7"
     pagecolor="#ffffff"
     bordercolor="#666666"
     borderopacity="1.0"
     inkscape:pageshadow="2"
     inkscape:pageopacity="0.0"
     inkscape:pagecheckerboard="0"
     inkscape:document-units="mm"
     showgrid="false"
     inkscape:zoom="1.0633188"
     inkscape:cx="222.41683"
     inkscape:cy="215.83367"
     inkscape:window-width="1920"
     inkscape:window-height="1016"
     inkscape:window-x="1200"
     inkscape:window-y="732"
     inkscape:window-maximized="1"
     inkscape:current-layer="layer3" />
  <defs
     id="defs2" />
  <g
     inkscape:groupmode="layer"
     id="layer3"
     inkscape:label="background color">
    <rect
       style="fill:#ffffff;stroke:none;stroke-width:2.365"
       id="rect54"
       width="238.44585"
       height="111.27841"
       x="-21.433397"
       y="-17.794319"
       inkscape:export-filename="/home/user/Documents/github/hackathon/project-stuff/sample-bed-output-white.png"
       inkscape:export-xdpi="96"
       inkscape:export-ydpi="96" />
  </g>
  <g
     inkscape:groupmode="layer"
     id="layer2"
     inkscape:label="Layer 2">
    <rect
       style="display:inline;fill:none;stroke:#c8beb7;stroke-width:2.75293;stroke-miterlimit:4;stroke-dasharray:none"
       id="rect31"
       width="188.96559"
       height="78.686554"
       x="7.4329314"
       y="6.1106668" />
  </g>
  <g
     inkscape:label="Layer 1"
     inkscape:groupmode="layer"
     id="layer1"
     style="display:inline">
    <path
       d="m 23.017949,34.358588 c -1.01561,-0.495275 -2.20658,-0.20235 -2.91191,0.632101 l 1.06513,1.0659 c 0.12044,0.120446 0.12044,0.314702 0,0.435148 -0.0602,0.05781 -0.14003,0.08874 -0.2195,0.08874 -0.0795,0 -0.15548,-0.03093 -0.21565,-0.08874 l -0.95374,-0.969158 -2.46867,5.064519 c -0.0554,0.115629 -0.0578,0.255347 0,0.378298 0.106,0.214298 0.36616,0.303524 0.57815,0.200037 l 2.57465,-1.257458 -0.94622,-0.949309 c -0.1229,-0.118036 -0.1229,-0.315664 0,-0.433605 0.12045,-0.120447 0.31547,-0.120447 0.4336,0 l 1.09809,1.098083 1.96568,-0.961449 c 0.46251,-0.224126 0.85758,-0.602423 1.10097,-1.100975 0.58181,-1.188273 0.0885,-2.620136 -1.10058,-3.202132 z m 1.77297,-0.670645 c 0.37578,-0.786273 0.18307,-1.713611 -0.59935,-2.347254 -0.96839,0.80458 -1.01194,2.071674 -0.15176,2.927323 l 0.15417,0.154171 c 0.87251,0.859504 2.14249,0.817106 2.94419,-0.152244 -0.63403,-0.765074 -1.57833,-0.957788 -2.34725,-0.581996 z"
       id="path1242"
       style="stroke-width:0.0192713;fill:#ff6600" />
    <path
       d="m 40.895202,35.053964 c -1.01561,-0.495275 -2.20658,-0.20235 -2.91191,0.632101 l 1.06513,1.0659 c 0.12044,0.120446 0.12044,0.314702 0,0.435148 -0.0602,0.05781 -0.14003,0.08874 -0.2195,0.08874 -0.0795,0 -0.15548,-0.03093 -0.21565,-0.08874 l -0.95374,-0.969158 -2.46867,5.064519 c -0.0554,0.115629 -0.0578,0.255347 0,0.378298 0.106,0.214298 0.36616,0.303524 0.57815,0.200037 l 2.57465,-1.257458 -0.94622,-0.949309 c -0.1229,-0.118036 -0.1229,-0.315664 0,-0.433605 0.12045,-0.120447 0.31547,-0.120447 0.4336,0 l 1.09809,1.098083 1.96568,-0.961449 c 0.46251,-0.224126 0.85758,-0.602423 1.10097,-1.100975 0.58181,-1.188273 0.0885,-2.620136 -1.10058,-3.202132 z m 1.77297,-0.670645 c 0.37578,-0.786273 0.18307,-1.713611 -0.59935,-2.347254 -0.96839,0.80458 -1.01194,2.071674 -0.15176,2.927323 l 0.15417,0.154171 c 0.87251,0.859504 2.14249,0.817106 2.94419,-0.152244 -0.63403,-0.765074 -1.57833,-0.957788 -2.34725,-0.581996 z"
       id="path1242-5"
       style="stroke-width:0.0192713;fill:#ff6600" />
    <path
       d="m 21.919745,49.940147 c -1.01561,-0.495275 -2.20658,-0.20235 -2.91191,0.632101 l 1.06513,1.0659 c 0.12044,0.120446 0.12044,0.314702 0,0.435148 -0.0602,0.05781 -0.14003,0.08874 -0.2195,0.08874 -0.0795,0 -0.15548,-0.03093 -0.21565,-0.08874 l -0.95374,-0.969158 -2.46867,5.064519 c -0.0554,0.115629 -0.0578,0.255347 0,0.378298 0.106,0.214298 0.36616,0.303524 0.57815,0.200037 l 2.57465,-1.257458 -0.94622,-0.949309 c -0.1229,-0.118036 -0.1229,-0.315664 0,-0.433605 0.12045,-0.120447 0.31547,-0.120447 0.4336,0 l 1.09809,1.098083 1.96568,-0.961449 c 0.46251,-0.224126 0.85758,-0.602423 1.10097,-1.100975 0.58181,-1.188273 0.0885,-2.620136 -1.10058,-3.202132 z m 1.77297,-0.670645 c 0.37578,-0.786273 0.18307,-1.713611 -0.59935,-2.347254 -0.96839,0.80458 -1.01194,2.071674 -0.15176,2.927323 l 0.15417,0.154171 c 0.87251,0.859504 2.14249,0.817106 2.94419,-0.152244 -0.63403,-0.765074 -1.57833,-0.957788 -2.34725,-0.581996 z"
       id="path1242-1"
       style="display:inline;stroke-width:0.0192713;fill:#ff6600" />
    <path
       d="m 39.796998,50.635523 c -1.01561,-0.495275 -2.20658,-0.20235 -2.91191,0.632101 l 1.06513,1.0659 c 0.12044,0.120446 0.12044,0.314702 0,0.435148 -0.0602,0.05781 -0.14003,0.08874 -0.2195,0.08874 -0.0795,0 -0.15548,-0.03093 -0.21565,-0.08874 l -0.95374,-0.969158 -2.46867,5.064519 c -0.0554,0.115629 -0.0578,0.255347 0,0.378298 0.106,0.214298 0.36616,0.303524 0.57815,0.200037 l 2.57465,-1.257458 -0.94622,-0.949309 c -0.1229,-0.118036 -0.1229,-0.315664 0,-0.433605 0.12045,-0.120447 0.31547,-0.120447 0.4336,0 l 1.09809,1.098083 1.96568,-0.961449 c 0.46251,-0.224126 0.85758,-0.602423 1.10097,-1.100975 0.58181,-1.188273 0.0885,-2.620136 -1.10058,-3.202132 z m 1.77297,-0.670645 c 0.37578,-0.786273 0.18307,-1.713611 -0.59935,-2.347254 -0.96839,0.80458 -1.01194,2.071674 -0.15176,2.927323 l 0.15417,0.154171 c 0.87251,0.859504 2.14249,0.817106 2.94419,-0.152244 -0.63403,-0.765074 -1.57833,-0.957788 -2.34725,-0.581996 z"
       id="path1242-5-8"
       style="display:inline;stroke-width:0.0192713;fill:#ff6600" />
    <path
       d="m 81.478251,35.717762 c -1.01561,-0.495275 -2.20658,-0.20235 -2.91191,0.632101 l 1.06513,1.0659 c 0.12044,0.120446 0.12044,0.314702 0,0.435148 -0.0602,0.05781 -0.14003,0.08874 -0.2195,0.08874 -0.0795,0 -0.15548,-0.03093 -0.21565,-0.08874 l -0.95374,-0.969158 -2.46867,5.064519 c -0.0554,0.115629 -0.0578,0.255347 0,0.378298 0.106,0.214298 0.36616,0.303524 0.57815,0.200037 l 2.57465,-1.257458 -0.94622,-0.949309 c -0.1229,-0.118036 -0.1229,-0.315664 0,-0.433605 0.12045,-0.120447 0.31547,-0.120447 0.4336,0 l 1.09809,1.098083 1.96568,-0.961449 c 0.46251,-0.224126 0.85758,-0.602423 1.10097,-1.100975 0.58181,-1.188273 0.0885,-2.620136 -1.10058,-3.202132 z m 1.77297,-0.670645 c 0.37578,-0.786273 0.18307,-1.713611 -0.59935,-2.347254 -0.96839,0.80458 -1.01194,2.071674 -0.15176,2.927323 l 0.15417,0.154171 c 0.87251,0.859504 2.14249,0.817106 2.94419,-0.152244 -0.63403,-0.765074 -1.57833,-0.957788 -2.34725,-0.581996 z"
       id="path1242-56"
       style="display:inline;stroke-width:0.0192713;fill:#ff6600" />
    <path
       d="m 100.70125,35.826728 c -1.015614,-0.495275 -2.206584,-0.20235 -2.911914,0.632101 l 1.06513,1.0659 c 0.12044,0.120446 0.12044,0.314702 0,0.435148 -0.0602,0.05781 -0.14003,0.08874 -0.2195,0.08874 -0.0795,0 -0.15548,-0.03093 -0.21565,-0.08874 l -0.95374,-0.969158 -2.46867,5.064519 c -0.0554,0.115629 -0.0578,0.255347 0,0.378298 0.106,0.214298 0.36616,0.303524 0.57815,0.200037 l 2.57465,-1.257458 -0.94622,-0.949309 c -0.1229,-0.118036 -0.1229,-0.315664 0,-0.433605 0.12045,-0.120447 0.31547,-0.120447 0.4336,0 l 1.09809,1.098083 1.965684,-0.961449 c 0.46251,-0.224126 0.85758,-0.602423 1.10097,-1.100975 0.58181,-1.188273 0.0885,-2.620136 -1.10058,-3.202132 z m 1.77297,-0.670645 c 0.37578,-0.786273 0.18307,-1.713611 -0.59935,-2.347254 -0.96839,0.80458 -1.01194,2.071674 -0.15176,2.927323 l 0.15417,0.154171 c 0.87251,0.859504 2.14249,0.817106 2.94419,-0.152244 -0.63403,-0.765074 -1.57833,-0.957788 -2.34725,-0.581996 z"
       id="path1242-5-2"
       style="display:inline;stroke-width:0.0192713;fill:#ff6600" />
    <path
       d="m 120.46985,36.018633 c -1.01561,-0.495275 -2.20658,-0.20235 -2.91191,0.632101 l 1.06513,1.0659 c 0.12044,0.120446 0.12044,0.314702 0,0.435148 -0.0602,0.05781 -0.14003,0.08874 -0.2195,0.08874 -0.0795,0 -0.15548,-0.03093 -0.21565,-0.08874 l -0.95374,-0.969158 -2.46867,5.064519 c -0.0554,0.115629 -0.0578,0.255347 0,0.378298 0.106,0.214298 0.36616,0.303524 0.57815,0.200037 l 2.57465,-1.257458 -0.94622,-0.949309 c -0.1229,-0.118036 -0.1229,-0.315664 0,-0.433605 0.12045,-0.120447 0.31547,-0.120447 0.4336,0 l 1.09809,1.098083 1.96568,-0.961449 c 0.46251,-0.224126 0.85758,-0.602423 1.10097,-1.100975 0.58181,-1.188273 0.0885,-2.620136 -1.10058,-3.202132 z m 1.77297,-0.670645 c 0.37578,-0.786273 0.18307,-1.713611 -0.59935,-2.347254 -0.96839,0.80458 -1.01194,2.071674 -0.15176,2.927323 l 0.15417,0.154171 c 0.87251,0.859504 2.14249,0.817106 2.94419,-0.152244 -0.63403,-0.765074 -1.57833,-0.957788 -2.34725,-0.581996 z"
       id="path1242-3-9"
       style="display:inline;stroke-width:0.0192713;fill:#ff6600" />
    <path
       d="m 161.52468,37.259857 c -1.01561,-0.495275 -2.20658,-0.20235 -2.91191,0.632101 l 1.06513,1.0659 c 0.12044,0.120446 0.12044,0.314702 0,0.435148 -0.0602,0.05781 -0.14003,0.08874 -0.2195,0.08874 -0.0795,0 -0.15548,-0.03093 -0.21565,-0.08874 l -0.95374,-0.969158 -2.46867,5.064519 c -0.0554,0.115629 -0.0578,0.255347 0,0.378298 0.106,0.214298 0.36616,0.303524 0.57815,0.200037 l 2.57465,-1.257458 -0.94622,-0.949309 c -0.1229,-0.118036 -0.1229,-0.315664 0,-0.433605 0.12045,-0.120447 0.31547,-0.120447 0.4336,0 l 1.09809,1.098083 1.96568,-0.961449 c 0.46251,-0.224126 0.85758,-0.602423 1.10097,-1.100975 0.58181,-1.188273 0.0885,-2.620136 -1.10058,-3.202132 z m 1.77297,-0.670645 c 0.37578,-0.786273 0.18307,-1.713611 -0.59935,-2.347254 -0.96839,0.80458 -1.01194,2.071674 -0.15176,2.927323 l 0.15417,0.154171 c 0.87251,0.859504 2.14249,0.817106 2.94419,-0.152244 -0.63403,-0.765074 -1.57833,-0.957788 -2.34725,-0.581996 z"
       id="path1242-5-27"
       style="display:inline;stroke-width:0.0192713;fill:#ff6600" />
    <path
       d="m 182.58984,37.488364 c -1.01561,-0.495275 -2.20658,-0.20235 -2.91191,0.632101 l 1.06513,1.0659 c 0.12044,0.120446 0.12044,0.314702 0,0.435148 -0.0602,0.05781 -0.14003,0.08874 -0.2195,0.08874 -0.0795,0 -0.15548,-0.03093 -0.21565,-0.08874 l -0.95374,-0.969158 -2.46867,5.064519 c -0.0554,0.115629 -0.0578,0.255347 0,0.378298 0.106,0.214298 0.36616,0.303524 0.57815,0.200037 l 2.57465,-1.257458 -0.94622,-0.949309 c -0.1229,-0.118036 -0.1229,-0.315664 0,-0.433605 0.12045,-0.120447 0.31547,-0.120447 0.4336,0 l 1.09809,1.098083 1.96568,-0.961449 c 0.46251,-0.224126 0.85758,-0.602423 1.10097,-1.100975 0.58181,-1.188273 0.0885,-2.620136 -1.10058,-3.202132 z m 1.77297,-0.670645 c 0.37578,-0.786273 0.18307,-1.713611 -0.59935,-2.347254 -0.96839,0.80458 -1.01194,2.071674 -0.15176,2.927323 l 0.15417,0.154171 c 0.87251,0.859504 2.14249,0.817106 2.94419,-0.152244 -0.63403,-0.765074 -1.57833,-0.957788 -2.34725,-0.581996 z"
       id="path1242-3-0"
       style="display:inline;stroke-width:0.0192713;fill:#ff6600" />
    <path
       d="m 161.62123,52.915761 c -1.01561,-0.495275 -2.20658,-0.20235 -2.91191,0.632101 l 1.06513,1.0659 c 0.12044,0.120446 0.12044,0.314702 0,0.435148 -0.0602,0.05781 -0.14003,0.08874 -0.2195,0.08874 -0.0795,0 -0.15548,-0.03093 -0.21565,-0.08874 l -0.95374,-0.969158 -2.46867,5.064519 c -0.0554,0.115629 -0.0578,0.255347 0,0.378298 0.106,0.214298 0.36616,0.303524 0.57815,0.200037 l 2.57465,-1.257458 -0.94622,-0.949309 c -0.1229,-0.118036 -0.1229,-0.315664 0,-0.433605 0.12045,-0.120447 0.31547,-0.120447 0.4336,0 l 1.09809,1.098083 1.96568,-0.961449 c 0.46251,-0.224126 0.85758,-0.602423 1.10097,-1.100975 0.58181,-1.188273 0.0885,-2.620136 -1.10058,-3.202132 z m 1.77297,-0.670645 c 0.37578,-0.786273 0.18307,-1.713611 -0.59935,-2.347254 -0.96839,0.80458 -1.01194,2.071674 -0.15176,2.927323 l 0.15417,0.154171 c 0.87251,0.859504 2.14249,0.817106 2.94419,-0.152244 -0.63403,-0.765074 -1.57833,-0.957788 -2.34725,-0.581996 z"
       id="path1242-5-27-2"
       style="display:inline;stroke-width:0.0192713;fill:#ff6600" />
    <path
       d="m 182.68639,53.144268 c -1.01561,-0.495275 -2.20658,-0.20235 -2.91191,0.632101 l 1.06513,1.0659 c 0.12044,0.120446 0.12044,0.314702 0,0.435148 -0.0602,0.05781 -0.14003,0.08874 -0.2195,0.08874 -0.0795,0 -0.15548,-0.03093 -0.21565,-0.08874 l -0.95374,-0.969158 -2.46867,5.064519 c -0.0554,0.115629 -0.0578,0.255347 0,0.378298 0.106,0.214298 0.36616,0.303524 0.57815,0.200037 l 2.57465,-1.257458 -0.94622,-0.949309 c -0.1229,-0.118036 -0.1229,-0.315664 0,-0.433605 0.12045,-0.120447 0.31547,-0.120447 0.4336,0 l 1.09809,1.098083 1.96568,-0.961449 c 0.46251,-0.224126 0.85758,-0.602423 1.10097,-1.100975 0.58181,-1.188273 0.0885,-2.620136 -1.10058,-3.202132 z m 1.77297,-0.670645 c 0.37578,-0.786273 0.18307,-1.713611 -0.59935,-2.347254 -0.96839,0.80458 -1.01194,2.071674 -0.15176,2.927323 l 0.15417,0.154171 c 0.87251,0.859504 2.14249,0.817106 2.94419,-0.152244 -0.63403,-0.765074 -1.57833,-0.957788 -2.34725,-0.581996 z"
       id="path1242-3-0-0"
       style="display:inline;stroke-width:0.0192713;fill:#ff6600" />
    <path
       d="m 39.75857,13.966056 c 0.413564,-0.739636 0.382922,-1.679887 -0.108885,-2.372308 -0.145325,-0.208709 -0.429937,-0.260742 -0.639808,-0.114433 -0.20755,0.146039 -0.259002,0.43457 -0.113619,0.643856 0.277697,0.400075 0.291576,0.919053 0.07898,1.344565 -0.33247,-0.158835 -0.700555,-0.255192 -1.08598,-0.255192 -0.6982,0 -1.328377,0.266524 -1.816135,0.692228 l 1.507796,0.664478 v 1.74406 h 1.745211 l 0.646171,1.507601 c 0.426087,-0.488144 0.692037,-1.118319 0.692037,-1.833288 0,-0.792053 -0.352669,-1.512802 -0.905759,-2.021567 z m -2.794345,2.963938 v -1.954117 l -1.020427,-0.437269 c -0.979945,1.491413 -1.513761,4.549781 -4.067222,4.549781 -0.594908,0 -1.079197,0.483712 -1.079197,1.079198 0,0.595485 0.484289,1.079198 1.079197,1.079198 3.474627,0 6.168771,-1.701085 7.502352,-3.247228 l -0.458662,-1.069563 z"
       id="path1251"
       style="stroke-width:0.0192713;fill:#d40000" />
    <path
       d="m 82.293153,14.145415 c 0.413564,-0.739636 0.382922,-1.679887 -0.108885,-2.372308 -0.145325,-0.208709 -0.429937,-0.260742 -0.639808,-0.114433 -0.20755,0.146039 -0.259002,0.43457 -0.113619,0.643856 0.277697,0.400075 0.291576,0.919053 0.07898,1.344565 -0.33247,-0.158835 -0.700555,-0.255192 -1.08598,-0.255192 -0.6982,0 -1.328377,0.266524 -1.816135,0.692228 l 1.507796,0.664478 v 1.74406 h 1.745211 l 0.646171,1.507601 c 0.426087,-0.488144 0.692037,-1.118319 0.692037,-1.833288 0,-0.792053 -0.352669,-1.512802 -0.905759,-2.021567 z m -2.794345,2.963938 v -1.954117 l -1.020427,-0.437269 c -0.979945,1.491413 -1.513761,4.549781 -4.067222,4.549781 -0.594908,0 -1.079197,0.483712 -1.079197,1.079198 0,0.595485 0.484289,1.079198 1.079197,1.079198 3.474627,0 6.168771,-1.701085 7.502352,-3.247228 l -0.458662,-1.069563 z"
       id="path1251-6"
       style="stroke-width:0.0192713;fill:#d40000" />
    <path
       d="m 125.03818,14.450054 c 0.41357,-0.739636 0.38292,-1.679887 -0.10888,-2.372308 -0.14533,-0.208709 -0.42994,-0.260742 -0.63981,-0.114433 -0.20755,0.146039 -0.259,0.43457 -0.11362,0.643856 0.2777,0.400075 0.29158,0.919053 0.079,1.344565 -0.33247,-0.158835 -0.70055,-0.255192 -1.08598,-0.255192 -0.6982,0 -1.32838,0.266524 -1.81613,0.692228 l 1.50779,0.664478 v 1.74406 h 1.74521 l 0.64617,1.507601 c 0.42609,-0.488144 0.69204,-1.118319 0.69204,-1.833288 0,-0.792053 -0.35267,-1.512802 -0.90576,-2.021567 z m -2.79434,2.963938 v -1.954117 l -1.02043,-0.437269 c -0.97994,1.491413 -1.51376,4.549781 -4.06722,4.549781 -0.59491,0 -1.0792,0.483712 -1.0792,1.079198 0,0.595485 0.48429,1.079198 1.0792,1.079198 3.47463,0 6.16877,-1.701085 7.50235,-3.247228 l -0.45866,-1.069563 z"
       id="path1251-9"
       style="display:inline;stroke-width:0.0192713;fill:#d40000" />
    <path
       d="m 174.40669,13.981008 c 0.41356,-0.739636 0.38292,-1.679887 -0.10888,-2.372308 -0.14533,-0.208709 -0.42994,-0.260742 -0.63981,-0.114433 -0.20755,0.146039 -0.259,0.43457 -0.11362,0.643856 0.2777,0.400075 0.29158,0.919053 0.079,1.344565 -0.33247,-0.158835 -0.70056,-0.255192 -1.08598,-0.255192 -0.6982,0 -1.32838,0.266524 -1.81614,0.692228 l 1.5078,0.664478 v 1.74406 h 1.74521 l 0.64617,1.507601 c 0.42609,-0.488144 0.69204,-1.118319 0.69204,-1.833288 0,-0.792053 -0.35267,-1.512802 -0.90576,-2.021567 z m -2.79434,2.963938 v -1.954117 l -1.02043,-0.437269 c -0.97995,1.491413 -1.51376,4.549781 -4.06722,4.549781 -0.59491,0 -1.0792,0.483712 -1.0792,1.079198 0,0.595485 0.48429,1.079198 1.0792,1.079198 3.47462,0 6.16877,-1.701085 7.50235,-3.247228 l -0.45866,-1.069563 z"
       id="path1251-6-3"
       style="display:inline;stroke-width:0.0192713;fill:#d40000" />
    <path
       d="m 34.400803,66.897643 c 0.413564,-0.739636 0.382922,-1.679887 -0.108885,-2.372308 -0.145325,-0.208709 -0.429937,-0.260742 -0.639808,-0.114433 -0.20755,0.146039 -0.259002,0.43457 -0.113619,0.643856 0.277697,0.400075 0.291576,0.919053 0.07898,1.344565 -0.33247,-0.158835 -0.700555,-0.255192 -1.08598,-0.255192 -0.6982,0 -1.328377,0.266524 -1.816135,0.692228 l 1.507796,0.664478 v 1.74406 h 1.745211 l 0.646171,1.507601 c 0.426087,-0.488144 0.692037,-1.118319 0.692037,-1.833288 0,-0.792053 -0.352669,-1.512802 -0.905759,-2.021567 z m -2.794345,2.963938 v -1.954117 l -1.020427,-0.437269 c -0.979945,1.491413 -1.513761,4.549781 -4.067222,4.549781 -0.594908,0 -1.079197,0.483712 -1.079197,1.079198 0,0.595485 0.484289,1.079198 1.079197,1.079198 3.474627,0 6.168771,-1.701085 7.502352,-3.247228 l -0.458662,-1.069563 z"
       id="path1251-0"
       style="display:inline;stroke-width:0.0192713;fill:#d40000" />
    <path
       d="m 74.012873,66.5504 c 0.413564,-0.739636 0.382922,-1.679887 -0.108885,-2.372308 -0.145325,-0.208709 -0.429937,-0.260742 -0.639808,-0.114433 -0.20755,0.146039 -0.259002,0.43457 -0.113619,0.643856 0.277697,0.400075 0.291576,0.919053 0.07898,1.344565 -0.33247,-0.158835 -0.700555,-0.255192 -1.08598,-0.255192 -0.6982,0 -1.328377,0.266524 -1.816135,0.692228 l 1.507796,0.664478 v 1.74406 h 1.745211 l 0.646171,1.507601 c 0.426087,-0.488144 0.692037,-1.118319 0.692037,-1.833288 0,-0.792053 -0.352669,-1.512802 -0.905759,-2.021567 z m -2.794345,2.963938 v -1.954117 l -1.020427,-0.437269 c -0.979945,1.491413 -1.513761,4.549781 -4.067222,4.549781 -0.594908,0 -1.079197,0.483712 -1.079197,1.079198 0,0.595485 0.484289,1.079198 1.079197,1.079198 3.474627,0 6.168771,-1.701085 7.502352,-3.247228 l -0.458662,-1.069563 z"
       id="path1251-6-6"
       style="display:inline;stroke-width:0.0192713;fill:#d40000" />
    <path
       d="m 126.60206,69.451815 c 0.41357,-0.739636 0.38292,-1.679887 -0.10888,-2.372308 -0.14533,-0.208709 -0.42994,-0.260742 -0.63981,-0.114433 -0.20755,0.146039 -0.259,0.43457 -0.11362,0.643856 0.2777,0.400075 0.29158,0.919053 0.079,1.344565 -0.33247,-0.158835 -0.70055,-0.255192 -1.08598,-0.255192 -0.6982,0 -1.32838,0.266524 -1.81613,0.692228 l 1.50779,0.664478 v 1.74406 h 1.74521 l 0.64617,1.507601 c 0.42609,-0.488144 0.69204,-1.118319 0.69204,-1.833288 0,-0.792053 -0.35267,-1.512802 -0.90576,-2.021567 z m -2.79434,2.963938 v -1.954117 l -1.02043,-0.437269 c -0.97994,1.491413 -1.51376,4.549781 -4.06722,4.549781 -0.59491,0 -1.0792,0.483712 -1.0792,1.079198 0,0.595485 0.48429,1.079198 1.0792,1.079198 3.47463,0 6.16877,-1.701085 7.50235,-3.247228 l -0.45866,-1.069563 z"
       id="path1251-9-2"
       style="display:inline;stroke-width:0.0192713;fill:#d40000" />
    <path
       d="m 173.14526,68.96494 c 0.41356,-0.739636 0.38292,-1.679887 -0.10888,-2.372308 -0.14533,-0.208709 -0.42994,-0.260742 -0.63981,-0.114433 -0.20755,0.146039 -0.259,0.43457 -0.11362,0.643856 0.2777,0.400075 0.29158,0.919053 0.079,1.344565 -0.33247,-0.158835 -0.70056,-0.255192 -1.08598,-0.255192 -0.6982,0 -1.32838,0.266524 -1.81614,0.692228 l 1.5078,0.664478 v 1.74406 h 1.74521 l 0.64617,1.507601 c 0.42609,-0.488144 0.69204,-1.118319 0.69204,-1.833288 0,-0.792053 -0.35267,-1.512802 -0.90576,-2.021567 z m -2.79434,2.963938 v -1.954117 l -1.02043,-0.437269 c -0.97995,1.491413 -1.51376,4.549781 -4.06722,4.549781 -0.59491,0 -1.0792,0.483712 -1.0792,1.079198 0,0.595485 0.48429,1.079198 1.0792,1.079198 3.47462,0 6.16877,-1.701085 7.50235,-3.247228 l -0.45866,-1.069563 z"
       id="path1251-6-3-6"
       style="display:inline;stroke-width:0.0192713;fill:#d40000" />
    <path
       d="m 57.783786,44.874257 h -1.23337 c 0,2.385798 1.932917,4.31679 4.316789,4.31679 v 2.466738 c 0,0.35652 0.277507,0.634028 0.599345,0.634028 0.321829,0 0.634026,-0.277508 0.634026,-0.616684 v -2.466738 c 0,-2.38387 -1.932918,-4.334134 -4.31679,-4.334134 z m 7.400208,-1.216024 c -1.623612,0 -3.033313,0.89612 -3.773332,2.22199 0.534774,0.580455 0.92984,1.28887 1.13701,2.071674 2.17381,-0.225476 3.869693,-2.060111 3.869693,-4.293664 z"
       id="path1260"
       style="fill:#008000;stroke-width:0.0192713" />
    <path
       d="m 135.1917,46.028218 h -1.23337 c 0,2.385798 1.93292,4.31679 4.31679,4.31679 v 2.466738 c 0,0.35652 0.27751,0.634028 0.59935,0.634028 0.32182,0 0.63402,-0.277508 0.63402,-0.616684 v -2.466738 c 0,-2.38387 -1.93292,-4.334134 -4.31679,-4.334134 z m 7.40021,-1.216024 c -1.62361,0 -3.03331,0.89612 -3.77333,2.22199 0.53477,0.580455 0.92984,1.28887 1.13701,2.071674 2.17381,-0.225476 3.86969,-2.060111 3.86969,-4.293664 z"
       id="path1260-6"
       style="display:inline;stroke-width:0.0192713;fill:#008000" />
    <path
       d="m 90.143619,49.636607 c -1.015618,-0.495275 -2.206588,-0.20235 -2.911918,0.632101 l 1.06513,1.0659 c 0.12044,0.120446 0.12044,0.314702 0,0.435148 -0.0602,0.05781 -0.14003,0.08874 -0.2195,0.08874 -0.0795,0 -0.15548,-0.03093 -0.21565,-0.08874 l -0.95374,-0.969158 -2.46867,5.064519 c -0.0554,0.115629 -0.0578,0.255347 0,0.378298 0.106,0.214298 0.36616,0.303524 0.57815,0.200037 l 2.57465,-1.257458 -0.94622,-0.949309 c -0.1229,-0.118036 -0.1229,-0.315664 0,-0.433605 0.12045,-0.120447 0.31547,-0.120447 0.4336,0 l 1.09809,1.098083 1.965688,-0.961449 c 0.46251,-0.224126 0.85758,-0.602423 1.10097,-1.100975 0.58181,-1.188273 0.0885,-2.620136 -1.10058,-3.202132 z m 1.77297,-0.670645 c 0.37578,-0.786273 0.18307,-1.713611 -0.59935,-2.347254 -0.96839,0.80458 -1.01194,2.071674 -0.15176,2.927323 l 0.15417,0.154171 c 0.87251,0.859504 2.14249,0.817106 2.94419,-0.152244 -0.63403,-0.765074 -1.57833,-0.957788 -2.34725,-0.581996 z"
       id="path1242-5-2-7"
       style="display:inline;stroke-width:0.0192713;fill:#ff6600" />
    <path
       d="m 108.53303,49.35294 c -1.01561,-0.495275 -2.20658,-0.20235 -2.91191,0.632101 l 1.06513,1.0659 c 0.12044,0.120446 0.12044,0.314702 0,0.435148 -0.0602,0.05781 -0.14003,0.08874 -0.2195,0.08874 -0.0795,0 -0.15548,-0.03093 -0.21565,-0.08874 l -0.95374,-0.969158 -2.46867,5.064519 c -0.0554,0.115629 -0.0578,0.255347 0,0.378298 0.106,0.214298 0.36616,0.303524 0.57815,0.200037 l 2.57465,-1.257458 -0.94622,-0.949309 c -0.1229,-0.118036 -0.1229,-0.315664 0,-0.433605 0.12045,-0.120447 0.31547,-0.120447 0.4336,0 l 1.09809,1.098083 1.96568,-0.961449 c 0.46251,-0.224126 0.85758,-0.602423 1.10097,-1.100975 0.58181,-1.188273 0.0885,-2.620136 -1.10058,-3.202132 z m 1.77297,-0.670645 c 0.37578,-0.786273 0.18307,-1.713611 -0.59935,-2.347254 -0.96839,0.80458 -1.01194,2.071674 -0.15176,2.927323 l 0.15417,0.154171 c 0.87251,0.859504 2.14249,0.817106 2.94419,-0.152244 -0.63403,-0.765074 -1.57833,-0.957788 -2.34725,-0.581996 z"
       id="path1242-5-2-9"
       style="display:inline;stroke-width:0.0192713;fill:#ff6600" />
  </g>
</svg>
