<svg xmlns="http://www.w3.org/2000/svg" xmlns:xlink="http://www.w3.org/1999/xlink" width="500" zoomAndPan="magnify" viewBox="0 0 375 374.999991" height="500" preserveAspectRatio="xMidYMid meet" version="1.0"><defs><clipPath id="4f96bcd7e5"><path d="M 37.5 150 L 337.5 150 L 337.5 225 L 37.5 225 Z M 37.5 150 " clip-rule="nonzero"/></clipPath></defs><rect x="-37.5" width="450" fill="#ffffff" y="-37.499999" height="449.999989" fill-opacity="1"/><rect x="-37.5" width="450" fill="#ffffff" y="-37.499999" height="449.999989" fill-opacity="1"/><rect x="-37.5" width="450" fill="#d9d9d9" y="-37.499999" height="449.999989" fill-opacity="1"/><g clip-path="url(#4f96bcd7e5)"><path fill="#469951" d="M 75 150 C 54.28125 150 37.5 166.78125 37.5 187.5 C 37.5 208.21875 54.28125 225 75 225 C 95.71875 225 112.5 208.21875 112.5 187.5 C 112.5 166.78125 95.71875 150 75 150 Z M 300 150 C 279.28125 150 262.5 166.78125 262.5 187.5 C 262.5 208.21875 279.28125 225 300 225 C 320.71875 225 337.5 208.21875 337.5 187.5 C 337.5 166.78125 320.71875 150 300 150 Z M 187.5 150 C 166.78125 150 150 166.78125 150 187.5 C 150 208.21875 166.78125 225 187.5 225 C 208.21875 225 225 208.21875 225 187.5 C 225 166.78125 208.21875 150 187.5 150 Z M 187.5 150 " fill-opacity="1" fill-rule="nonzero"/></g></svg>