<svg width="305" height="305" xmlns="http://www.w3.org/2000/svg" xmlns:xlink="http://www.w3.org/1999/xlink" xml:space="preserve" overflow="hidden"><defs><clipPath id="clip0"><rect x="421" y="184" width="305" height="305"/></clipPath></defs><g clip-path="url(#clip0)" transform="translate(-421 -184)"><path d="M647.526 380.661C640.536 373.672 629.099 373.99 620.521 380.661L607.177 367.318C641.807 329.828 639.583 271.688 602.094 237.057 564.604 202.427 506.781 204.969 472.151 242.458 437.521 279.948 440.062 338.089 477.234 372.719 512.818 405.76 567.781 405.443 603.047 372.083L616.391 385.427C613.531 388.922 611.943 393.37 611.307 397.818 610.672 403.219 612.578 408.62 616.391 412.432L661.188 457.229C664.682 460.406 669.13 462.312 673.896 462.312 680.25 462.312 685.969 459.771 690.417 455.323 694.547 451.51 697.089 446.109 697.406 440.391 698.042 434.99 696.135 429.589 692.323 425.776L647.526 380.661ZM479.458 365.411C446.099 332.052 446.099 277.724 479.458 244.047 512.818 210.37 567.146 210.688 600.823 244.047 634.5 277.406 634.182 331.734 600.823 365.411 584.62 381.615 563.016 390.51 540.141 390.51 517.583 390.51 495.661 381.615 479.458 365.411ZM685.651 450.24C679.615 456.276 670.401 457.229 665.318 452.146L620.839 407.667C618.297 405.125 617.344 401.63 617.661 398.135 617.979 394.005 619.885 390.193 623.062 387.333 626.24 384.156 630.688 382.25 635.135 381.932 638.312 381.932 641.172 382.885 643.396 385.109L687.875 429.906C690.417 432.448 691.37 435.943 691.052 439.438 690.417 443.568 688.828 447.38 685.651 450.24 685.651 450.24 685.651 450.24 685.651 450.24Z" stroke="#000000" stroke-width="8"/></g></svg>