<svg width="325" height="326" xmlns="http://www.w3.org/2000/svg" xmlns:xlink="http://www.w3.org/1999/xlink" xml:space="preserve" overflow="hidden"><defs><clipPath id="clip0"><rect x="403" y="197" width="325" height="326"/></clipPath></defs><g clip-path="url(#clip0)" transform="translate(-403 -197)"><path d="M162.5 33.8542C91.4303 33.8336 33.8003 91.4303 33.7797 162.5 33.7591 233.57 91.3558 291.2 162.426 291.22 233.495 291.241 291.125 233.644 291.146 162.574 291.146 162.561 291.146 162.547 291.146 162.534 291.183 91.5034 233.632 33.8914 162.602 33.8542 162.568 33.8542 162.534 33.8542 162.5 33.8542ZM162.5 284.446C95.1698 284.467 40.5712 229.901 40.5505 162.571 40.5299 95.2409 95.0953 40.6423 162.426 40.6216 229.756 40.601 284.354 95.1664 284.375 162.497 284.375 162.513 284.375 162.528 284.375 162.544 284.308 229.832 229.788 284.369 162.5 284.456Z" stroke="#B7B7B7" stroke-width="8" transform="matrix(1 0 0 1.00308 403 197)"/><path d="M164.193 103.303 157.422 103.303 157.422 159.115 101.562 159.115 101.562 165.885 157.422 165.885 157.422 221.792 164.193 221.792 164.193 165.885 220.052 165.885 220.052 159.115 164.193 159.115 164.193 103.303Z" stroke="#B7B7B7" stroke-width="8" transform="matrix(1 0 0 1.00308 403 197)"/></g></svg>