<svg xmlns="http://www.w3.org/2000/svg" xmlns:xlink="http://www.w3.org/1999/xlink" width="500" zoomAndPan="magnify" viewBox="0 0 375 374.999991" height="500" preserveAspectRatio="xMidYMid meet" version="1.0"><defs><clipPath id="22b87199b3"><path d="M 38 59 L 337 59 L 337 334.5 L 38 334.5 Z M 38 59 " clip-rule="nonzero"/></clipPath><clipPath id="793a7d9ac2"><path d="M 93 37.5 L 120 37.5 L 120 98 L 93 98 Z M 93 37.5 " clip-rule="nonzero"/></clipPath><clipPath id="b3b85562f8"><path d="M 253 37.5 L 280 37.5 L 280 98 L 253 98 Z M 253 37.5 " clip-rule="nonzero"/></clipPath></defs><g clip-path="url(#22b87199b3)"><path fill="#ffffff" d="M 307.078125 59.785156 L 288.480469 59.785156 L 288.480469 85.058594 C 288.480469 97.03125 278.847656 106.34375 267.21875 106.34375 L 265.890625 106.34375 C 253.933594 106.34375 244.632812 96.699219 244.632812 85.058594 L 244.632812 59.785156 L 128.375 59.785156 L 128.375 85.058594 C 128.375 97.03125 118.742188 106.34375 107.117188 106.34375 L 105.785156 106.34375 C 93.828125 106.34375 84.527344 96.699219 84.527344 85.058594 L 84.527344 59.785156 L 67.921875 59.785156 C 51.3125 59.785156 38.023438 73.085938 38.023438 89.714844 L 38.023438 304.566406 C 38.023438 321.195312 51.3125 334.5 67.921875 334.5 L 264.230469 334.5 L 278.179688 334.167969 C 279.84375 333.503906 281.503906 332.835938 282.832031 331.507812 L 330.996094 280.289062 C 331.660156 279.625 331.992188 278.957031 332.65625 278.292969 C 335.3125 274.96875 336.644531 270.976562 336.644531 266.984375 L 336.644531 89.714844 C 336.976562 73.085938 323.6875 59.785156 307.078125 59.785156 Z M 277.847656 305.898438 L 277.847656 279.957031 C 277.847656 274.96875 281.835938 271.308594 286.484375 271.308594 L 310.734375 271.308594 Z M 315.714844 250.023438 L 286.484375 250.023438 C 269.878906 250.023438 256.589844 263.328125 256.589844 279.957031 L 256.589844 313.546875 L 67.921875 313.546875 C 62.9375 313.546875 59.285156 309.554688 59.285156 304.898438 L 59.285156 136.945312 L 316.046875 136.945312 L 316.046875 250.023438 Z M 315.714844 250.023438 " fill-opacity="1" fill-rule="nonzero"/></g><g clip-path="url(#793a7d9ac2)"><path fill="#ffffff" d="M 106.785156 97.03125 C 113.425781 97.03125 119.074219 91.378906 119.074219 84.726562 L 119.074219 49.804688 C 119.074219 43.152344 113.425781 37.5 106.785156 37.5 L 105.453125 37.5 C 98.8125 37.5 93.164062 43.152344 93.164062 49.804688 L 93.164062 85.058594 C 93.164062 91.710938 98.8125 97.367188 105.453125 97.367188 L 106.785156 97.367188 Z M 106.785156 97.03125 " fill-opacity="1" fill-rule="nonzero"/></g><g clip-path="url(#b3b85562f8)"><path fill="#ffffff" d="M 267.21875 97.03125 C 273.863281 97.03125 279.511719 91.378906 279.511719 84.726562 L 279.511719 49.804688 C 279.511719 43.152344 273.863281 37.5 267.21875 37.5 L 265.890625 37.5 C 259.246094 37.5 253.601562 43.152344 253.601562 49.804688 L 253.601562 85.058594 C 253.601562 91.710938 259.246094 97.367188 265.890625 97.367188 L 267.21875 97.367188 Z M 267.21875 97.03125 " fill-opacity="1" fill-rule="nonzero"/></g><path fill="#ffffff" d="M 91.835938 166.210938 L 116.417969 166.210938 L 116.417969 190.824219 L 91.835938 190.824219 Z M 91.835938 166.210938 " fill-opacity="1" fill-rule="nonzero"/><path fill="#ffffff" d="M 147.640625 166.210938 L 172.21875 166.210938 L 172.21875 190.824219 L 147.640625 190.824219 Z M 147.640625 166.210938 " fill-opacity="1" fill-rule="nonzero"/><path fill="#ffffff" d="M 203.445312 166.210938 L 228.023438 166.210938 L 228.023438 190.824219 L 203.445312 190.824219 Z M 203.445312 166.210938 " fill-opacity="1" fill-rule="nonzero"/><path fill="#ffffff" d="M 258.914062 166.210938 L 283.496094 166.210938 L 283.496094 190.824219 L 258.914062 190.824219 Z M 258.914062 166.210938 " fill-opacity="1" fill-rule="nonzero"/><path fill="#ffffff" d="M 91.835938 213.4375 L 116.417969 213.4375 L 116.417969 238.050781 L 91.835938 238.050781 Z M 91.835938 213.4375 " fill-opacity="1" fill-rule="nonzero"/><path fill="#ffffff" d="M 147.640625 213.4375 L 172.21875 213.4375 L 172.21875 238.050781 L 147.640625 238.050781 Z M 147.640625 213.4375 " fill-opacity="1" fill-rule="nonzero"/><path fill="#ffffff" d="M 203.445312 213.4375 L 228.023438 213.4375 L 228.023438 238.050781 L 203.445312 238.050781 Z M 203.445312 213.4375 " fill-opacity="1" fill-rule="nonzero"/><path fill="#ffffff" d="M 258.914062 213.4375 L 283.496094 213.4375 L 283.496094 238.050781 L 258.914062 238.050781 Z M 258.914062 213.4375 " fill-opacity="1" fill-rule="nonzero"/><path fill="#ffffff" d="M 91.835938 261 L 116.417969 261 L 116.417969 285.609375 L 91.835938 285.609375 Z M 91.835938 261 " fill-opacity="1" fill-rule="nonzero"/><path fill="#ffffff" d="M 147.640625 261 L 172.21875 261 L 172.21875 285.609375 L 147.640625 285.609375 Z M 147.640625 261 " fill-opacity="1" fill-rule="nonzero"/><path fill="#ffffff" d="M 203.445312 261 L 228.023438 261 L 228.023438 285.609375 L 203.445312 285.609375 Z M 203.445312 261 " fill-opacity="1" fill-rule="nonzero"/></svg>