<svg width="391" height="391" xmlns="http://www.w3.org/2000/svg" xmlns:xlink="http://www.w3.org/1999/xlink" xml:space="preserve" overflow="hidden"><defs><clipPath id="clip0"><rect x="186" y="65" width="391" height="391"/></clipPath></defs><g clip-path="url(#clip0)" transform="translate(-186 -65)"><path d="M516.68 363.097C493.75 351.611 459.333 322.368 456.075 213.906 454.894 174.032 430.171 156.885 409.481 149.554 410.253 146.908 410.637 144.164 410.621 141.408 410.621 125.325 397.583 112.287 381.5 112.287 365.417 112.287 352.379 125.325 352.379 141.408 352.363 144.164 352.747 146.908 353.519 149.554 332.829 156.885 308.106 173.991 306.925 213.906 303.667 322.245 269.25 351.57 246.32 363.056 236.993 367.699 241.677 378.615 247.094 378.615L350.953 378.615C352.698 395.485 367.789 407.747 384.659 406.003 399.12 404.507 410.551 393.076 412.047 378.615L515.906 378.615C521.323 378.615 526.007 367.74 516.68 363.097ZM368.67 141.612C368.67 134.526 374.414 128.782 381.5 128.782 388.586 128.782 394.33 134.526 394.33 141.612 394.312 142.897 394.106 144.173 393.719 145.399 389.689 144.618 385.603 144.155 381.5 144.015L381.5 144.015C377.399 144.18 373.315 144.643 369.281 145.399 368.887 144.175 368.68 142.898 368.67 141.612Z" fill="#FFFFFF"/></g></svg>